<svg width="0" height="0" class="hidden">
  <symbol fill="none" xmlns="http://www.w3.org/2000/svg" viewBox="0 0 150 150" id="high">
    <path d="M59.62 30.03a6.592 6.592 0 000 13.183H75V30.029H59.62z" fill="#85453D"></path>
    <path d="M90.38 30.03H75v13.183h15.38a6.591 6.591 0 006.593-6.592c0-3.64-2.95-6.592-6.592-6.592z" fill="#60312C"></path>
    <path d="M75 16.846v13.58h10.165v-8.789A13.157 13.157 0 0075 16.846z" fill="#60312C"></path>
    <path d="M64.835 30.426v-8.789A13.157 13.157 0 0175 16.846c1.784 0 3.317 3.187 4.005 7.763-.038-.018 0 5.817 0 5.817h-14.17z" fill="#85453D"></path>
    <path d="M85.165 21.637a4.4 4.4 0 01-2.598 3.066 4.39 4.39 0 01-3.999-.33L75 43.212c7.28 0 13.184-5.903 13.184-13.184a13.14 13.14 0 00-3.02-8.392z" fill="#F5BF93"></path>
    <path d="M79.005 24.61c-.15-.07-.296-.15-.437-.238A4.383 4.383 0 0175 26.206a4.377 4.377 0 01-3.568-1.834 4.39 4.39 0 01-5.52-.72 4.436 4.436 0 01-1.077-2.015 13.14 13.14 0 00-3.019 8.392c0 7.281 5.903 13.184 13.184 13.184 2.426 0 4.394-5.903 4.394-13.184 0-1.934-.14-3.767-.389-5.42z" fill="#FAD5B3"></path>
    <path d="M82.324 52.002H75L61.816 84.228h26.368V57.861a5.86 5.86 0 00-5.86-5.859z" fill="#DBF4FF"></path>
    <path d="M75 52.002h-7.324a5.859 5.859 0 00-5.86 5.86v26.366H75V52.002z" fill="#fff"></path>
    <path d="M88.184 75.44h-8.79l4.395 21.972h8.79V87.06c0-4.457-1.663-8.523-4.395-11.62z" fill="#002F42"></path>
    <path d="M79.394 75.44H61.816a17.506 17.506 0 00-4.394 11.62v10.352h26.367V87.06a17.512 17.512 0 00-4.395-11.62z" fill="#084F6D"></path>
    <path d="M114.844 66.65l4.394 26.368c7.281 0 13.184-5.903 13.184-13.184L114.844 66.65z" fill="#002F42"></path>
    <path d="M106.055 79.834c0 7.28 5.903 13.184 13.183 13.184V66.65l-13.183 13.184z" fill="#084F6D"></path>
    <path d="M128.027 52.002l-8.789-.004-8.789 13.917 8.789 13.916 13.184.003V56.396l-4.395-4.394z" fill="#DBF4FF"></path>
    <path d="M119.238 51.998l-8.789.004-4.394 4.395v23.437l13.183-.003V51.998z" fill="#fff"></path>
    <path d="M107.522 52.002a5.859 5.859 0 00-5.86 5.86l-.002 31.797h8.789V52.002h-2.927z" fill="#1990C2"></path>
    <path d="M130.957 52.002h-2.93v37.657h8.789V57.86a5.859 5.859 0 00-5.859-5.859z" fill="#116F97"></path>
    <path d="M119.238 16.846v26.367c7.281 0 13.184-5.903 13.184-13.184 0-7.28-5.903-13.183-13.184-13.183z" fill="#FFB4A9"></path>
    <path d="M123.633 30.03c0-7.281-1.967-13.184-4.395-13.184-7.28 0-13.183 5.903-13.183 13.183 0 7.281 5.903 13.184 13.183 13.184 2.428 0 4.395-5.903 4.395-13.184z" fill="#FFD9D0"></path>
    <path d="M26.367 66.65l4.395 26.368c7.28 0 13.183-5.903 13.183-13.184L26.367 66.65z" fill="#002F42"></path>
    <path d="M17.578 79.834c0 7.28 5.903 13.184 13.184 13.184V66.65L17.578 79.834z" fill="#084F6D"></path>
    <path d="M39.55 52.002l-8.788-.004-8.79 13.917 8.79 13.916 13.183.003V56.396l-4.394-4.394z" fill="#DBF4FF"></path>
    <path d="M30.762 51.998l-8.79.004-4.394 4.395v23.437l13.184-.003V51.998z" fill="#fff"></path>
    <path d="M19.045 52.002a5.859 5.859 0 00-5.86 5.86l-.001 31.797h8.789V52.002h-2.928z" fill="#1990C2"></path>
    <path d="M42.48 52.002h-2.93v37.657h8.79V57.86a5.859 5.859 0 00-5.86-5.859z" fill="#116F97"></path>
    <path d="M34.89 25.502l-4.128 17.71c7.28 0 13.183-5.902 13.183-13.183l-9.054-4.527z" fill="#FFD9D4"></path>
    <path d="M35.156 30.03c0-1.591-.094-3.116-.265-4.528l-12.04-6.018a13.162 13.162 0 00-5.273 10.545c0 7.281 5.903 13.184 13.184 13.184 2.427 0 4.394-5.903 4.394-13.184z" fill="#FFF0D3"></path>
    <path d="M30.762 16.846l4.364 11.67a26.322 26.322 0 008.82 1.513c0-7.28-5.904-13.183-13.184-13.183z" fill="#FFA754"></path>
    <path d="M30.762 16.846c-2.969 0-5.707.982-7.912 2.638a26.424 26.424 0 0012.276 9.031c-.25-6.567-2.109-11.67-4.364-11.67z" fill="#FFCB63"></path>
    <path d="M90.38 27.832h-.158C89.152 20.389 82.735 14.648 75 14.648c-7.735 0-14.152 5.74-15.222 13.184h-.159c-4.845 0-8.789 3.942-8.789 8.79 0 4.846 3.944 8.788 8.79 8.788h30.76c4.847 0 8.79-3.942 8.79-8.789 0-4.847-3.943-8.789-8.79-8.789zM75 41.016c-6.056 0-10.984-4.927-10.986-10.983 0-1.54.318-3 .887-4.326.503.42 1.072.769 1.691 1.026a6.597 6.597 0 004.32.246A6.604 6.604 0 0075 28.403a6.601 6.601 0 004.087-1.424 6.62 6.62 0 004.324-.247 6.588 6.588 0 001.687-1.025c.571 1.327.888 2.789.888 4.322 0 6.059-4.928 10.987-10.986 10.987zm7.559-18.948a2.193 2.193 0 01-2.834.437 2.198 2.198 0 00-2.942.586 2.17 2.17 0 01-1.783.918 2.17 2.17 0 01-1.783-.918 2.196 2.196 0 00-2.942-.586 2.18 2.18 0 01-1.998.17 2.202 2.202 0 01-.835-.607A10.942 10.942 0 0175 19.043c2.926 0 5.587 1.152 7.559 3.025zm-22.94 18.948a4.4 4.4 0 01-4.394-4.395 4.4 4.4 0 014.394-4.394h.16a15.353 15.353 0 004.472 8.789h-4.632zm30.762 0h-4.632a15.353 15.353 0 004.473-8.79h.159a4.4 4.4 0 014.394 4.395 4.4 4.4 0 01-4.394 4.395zm2.892 90.054l-7.287-2.429V99.609h6.591a2.196 2.196 0 002.197-2.197V87.06c0-4.533-1.554-8.912-4.394-12.424V57.861c0-4.442-3.614-8.056-8.057-8.056H67.676c-4.443 0-8.057 3.614-8.057 8.056v16.775a19.747 19.747 0 00-4.394 12.424v10.352c0 1.214.983 2.197 2.197 2.197h6.592v29.032l-7.287 2.429a2.198 2.198 0 00.695 4.283c.23 0 .464-.037.695-.115l8.789-2.929a2.197 2.197 0 001.502-2.084V99.609h13.184v30.616c0 .946.605 1.785 1.502 2.084l8.79 2.929c.23.078.464.115.694.115a2.198 2.198 0 00.695-4.283zM67.676 54.2h5.127v12.447a2.196 2.196 0 104.394 0V54.199h5.126a3.665 3.665 0 013.662 3.662v15.381H64.014v-15.38a3.665 3.665 0 013.662-3.663zm-8.057 32.86c0-3.424 1.143-6.733 3.234-9.423h24.294a15.354 15.354 0 013.234 9.423v8.155H59.619V87.06zm77.197 4.796a2.196 2.196 0 002.198-2.197v-7.814C145.24 80.795 150 75.368 150 68.848c0-6.614-4.896-12.104-11.253-13.04-.911-3.451-4.058-6.003-7.79-6.003H107.52c-4.443 0-8.057 3.614-8.057 8.056V89.66c0 1.214.983 2.197 2.197 2.197h6.592v36.785l-7.286 2.429a2.198 2.198 0 00.694 4.283c.23 0 .465-.037.695-.115l8.789-2.929a2.198 2.198 0 001.503-2.084V93.729a15.362 15.362 0 0013.183 0v36.496c0 .946.605 1.785 1.503 2.084l8.789 2.929c.23.078.464.115.694.115.921 0 1.778-.583 2.084-1.504a2.196 2.196 0 00-1.389-2.779l-7.286-2.429V91.856h6.591zm8.789-23.008c0 4.088-2.804 7.532-6.591 8.51v-17.02c3.787.978 6.591 4.423 6.591 8.51zM134.619 57.86v29.6h-4.394V54.2h.732a3.665 3.665 0 013.662 3.662zm-21.972-3.66h4.394v16.843a2.197 2.197 0 104.395 0V54.198h4.394v23.438h-13.183V54.199zm-8.79 33.263v-29.6a3.666 3.666 0 013.663-3.663h.732v33.263h-4.395zm15.381 3.358a10.97 10.97 0 01-6.591-2.198v-6.59h13.183v6.59a10.96 10.96 0 01-6.592 2.198zm0-45.411c8.481 0 15.381-6.9 15.381-15.38 0-8.482-6.9-15.382-15.381-15.382s-15.381 6.9-15.381 15.381c0 8.482 6.9 15.381 15.381 15.381zm0-26.367c6.059 0 10.987 4.928 10.987 10.986 0 6.059-4.928 10.987-10.987 10.987-6.058 0-10.986-4.928-10.986-10.987 0-6.058 4.928-10.986 10.986-10.986zM49.035 131.07l-7.287-2.429V91.856h6.592a2.196 2.196 0 002.197-2.197V57.86c0-4.442-3.614-8.056-8.056-8.056H19.043c-3.732 0-6.88 2.552-7.79 6.002C4.896 56.744 0 62.234 0 68.847c0 6.522 4.76 11.948 10.986 12.998v7.814c0 1.214.983 2.197 2.198 2.197h6.591v36.785l-7.286 2.429a2.198 2.198 0 00.695 4.283c.23 0 .464-.037.694-.115l8.79-2.929a2.197 2.197 0 001.502-2.084V93.729a15.366 15.366 0 0013.183 0v36.496c0 .946.606 1.785 1.503 2.084l8.79 2.929c.23.078.464.115.694.115a2.198 2.198 0 00.694-4.283zm-2.892-73.209v29.6h-4.395V54.2h.733a3.665 3.665 0 013.662 3.662zM24.17 54.2h4.394v16.843a2.196 2.196 0 104.395 0V54.198h4.394v23.438H24.17V54.199zM4.395 68.848c0-4.088 2.804-7.533 6.591-8.511v17.022c-3.787-.979-6.591-4.423-6.591-8.511zM15.38 87.462v-29.6a3.665 3.665 0 013.662-3.663h.732v33.263H15.38zm15.38 3.358a10.97 10.97 0 01-6.591-2.198v-6.59h13.183v6.59a10.96 10.96 0 01-6.591 2.198zm.002-45.41c8.48 0 15.38-6.9 15.38-15.38 0-8.482-6.9-15.382-15.38-15.382-8.482 0-15.381 6.9-15.381 15.381 0 8.482 6.9 15.381 15.38 15.381zM41.5 27.708a23.898 23.898 0 01-15.322-7.66 10.909 10.909 0 014.584-1.005c5.262 0 9.669 3.72 10.738 8.665zm-18.883-5.044c4.89 5.51 11.594 8.861 18.927 9.463-.982 5.058-5.441 8.889-10.782 8.889-6.059 0-10.987-4.928-10.987-10.987 0-2.831 1.077-5.415 2.842-7.365z" fill="#000"></path>
  </symbol>
  <symbol fill="none" xmlns="http://www.w3.org/2000/svg" viewBox="0 0 150 150" id="primary">
    <g clip-path="url(#clip0)">
      <path d="M96.975 15.38v26.368l-8.79 5.274-8.788-31.641h17.578z" fill="#FF1B7C"></path>
      <path d="M88.186 15.38v31.642l-13.183 7.91-8.79-39.551h21.973z" fill="#FF4996"></path>
      <path d="M75.003 15.38v39.552L53.03 41.748V15.381h21.973z" fill="#FFCB63"></path>
      <path d="M75.003 2.197L53.03 15.381l21.973 13.183 21.972-13.183L75.003 2.197z" fill="#49C9FF"></path>
      <path d="M44.24 72.51a5.86 5.86 0 00-5.859-5.86h-8.789v32.227h14.649V72.51z" fill="#FF4996"></path>
      <path d="M35.451 90.088l-5.859 17.403h10.254a10.727 10.727 0 008.789 4.569v-10.352a17.5 17.5 0 00-4.395-11.62h-8.789z" fill="#FFA754"></path>
      <path d="M35.452 72.51a5.86 5.86 0 00-5.86-5.86h-5.86a5.86 5.86 0 00-5.859 5.86v26.367h17.579V72.51z" fill="#FF6B8A"></path>
      <path d="M35.452 90.088H17.873a17.506 17.506 0 00-4.394 11.62v10.352a10.73 10.73 0 008.79-4.569 10.725 10.725 0 008.788 4.569 10.73 10.73 0 008.79-4.569l-.001-5.783c0-4.456-1.661-8.522-4.394-11.62z" fill="#FFCB63"></path>
      <path d="M126.267 66.65h-8.789v35.156h14.648V72.51a5.86 5.86 0 00-5.859-5.86z" fill="#FF8646"></path>
      <path d="M117.478 66.65h-5.859a5.86 5.86 0 00-5.86 5.86v17.578l17.578 11.718V72.51a5.86 5.86 0 00-5.859-5.86z" fill="#FFA754"></path>
      <path d="M132.126 90.088h-8.789l4.395 21.972h8.789v-10.352c0-4.456-1.662-8.522-4.395-11.62z" fill="#49C9FF"></path>
      <path d="M123.337 90.088h-17.578a17.506 17.506 0 00-4.394 11.62v10.352h26.367v-10.352a17.5 17.5 0 00-4.395-11.62z" fill="#7DD9FF"></path>
      <path d="M123.072 40.15l-4.129 17.711c7.281 0 13.184-5.902 13.184-13.183l-9.055-4.528z" fill="#FFB4A9"></path>
      <path d="M123.338 44.678c0-1.59-.094-3.116-.266-4.528l-12.04-6.019a13.164 13.164 0 00-5.272 10.546c0 7.282 5.902 13.184 13.183 13.184 2.427 0 4.395-5.902 4.395-13.183z" fill="#FFD9D4"></path>
      <path d="M118.943 31.494l4.365 11.67a26.317 26.317 0 008.819 1.514c0-7.281-5.903-13.184-13.184-13.184z" fill="#60312C"></path>
      <path d="M118.943 31.494a13.13 13.13 0 00-7.911 2.637 26.435 26.435 0 0012.276 9.033c-.25-6.568-2.109-11.67-4.365-11.67z" fill="#85453D"></path>
      <path d="M35.683 21.24a5.122 5.122 0 00-4.627-2.93 5.122 5.122 0 00-4.626 2.93 5.127 5.127 0 000 10.254h9.253a5.127 5.127 0 100-10.254z" fill="#40211D"></path>
      <path d="M31.056 31.494v26.367c7.281 0 13.184-5.902 13.184-13.183s-5.903-13.184-13.184-13.184z" fill="#F5BF93"></path>
      <path d="M35.45 44.678c0-7.281-1.967-13.184-4.394-13.184-7.281 0-13.183 5.903-13.183 13.184 0 7.28 5.902 13.183 13.183 13.183 2.427 0 4.395-5.902 4.395-13.183z" fill="#FAD5B3"></path>
      <path d="M99.172 41.748V15.381c0-.772-.405-1.487-1.067-1.884L76.133.313a2.198 2.198 0 00-2.261 0L51.898 13.497a2.197 2.197 0 00-1.067 1.884v26.367c0 .772.405 1.487 1.067 1.884L73.87 56.816a2.197 2.197 0 002.262 0l21.972-13.184a2.198 2.198 0 001.067-1.884zM75.002 4.76l17.702 10.62-17.702 10.622L57.3 15.38 75.002 4.76zM55.227 19.262l17.578 10.546v21.243L55.227 40.504V19.262zM77.199 51.05V29.808l17.578-10.546v21.242L77.2 51.05zm60.017 94.668l-7.287-2.429v-29.032h6.592a2.197 2.197 0 002.197-2.197v-10.352c0-4.532-1.555-8.911-4.395-12.424V72.51c0-4.442-3.614-8.056-8.056-8.056h-14.649c-3.68 0-6.79 2.482-7.749 5.86H88.181a2.2 2.2 0 01-2.197-2.198 2.2 2.2 0 012.197-2.197h4.394a2.197 2.197 0 000-4.395h-4.394a6.599 6.599 0 00-6.592 6.592 6.599 6.599 0 006.592 6.592h15.381v14.578a19.75 19.75 0 00-4.395 12.423v10.352c0 1.214.984 2.197 2.197 2.197h6.592v29.032l-7.286 2.429a2.197 2.197 0 101.389 4.169l8.789-2.93a2.197 2.197 0 001.503-2.085v-30.615h13.183v30.615c0 .946.606 1.786 1.503 2.085l8.789 2.93a2.198 2.198 0 001.39-4.169zm-25.597-76.87h14.648a3.666 3.666 0 013.662 3.662v15.38h-21.973V72.51a3.666 3.666 0 013.663-3.663zm-8.057 32.86c0-3.424 1.144-6.733 3.234-9.423h24.294a15.36 15.36 0 013.234 9.423v8.155h-30.762v-8.155zm15.381-41.649c8.481 0 15.381-6.9 15.381-15.381s-6.9-15.381-15.381-15.381-15.381 6.9-15.381 15.38c0 8.482 6.9 15.382 15.381 15.382zm10.737-17.702a23.901 23.901 0 01-15.321-7.66 10.915 10.915 0 014.584-1.006c5.262 0 9.67 3.72 10.737 8.666zm-18.882-5.044c4.89 5.508 11.595 8.86 18.928 9.462-.982 5.058-5.442 8.889-10.783 8.889-6.058 0-10.986-4.928-10.986-10.986 0-2.831 1.076-5.415 2.841-7.365zm-95.123 7.365c0 8.48 6.9 15.38 15.381 15.38s15.381-6.9 15.381-15.38c0-5.115-2.512-9.653-6.366-12.45a7.318 7.318 0 002.936-5.86c0-3.592-2.598-6.588-6.013-7.208a7.36 7.36 0 00-5.938-3.047 7.361 7.361 0 00-5.937 3.047c-3.416.62-6.014 3.616-6.014 7.207a7.318 7.318 0 002.936 5.86c-3.853 2.798-6.366 7.335-6.366 12.45zm26.367 0c0 6.058-4.928 10.986-10.986 10.986-6.058 0-10.986-4.928-10.986-10.986 0-6.058 4.928-10.987 10.986-10.987 6.058 0 10.986 4.929 10.986 10.987zM26.43 29.297a2.933 2.933 0 01-2.93-2.93 2.933 2.933 0 012.93-2.93c.848 0 1.62-.487 1.984-1.253a2.907 2.907 0 012.643-1.676c1.138 0 2.15.642 2.643 1.677a2.197 2.197 0 001.984 1.253 2.933 2.933 0 012.93 2.93 2.933 2.933 0 01-2.93 2.929H26.43zm35.389 32.226h-4.395a2.197 2.197 0 000 4.395h4.395a2.2 2.2 0 012.197 2.197 2.2 2.2 0 01-2.198 2.198H46.132c-.96-3.378-4.07-5.86-7.75-5.86H23.733c-4.443 0-8.057 3.614-8.057 8.057v16.775a19.75 19.75 0 00-4.394 12.423v10.352c0 1.214.984 2.198 2.197 2.198 2.35 0 4.62-.646 6.592-1.814v30.845l-7.287 2.429a2.197 2.197 0 101.39 4.169l8.788-2.93a2.197 2.197 0 001.503-2.084v-32.429a12.933 12.933 0 006.592 1.814c2.35 0 4.62-.646 6.591-1.814v32.429c0 .945.606 1.785 1.503 2.084l8.789 2.93a2.198 2.198 0 001.39-4.169l-7.287-2.429v-30.845a12.933 12.933 0 006.592 1.814 2.198 2.198 0 002.197-2.198v-10.352a19.75 19.75 0 00-4.395-12.423V74.707h15.381a6.599 6.599 0 006.592-6.592 6.599 6.599 0 00-6.591-6.592zm-38.086 7.325H38.38a3.666 3.666 0 013.662 3.662v15.38H20.071V72.51a3.666 3.666 0 013.662-3.662zm22.705 40.726a8.572 8.572 0 01-4.795-3.348 2.199 2.199 0 00-3.594 0 8.56 8.56 0 01-6.992 3.637 8.56 8.56 0 01-6.992-3.637 2.199 2.199 0 00-3.594.001 8.578 8.578 0 01-4.795 3.348v-7.866c0-3.424 1.144-6.733 3.234-9.424h24.294c2.09 2.69 3.234 6 3.234 9.424v7.865z" fill="#000"></path>
    </g>
    <defs>
      <clipPath id="clip0">
        <path fill="#fff" d="M0 0h150v150H0z"></path>
      </clipPath>
    </defs>
  </symbol>
  <symbol fill="none" xmlns="http://www.w3.org/2000/svg" viewBox="0 0 150 150" id="secondary">
    <path d="M60.645 58.395h-8.79l1.465 18.978V99.27c7.281 0 13.184-5.883 13.184-13.14V64.235c0-3.225-2.623-5.84-5.86-5.84z" fill="#CF301B"></path>
    <path d="M51.855 58.395h-5.859c-3.236 0-5.86 2.614-5.86 5.839v13.139l-8.788 8.759 8.789 13.139 6.591 4.379 6.592-4.38c2.428 0 4.395-5.882 4.395-13.138V64.234c0-3.225-2.623-5.84-5.86-5.84z" fill="#FF4128"></path>
    <path d="M40.137 99.27h-8.79L12.745 81.752l27.393 4.38V99.27z" fill="#A45E43"></path>
    <path d="M6.592 81.752h24.756v17.519H6.592v-17.52z" fill="#C27749"></path>
    <path d="M31.348 77.373l-8.79 4.38 8.79 4.379h8.789v-8.76h-8.79z" fill="#E18F4E"></path>
    <path d="M2.197 77.373h29.15v8.759H2.198v-8.76z" fill="#FFA754"></path>
    <path d="M62.549 99.27l-5.86 4.38 5.86 4.38h8.789v-8.76h-8.79z" fill="#E18F4E"></path>
    <path d="M40.137 99.27h22.412v8.76H40.137v-8.76z" fill="#FFA754"></path>
    <path d="M72.363 54.015c-3.236 0-5.86-2.614-5.86-5.84V36.498c6.472 0 11.72 5.229 11.72 11.678 0 3.226-2.623 5.84-5.86 5.84z" fill="#FF6337"></path>
    <path d="M57.45 31.985l-4.13 17.65c7.281 0 13.184-5.883 13.184-13.139l-9.055-4.511z" fill="#FFB4A9"></path>
    <path d="M57.715 36.497c0-1.586-.094-3.105-.266-4.512l-12.04-6c-3.2 2.398-5.272 6.213-5.272 10.512 0 7.256 5.903 13.138 13.183 13.138 2.428 0 4.395-5.882 4.395-13.138z" fill="#FFD9D0"></path>
    <path d="M53.32 23.358l4.365 11.63a26.402 26.402 0 008.819 1.508c0-7.255-5.903-13.138-13.184-13.138z" fill="#FF6337"></path>
    <path d="M53.32 23.358a13.15 13.15 0 00-7.911 2.629 26.418 26.418 0 0012.276 9c-.25-6.545-2.11-11.63-4.365-11.63z" fill="#FF8646"></path>
    <path d="M129.785 77.373V99.27c7.281 0 13.184-5.883 13.184-13.14l-13.184-8.758z" fill="#2DADE3"></path>
    <path d="M134.18 86.132v-4.38h-26.368l8.79 17.519 6.591 4.379 6.592-4.38c2.427 0 4.395-5.882 4.395-13.138z" fill="#49C9FF"></path>
    <path d="M137.109 58.395h-8.789l5.86 27.737h8.789V64.234c0-3.225-2.623-5.84-5.86-5.84z" fill="#FFCB63"></path>
    <path d="M128.32 58.395h-5.859c-3.236 0-5.859 2.614-5.859 5.839v13.139l-8.79 8.759h26.368V64.234c0-3.225-2.623-5.84-5.86-5.84z" fill="#FFE2A8"></path>
    <path d="M116.602 99.27h-8.79L89.209 81.752l27.393 4.38V99.27z" fill="#A45E43"></path>
    <path d="M83.057 81.752h24.755v17.519H83.057v-17.52z" fill="#C27749"></path>
    <path d="M107.812 77.373l-8.789 4.38 8.789 4.379h8.79v-8.76h-8.79z" fill="#E18F4E"></path>
    <path d="M78.662 77.373h29.15v8.759h-29.15v-8.76z" fill="#FFA754"></path>
    <path d="M139.014 99.27l-5.86 4.38 5.86 4.38h8.789v-8.76h-8.789z" fill="#E18F4E"></path>
    <path d="M116.602 99.27h22.412v8.76h-22.412v-8.76z" fill="#FFA754"></path>
    <path d="M129.785 23.358v26.277c7.281 0 13.184-5.883 13.184-13.139 0-7.255-5.903-13.138-13.184-13.138z" fill="#F5C5C0"></path>
    <path d="M134.18 36.496c0-7.255-1.968-13.138-4.395-13.138-7.281 0-13.183 5.883-13.183 13.138 0 7.256 5.902 13.14 13.183 13.14 2.427 0 4.395-5.884 4.395-13.14z" fill="#FFD9D0"></path>
    <path d="M71.338 97.08H64.07c2.855-2.783 4.631-6.662 4.631-10.948V64.234c0-4.428-3.614-8.03-8.056-8.03h-14.65a8.066 8.066 0 00-7.724 5.75c-10.033-.94-17.91-9.377-17.91-19.618 0-1.209-.985-2.19-2.198-2.19s-2.197.981-2.197 2.19c0 12.543 9.671 22.873 21.973 23.984v8.863H2.197A2.19 2.19 0 000 77.373v8.759c0 1.209.984 2.19 2.197 2.19h2.198v40.876c0 1.209.984 2.189 2.197 2.189s2.197-.98 2.197-2.189V101.46h29.15v27.738c0 1.209.985 2.189 2.198 2.189s2.197-.98 2.197-2.189v-18.979h26.807v18.979c0 1.209.984 2.189 2.197 2.189s2.197-.98 2.197-2.189V99.27c0-1.208-.984-2.19-2.197-2.19zM45.996 60.585h14.648a3.66 3.66 0 013.663 3.65v21.898c0 6.038-4.928 10.949-10.987 10.949H42.334V64.234a3.66 3.66 0 013.662-3.65zM37.94 79.562v4.38H4.395v-4.38h33.544zM8.79 97.081v-8.76h29.15v8.76H8.79zm33.544 8.759v-4.38h26.807v4.38H42.334z" fill="#000"></path>
    <path d="M28.418 105.84a2.194 2.194 0 00-2.197 2.19v16.67l-7.287 2.421a2.188 2.188 0 00.694 4.268 2.2 2.2 0 00.696-.114l8.789-2.92a2.19 2.19 0 001.502-2.077V108.03c0-1.209-.984-2.19-2.197-2.19zm119.385-8.76h-7.268c2.855-2.783 4.631-6.662 4.631-10.948V64.234c0-4.428-3.614-8.03-8.057-8.03h-14.648a8.067 8.067 0 00-7.724 5.75c-10.033-.94-17.91-9.377-17.91-19.618 0-1.209-.984-2.19-2.198-2.19s-2.197.981-2.197 2.19c0 12.543 9.671 22.873 21.972 23.984v8.863H78.662c-1.214 0-2.197.98-2.197 2.19v8.759c0 1.209.983 2.19 2.197 2.19h2.197v40.876c0 1.209.983 2.189 2.198 2.189 1.214 0 2.197-.98 2.197-2.189V101.46h29.15v27.738c0 1.209.983 2.189 2.198 2.189 1.214 0 2.197-.98 2.197-2.189v-18.979h26.806v18.979c0 1.209.984 2.189 2.198 2.189s2.197-.98 2.197-2.189V99.27c0-1.208-.983-2.19-2.197-2.19zm-29.004 0v-8.758h21.752c-1.021 4.992-5.46 8.759-10.766 8.759h-10.986zm3.662-36.496h14.648a3.66 3.66 0 013.662 3.65v19.708h-21.972V64.234a3.66 3.66 0 013.662-3.65zM80.859 79.562h33.545v4.38H80.859v-4.38zm4.395 17.519v-8.76h29.15v8.76h-29.15zm33.545 8.759v-4.38h26.806v4.38h-26.806z" fill="#000"></path>
    <path d="M104.883 105.84a2.193 2.193 0 00-2.197 2.19v16.67l-7.287 2.421a2.186 2.186 0 00-1.39 2.769 2.197 2.197 0 002.78 1.385l8.788-2.92a2.19 2.19 0 001.503-2.077V108.03c0-1.209-.983-2.19-2.197-2.19zm24.902-54.015c8.481 0 15.381-6.876 15.381-15.328 0-4.877-2.299-9.226-5.872-12.035l.451-.778a2.185 2.185 0 00-.805-2.99 2.198 2.198 0 00-3 .8l-.448.772a15.3 15.3 0 00-3.51-.94v-.888c0-1.209-.983-2.19-2.197-2.19a2.194 2.194 0 00-2.197 2.19v.889a15.306 15.306 0 00-3.509.94l-.447-.773a2.201 2.201 0 00-3.002-.8 2.184 2.184 0 00-.804 2.99l.45.778c-3.571 2.809-5.871 7.158-5.871 12.035-.001 8.452 6.899 15.328 15.38 15.328zm0-26.277c6.059 0 10.986 4.91 10.986 10.949 0 6.037-4.927 10.949-10.986 10.949-6.058 0-10.986-4.912-10.986-10.95 0-6.037 4.928-10.948 10.986-10.948zM53.32 51.825c4.301 0 8.193-1.77 10.987-4.616v.966c0 4.428 3.614 8.03 8.056 8.03 4.443 0 8.057-3.602 8.057-8.03 0-6.95-5.158-12.722-11.858-13.715-1.004-7.492-7.454-13.292-15.242-13.292-8.48 0-15.38 6.876-15.38 15.328 0 8.453 6.9 15.33 15.38 15.33zm22.705-3.65a3.66 3.66 0 01-3.662 3.65 3.66 3.66 0 01-3.662-3.65v-9.233c4.194.99 7.324 4.755 7.324 9.233zM64.058 34.184a23.928 23.928 0 01-15.321-7.634 10.94 10.94 0 014.583-1.002c5.262 0 9.67 3.706 10.738 8.636zm-18.882-5.028a28.294 28.294 0 0018.927 9.431 10.992 10.992 0 01-10.783 8.858c-6.058 0-10.986-4.91-10.986-10.949 0-2.821 1.077-5.396 2.842-7.34z" fill="#000"></path>
  </symbol>
</svg>