<svg width="45" height="45" viewBox="0 0 45 45" fill="none" xmlns="http://www.w3.org/2000/svg">
<path d="M8.8853 12.8811V6.45138C8.8853 5.90681 8.44383 5.46533 7.89925 5.46533H4.61364C4.06907 5.46533 3.62759 5.90681 3.62759 6.45138V12.8811" fill="#E5E9EA"/>
<path d="M6.01532 12.8811V5.46533H4.61364C4.06907 5.46533 3.62759 5.90681 3.62759 6.45138V12.8811" fill="#D1D1D1"/>
<path d="M45 14.0529V38.1095C45 39.7589 43.6628 41.096 42.0135 41.096H2.98652C1.33717 41.096 0 39.7589 0 38.1095V14.0529C0 12.4035 1.33717 11.0663 2.98652 11.0663H8.89189C10.1638 11.0663 11.2971 10.2609 11.7141 9.05884L12.8042 5.91253C13.2211 4.71036 14.3534 3.90405 15.6263 3.90405H33.0475C34.3194 3.90405 35.4517 4.71036 35.8687 5.91253L36.9597 9.05884C37.3766 10.261 38.5089 11.0663 39.7809 11.0663H42.0134C43.6628 11.0663 45 12.4035 45 14.0529Z" fill="#FFD300"/>
<path d="M5.32837 41.0961H2.98652C1.33717 41.0961 0 39.7589 0 38.1096V14.0529C0 12.4036 1.33717 11.0664 2.98652 11.0664H5.14283V11.0719C3.57979 11.1684 2.34185 12.4661 2.34185 14.0529V38.1096C2.34185 39.759 3.67901 41.0961 5.32837 41.0961Z" fill="#E29A4B"/>
<path d="M17.9681 3.90405C16.6953 3.90405 15.5629 4.71036 15.1459 5.91253L14.0558 9.05884C13.6389 10.261 12.5056 11.0663 11.2336 11.0663H9.22974V11.0471C10.3612 10.9185 11.3346 10.1535 11.7139 9.05884L12.804 5.91253C13.2209 4.71036 14.3532 3.90405 15.6262 3.90405C15.6263 3.90405 17.9681 3.90405 17.9681 3.90405Z" fill="#E29A4B"/>
<path d="M45 19.1938V38.1095C45 39.7588 43.6628 41.096 42.0135 41.096H2.98652C1.33717 41.096 0 39.7588 0 38.1095V19.1938H45Z" fill="#586475"/>
<path d="M5.32837 41.0959H2.98652C1.33717 41.0959 0 39.7588 0 38.1094V19.1938H2.34185V38.1095C2.34185 39.7589 3.67901 41.0959 5.32837 41.0959Z" fill="#333333"/>
<path d="M22.5 38.2951C29.3721 38.2951 34.9429 32.7242 34.9429 25.8521C34.9429 18.9801 29.3721 13.4092 22.5 13.4092C15.628 13.4092 10.0571 18.9801 10.0571 25.8521C10.0571 32.7242 15.628 38.2951 22.5 38.2951Z" fill="#E5E9EA"/>
<path d="M31.2979 25.852C31.2979 28.4427 30.1785 30.7717 28.3959 32.3825C26.8356 33.7922 24.7692 34.6508 22.5 34.6508C20.2316 34.6508 18.1643 33.7921 16.6041 32.3824C14.8216 30.7725 13.7012 28.4426 13.7012 25.8519C13.7012 23.2611 14.8216 20.9312 16.6041 19.3223C18.1644 17.9117 20.2316 17.054 22.5 17.054C24.7692 17.054 26.8356 17.9126 28.3959 19.3223C30.1785 20.9323 31.2979 23.2612 31.2979 25.852Z" fill="#566368"/>
<path d="M28.7206 19.6306C30.5525 21.4625 31.4078 23.901 31.2863 26.3005C28.8868 26.4219 26.4484 25.5667 24.6165 23.7348C22.7846 21.9029 21.9293 19.4644 22.0514 17.0656C24.4502 16.9436 26.8887 17.7988 28.7206 19.6306Z" fill="#6F7B7F"/>
<path d="M20.3825 27.9689C22.2144 29.8008 23.0697 32.2392 22.9482 34.6387C20.5493 34.7608 18.1096 33.9056 16.2778 32.0736C14.4459 30.2417 13.5906 27.802 13.7133 25.4038C16.1122 25.2816 18.5506 26.1369 20.3825 27.9689Z" fill="#6F7B7F"/>
<path d="M22.4997 35.3392C17.2686 35.3392 13.0126 31.0832 13.0126 25.8521C13.0126 20.6209 17.2686 16.365 22.4997 16.365C27.7309 16.365 31.9868 20.6208 31.9868 25.8521C31.9868 31.0833 27.7309 35.3392 22.4997 35.3392ZM22.4997 17.7425C18.0281 17.7425 14.3901 21.3805 14.3901 25.8521C14.3901 30.3237 18.0281 33.9617 22.4997 33.9617C26.9713 33.9617 30.6093 30.3237 30.6093 25.8521C30.6093 21.3805 26.9713 17.7425 22.4997 17.7425Z" fill="#435054"/>
<path d="M22.4997 22.3201C20.5522 22.3201 18.9678 23.9045 18.9678 25.852C18.9678 27.7996 20.5522 29.3839 22.4997 29.3839C24.4472 29.3839 26.0316 27.7995 26.0316 25.852C26.0316 23.9046 24.4472 22.3201 22.4997 22.3201Z" fill="#435054"/>
<path d="M26.9698 10.3779H32.3824C33.094 10.3779 33.6709 9.80104 33.6709 9.08939V7.67153C33.6709 6.95997 33.0941 6.38306 32.3824 6.38306H26.9698C26.2583 6.38306 25.6814 6.95988 25.6814 7.67153V9.08939C25.6814 9.80095 26.2583 10.3779 26.9698 10.3779Z" fill="#E5E9EA"/>
<path d="M32.3824 11.0666H26.9699C25.8796 11.0666 24.9926 10.1796 24.9926 9.08929V7.67161C24.9926 6.58133 25.8796 5.69434 26.9699 5.69434H32.3824C33.4727 5.69434 34.3597 6.58133 34.3597 7.67161V9.08937C34.3596 10.1797 33.4726 11.0666 32.3824 11.0666ZM26.9699 7.07185C26.6391 7.07185 26.3702 7.34088 26.3702 7.67152V9.08929C26.3702 9.42002 26.6391 9.68896 26.9699 9.68896H32.3824C32.7132 9.68896 32.9821 9.41993 32.9821 9.08929V7.67161C32.9821 7.34088 32.7131 7.07193 32.3824 7.07193C32.3824 7.07185 26.9699 7.07185 26.9699 7.07185Z" fill="#E29A4B"/>
<path d="M8.55458 38.5467C9.93012 38.5467 11.0452 37.4316 11.0452 36.0561C11.0452 34.6805 9.93012 33.5654 8.55458 33.5654C7.17903 33.5654 6.06393 34.6805 6.06393 36.0561C6.06393 37.4316 7.17903 38.5467 8.55458 38.5467Z" fill="#566368"/>
</svg>
