<svg width="45" height="45" viewBox="0 0 45 45" fill="none" xmlns="http://www.w3.org/2000/svg">
<path d="M45 39.7266H12.832V0H45V39.7266Z" fill="#FFE477"/>
<path d="M45 39.7266H28.916V0H45V39.7266Z" fill="#FFD011"/>
<path d="M0 6.5918V45H31.9043V14.502L23.9941 6.5918H0Z" fill="#F3EEE9"/>
<path d="M15.9521 6.5918V45H31.9043V14.502L23.9941 6.5918H15.9521Z" fill="#E9DFDA"/>
<path d="M23.9941 6.5918L31.9043 14.502H23.9941V6.5918Z" fill="#26BEFC"/>
<path d="M5.27344 21.1816H27.8613V23.8184H5.27344V21.1816Z" fill="#0042A2"/>
<path d="M5.27344 26.543H27.8613V29.1797H5.27344V26.543Z" fill="#0042A2"/>
<path d="M5.27344 31.8164H27.7734V34.4531H5.27344V31.8164Z" fill="#0042A2"/>
<path d="M15.9521 21.1816H27.8613V23.8184H15.9521V21.1816Z" fill="#002859"/>
<path d="M15.9521 26.543H27.8613V29.1797H15.9521V26.543Z" fill="#002859"/>
<path d="M15.9521 31.8164H27.7734V34.4531H15.9521V31.8164Z" fill="#002859"/>
</svg>
