<svg width="45" height="45" viewBox="0 0 45 45" fill="none" xmlns="http://www.w3.org/2000/svg">
<g clip-path="url(#clip0)">
<path d="M27.8231 37.9688H7.80187C5.16187 37.9688 3.01312 35.8219 3.01312 33.18V6.195C3.01312 3.555 5.16 1.40625 7.80187 1.40625H27.825C30.465 1.40625 32.6137 3.55312 32.6137 6.195V33.1819C32.6119 35.8219 30.465 37.9688 27.8231 37.9688Z" fill="#6A727C"/>
<path d="M36.8906 43.125H17.4844C14.925 43.125 12.8438 41.0438 12.8438 38.4844V14.0156C12.8438 11.4562 14.925 9.375 17.4844 9.375H36.8906C39.45 9.375 41.5312 11.4562 41.5312 14.0156V38.4844C41.5312 41.0438 39.45 43.125 36.8906 43.125Z" fill="#FFD300"/>
<path d="M34.2188 31.875H20.1562C19.38 31.875 18.75 31.245 18.75 30.4688C18.75 29.6925 19.38 29.0625 20.1562 29.0625H34.2188C34.995 29.0625 35.625 29.6925 35.625 30.4688C35.625 31.245 34.995 31.875 34.2188 31.875Z" fill="black"/>
<path d="M34.2188 39.375H20.1562C19.38 39.375 18.75 38.745 18.75 37.9688C18.75 37.1925 19.38 36.5625 20.1562 36.5625H34.2188C34.995 36.5625 35.625 37.1925 35.625 37.9688C35.625 38.745 34.995 39.375 34.2188 39.375Z" fill="black"/>
<path d="M34.2188 25.3125H20.1562C19.38 25.3125 18.75 24.6825 18.75 23.9062C18.75 23.13 19.38 22.5 20.1562 22.5H34.2188C34.995 22.5 35.625 23.13 35.625 23.9062C35.625 24.6825 34.995 25.3125 34.2188 25.3125Z" fill="black"/>
<path d="M34.2188 17.8125H20.1562C19.38 17.8125 18.75 17.1825 18.75 16.4062C18.75 15.63 19.38 15 20.1562 15H34.2188C34.995 15 35.625 15.63 35.625 16.4062C35.625 17.1825 34.995 17.8125 34.2188 17.8125Z" fill="black"/>
<path d="M7.03125 39.375C4.18688 39.375 1.875 37.0631 1.875 34.2188V5.15625C1.875 2.31188 4.18688 0 7.03125 0H28.5938C30.4313 0 32.1375 0.99 33.0431 2.5875C33.4275 3.2625 33.1894 4.12125 32.5144 4.50375C31.8394 4.88438 30.9788 4.64812 30.5981 3.975C30.1856 3.24562 29.4356 2.8125 28.5956 2.8125H7.03125C5.73938 2.8125 4.6875 3.86437 4.6875 5.15625V34.2188C4.6875 35.5106 5.73938 36.5625 7.03125 36.5625C7.8075 36.5625 8.4375 37.1925 8.4375 37.9688C8.4375 38.745 7.8075 39.375 7.03125 39.375Z" fill="black"/>
<path d="M37.9688 45H16.4062C13.5619 45 11.25 42.6881 11.25 39.8438V12.6563C11.25 9.81188 13.5619 7.5 16.4062 7.5H37.9688C40.8131 7.5 43.125 9.81188 43.125 12.6563V39.8438C43.125 42.6881 40.8131 45 37.9688 45ZM16.4062 10.3125C15.1144 10.3125 14.0625 11.3644 14.0625 12.6563V39.8438C14.0625 41.1356 15.1144 42.1875 16.4062 42.1875H37.9688C39.2606 42.1875 40.3125 41.1356 40.3125 39.8438V12.6563C40.3125 11.3644 39.2606 10.3125 37.9688 10.3125H16.4062Z" fill="black"/>
</g>
<defs>
<clipPath id="clip0">
<rect width="45" height="45" fill="white"/>
</clipPath>
</defs>
</svg>
