<svg width="0" height="0" class="hidden">
  <symbol xmlns="http://www.w3.org/2000/svg" viewBox="0 0 512 512" id="gmail">
    <g fill="#f2f2f2">
      <path d="M484.973 122.808l-32.685 328.209H59.712L33.379 129.16 256 253.802z"></path>
      <path d="M473.886 60.983L256 265.659 38.114 60.983H256z"></path>
    </g>
    <path d="M59.712 155.493v295.524H24.139C10.812 451.017 0 440.206 0 426.878V111.967l39 1.063 20.712 42.463z" fill="#f14336"></path>
    <path d="M512 111.967v314.912c0 13.327-10.812 24.139-24.152 24.139h-35.56V155.493l19.692-46.525 40.02 2.999z" fill="#d32e2a"></path>
    <path d="M512 85.122v26.845l-59.712 43.526L256 298.561 59.712 155.493 0 111.967V85.122c0-13.327 10.812-24.139 24.139-24.139h13.975L256 219.792 473.886 60.983h13.962c13.34 0 24.152 10.811 24.152 24.139z" fill="#f14336"></path>
    <path fill="#d32e2a" d="M59.712 155.493L0 146.235v-34.268z"></path>
  </symbol>
  <symbol xmlns="http://www.w3.org/2000/svg" viewBox="0 0 511.996 511.996" id="phone_1">
    <path d="M502.722 130.444C364.32-.825 147.367-.74 9.068 130.636a30.958 30.958 0 00-9.067 22.059 30.165 30.165 0 009.067 21.867l50.667 50.709c12.236 11.386 31.127 11.589 43.605.469a224.614 224.614 0 0151.819-36.053 32.363 32.363 0 0015.509-29.739V103.82a337.44 337.44 0 0185.333-7.872 330.007 330.007 0 0185.333 7.915v56.085a31.66 31.66 0 0015.189 29.867 219.897 219.897 0 0152.032 36.032 31.806 31.806 0 0021.632 8.533 30.958 30.958 0 0022.059-9.067l50.688-50.688c12.164-12.308 12.068-32.14-.213-44.331l.001.15z" fill="#d19c15"></path>
    <path d="M456.94 335.222a11.616 11.616 0 00-1.685-2.453L338.519 205.964a10.669 10.669 0 00-7.851-3.349H181.335a10.667 10.667 0 00-7.851 3.435L56.748 332.748a11.604 11.604 0 00-1.685 2.453 117.896 117.896 0 00-12.395 52.501v81.579c0 5.891 4.776 10.667 10.667 10.667h405.333c5.891 0 10.667-4.776 10.667-10.667v-81.493a117.882 117.882 0 00-12.395-52.566z" fill="#f7ba02"></path>
    <path d="M206.188 330.614h-24.853c-5.891 0-10.667 4.776-10.667 10.667s4.776 10.667 10.667 10.667h24.853c5.891 0 10.667-4.776 10.667-10.667s-4.776-10.667-10.667-10.667zm62.848 0h-26.603c-5.891 0-10.667 4.776-10.667 10.667s4.776 10.667 10.667 10.667h26.603c5.891 0 10.667-4.776 10.667-10.667s-4.776-10.667-10.667-10.667zm61.632 0h-24.363c-5.891 0-10.667 4.776-10.667 10.667s4.776 10.667 10.667 10.667h24.363c5.891 0 10.667-4.776 10.667-10.667s-4.776-10.667-10.667-10.667zm-117.333-42.666h-21.333c-5.891 0-10.667 4.776-10.667 10.667s4.776 10.667 10.667 10.667h21.333c5.891 0 10.667-4.776 10.667-10.667s-4.776-10.667-10.667-10.667zm32 21.333h21.333c5.891 0 10.667-4.776 10.667-10.667s-4.776-10.667-10.667-10.667h-21.333c-5.891 0-10.667 4.776-10.667 10.667s4.776 10.667 10.667 10.667zm74.667 0c5.891 0 10.667-4.776 10.667-10.667s-4.776-10.667-10.667-10.667h-21.333c-5.891 0-10.667 4.776-10.667 10.667s4.776 10.667 10.667 10.667h21.333zm-106.667-64h-10.667c-5.891 0-10.667 4.776-10.667 10.667s4.776 10.667 10.667 10.667h10.667c5.891 0 10.667-4.776 10.667-10.667s-4.776-10.667-10.667-10.667zm37.333 21.333h10.667c5.891 0 10.667-4.776 10.667-10.667s-4.776-10.667-10.667-10.667h-10.667c-5.891 0-10.667 4.776-10.667 10.667s4.776 10.667 10.667 10.667zm48 0h10.667c5.891 0 10.667-4.776 10.667-10.667s-4.776-10.667-10.667-10.667h-10.667c-5.891 0-10.667 4.776-10.667 10.667s4.776 10.667 10.667 10.667z" fill="#fafafa"></path>
    <path d="M202.668 223.948c-5.891 0-10.667-4.776-10.667-10.667v-42.667c0-5.891 4.776-10.667 10.667-10.667s10.667 4.776 10.667 10.667v42.667c0 5.891-4.776 10.667-10.667 10.667zm106.667 0c-5.891 0-10.667-4.776-10.667-10.667v-42.667c0-5.891 4.776-10.667 10.667-10.667s10.667 4.776 10.667 10.667v42.667c0 5.891-4.776 10.667-10.667 10.667z" fill="#455a64"></path>
  </symbol>
  <symbol xmlns="http://www.w3.org/2000/svg" viewBox="0 0 512 512" id="phone_2">
    <path d="M495.368 99.538c-25.195-30.309-147.125-55.941-239.367-55.941S41.829 69.228 16.634 99.537C-2.188 122.181.086 176.739.086 176.739s29.069 3.484 59.463 3.484 59.463-3.484 59.463-3.484v-47.431h273.977v47.431s29.069 3.484 59.463 3.484c30.393 0 59.463-3.484 59.463-3.484s2.275-54.557-16.547-77.201zm-24.76 289.525v70.804H41.393v-70.804l214.608-34.133z" fill="#c20c3f"></path>
    <path d="M433.847 217.918l36.762 171.145H41.393l36.762-171.145 78.837-15.383v-93.787c0-3.277 2.651-5.939 5.928-5.939h22.426c3.277 0 5.928 2.662 5.928 5.939v48.276H320.73v-48.276c0-3.277 2.651-5.939 5.928-5.939h22.426c3.277 0 5.928 2.662 5.928 5.939v93.787l78.835 15.383z" fill="#ff385c"></path>
    <path d="M470.12 468.402H41.881a8.533 8.533 0 010-17.066h428.24a8.533 8.533 0 11-.001 17.066z" fill="#750c20"></path>
    <path d="M210.347 328.226h-12.231a8.533 8.533 0 010-17.066h12.231c4.714 0 8.533 3.821 8.533 8.533s-3.819 8.533-8.533 8.533zm103.538 0h-12.231a8.533 8.533 0 010-17.066h12.231c4.714 0 8.533 3.821 8.533 8.533s-3.819 8.533-8.533 8.533zm-50.535 0h-12.232a8.533 8.533 0 010-17.066h12.232c4.714 0 8.533 3.821 8.533 8.533s-3.819 8.533-8.533 8.533zm-53.003-46.649h-12.231a8.533 8.533 0 010-17.066h12.231c4.714 0 8.533 3.821 8.533 8.533s-3.819 8.533-8.533 8.533zm103.538 0h-12.231a8.533 8.533 0 010-17.066h12.231c4.714 0 8.533 3.821 8.533 8.533s-3.819 8.533-8.533 8.533zm-50.535 0h-12.232a8.533 8.533 0 010-17.066h12.232c4.714 0 8.533 3.821 8.533 8.533s-3.819 8.533-8.533 8.533zm-53.003-46.649h-12.231a8.533 8.533 0 010-17.066h12.231c4.714 0 8.533 3.821 8.533 8.533s-3.819 8.533-8.533 8.533zm103.538 0h-12.231a8.533 8.533 0 010-17.066h12.231c4.714 0 8.533 3.821 8.533 8.533s-3.819 8.533-8.533 8.533zm-50.535 0h-12.232a8.533 8.533 0 010-17.066h12.232c4.714 0 8.533 3.821 8.533 8.533s-3.819 8.533-8.533 8.533z" fill="#fff"></path>
  </symbol>
</svg>