<svg width="0" height="0" class="hidden">
  <symbol fill="none" xmlns="http://www.w3.org/2000/svg" viewBox="0 0 117 100" id="pic 1">
    <path d="M109.091 1.818H7.273c-3.091 0-5.455 2.364-5.455 5.455v67.636c0 3.091 2.364 5.455 5.455 5.455H109.09c3.091 0 5.454-2.364 5.454-5.455V7.273c0-2.91-2.363-5.455-5.454-5.455z" fill="#E1E6E9"></path>
    <path d="M109.091 82.182H7.273c-4 0-7.273-3.273-7.273-7.273V7.273C0 3.273 3.273 0 7.273 0H109.09c4 0 7.272 3.273 7.272 7.273v67.636c.001 4-3.272 7.273-7.272 7.273zM7.273 3.636c-2 0-3.637 1.637-3.637 3.637v67.636c0 2 1.637 3.636 3.637 3.636H109.09c2 0 3.636-1.636 3.636-3.636V7.273c0-2-1.636-3.637-3.636-3.637H7.273z" fill="#193651"></path>
    <path d="M107.273 9.09H9.091v55.092h98.182V9.09z" fill="#fff"></path>
    <path d="M70.182 80.364h-24l-6.728 17.818H76.91l-6.727-17.818z" fill="#CFD0D1"></path>
    <path d="M76.909 100H39.454c-.545 0-1.09-.364-1.454-.727-.364-.546-.364-1.091-.182-1.637l6.545-17.818c.182-.727.91-1.272 1.637-1.272h24.182c.727 0 1.454.545 1.636 1.272l6.546 17.455c.181.364.181.545.181.909.182.909-.727 1.818-1.636 1.818zm-34.727-3.636h32.182L69.09 82.182H47.455l-5.273 14.182z" fill="#193651"></path>
    <path d="M81.09 100H35.274c-1.091 0-1.819-.727-1.819-1.818 0-1.091.728-1.819 1.819-1.819H80.91c1.091 0 1.818.728 1.818 1.819C82.91 99.09 82 100 81.091 100z" fill="#193651"></path>
    <path d="M91.818 45.454c-2.182 2.546-5.272 4-8.727 4-3.454 0-6.545-1.636-8.727-4-4.364 3.091-8.182 8-8.182 13.819H100c0-5.819-3.636-10.728-8.182-13.819z" fill="#2EA2DB"></path>
    <path d="M83.09 45.818c4.72 0 8.546-4.233 8.546-9.454 0-5.222-3.826-9.455-8.545-9.455-4.72 0-8.546 4.233-8.546 9.455 0 5.221 3.826 9.454 8.546 9.454z" fill="#FDBF5E"></path>
    <path d="M47.455 59.636L37.09 42.727l-10.546 16.91-2.181-1.273L37.09 37.636l12.727 20.727-2.363 1.273z" fill="#193651"></path>
    <path d="M56.727 13.636H17.273c-2 0-3.637 1.637-3.637 3.637v25.454c0 2 1.637 3.637 3.637 3.637h39.454c2 0 3.637-1.637 3.637-3.637V17.273c0-2-1.637-3.637-3.637-3.637z" fill="#F16051"></path>
    <path d="M23.455 33.091l-1.091 2.364h-1.819l4.728-10.546h1.818l4.727 10.546H30l-1.091-2.364h-5.454zM28 31.455l-2-4.364-2 4.364h4zm11.09-4.001c1.092 0 2 .364 2.728 1.091.727.728 1.091 1.819 1.091 2.91 0 1.272-.364 2.181-1.09 3.09-.728.728-1.637 1.091-2.728 1.091-1.091 0-2-.363-2.727-1.272v1.273h-1.637V24.363h1.637v4.545c.727-1.09 1.636-1.454 2.727-1.454zm-2.726 4.182c0 .728.182 1.455.727 1.819.545.545 1.091.727 1.636.727.728 0 1.273-.182 1.819-.727.545-.546.727-1.091.727-1.819 0-.727-.182-1.454-.727-2-.546-.545-1.091-.727-1.819-.727-.727 0-1.272.182-1.636.728-.546.545-.727 1.09-.727 2zm13.818 4c-1.091 0-2-.363-2.91-1.09-.727-.728-1.272-1.819-1.272-2.91 0-1.272.364-2.181 1.273-3.09.909-.728 1.818-1.091 3.09-1.091 1.273 0 2.182.363 3.092 1.272L52.545 30c-.727-.546-1.454-.91-2.181-.91-.728 0-1.273.183-1.819.728-.545.545-.727 1.09-.727 1.818 0 .727.182 1.455.727 1.819.546.545 1.091.727 1.819.727.727 0 1.454-.364 2.181-1.091l.91 1.09c-.728 1.092-2 1.456-3.273 1.456z" fill="#fff"></path>
    <path d="M44.727 74a2.182 2.182 0 100-4.364 2.182 2.182 0 000 4.364zm13.455.909a3.09 3.09 0 100-6.182 3.09 3.09 0 000 6.182zM71.636 74a2.182 2.182 0 100-4.364 2.182 2.182 0 000 4.364z" fill="#CFD0D1"></path>
    <path d="M75.09 17.637h-3.635v3.636h3.636v-3.636zm9.82 0h-3.637v3.636h3.636v-3.636zm9.817 0h-3.636v3.636h3.636v-3.636z" fill="#193651"></path>
  </symbol>
  <symbol fill="none" xmlns="http://www.w3.org/2000/svg" viewBox="0 0 110 100" id="pic 2">
    <path d="M103.774 0H5.66A5.66 5.66 0 000 5.66v67.925a5.66 5.66 0 005.66 5.66h98.114a5.66 5.66 0 005.66-5.66V5.66a5.66 5.66 0 00-5.66-5.66z" fill="#04957C"></path>
    <path d="M54.497 14.449a5.66 5.66 0 00-5.66 5.66v3.774a5.645 5.645 0 001.886 4.218v7.071h7.547v-7.071a5.645 5.645 0 001.887-4.218v-3.774a5.66 5.66 0 00-5.66-5.66z" fill="#FDC9A6"></path>
    <path d="M48.837 20.078l-.031 3.066 3.401-3.066h7.95l2.47-2.47A5.203 5.203 0 0056.061 9.6l-1.565 1.044h-3.868a4.324 4.324 0 00-3.598 6.723l1.807 2.711z" fill="#683B0D"></path>
    <path d="M79.245 37.736l-3.773 11.32-6.14-9.209a8.02 8.02 0 00-3.773-3.028l-7.288-2.826-7.328-.03-9.815 2.804a8.017 8.017 0 00-4.97 4.124l-5.222 10.445a7.076 7.076 0 00-.747 3.165v.353a7.076 7.076 0 005.36 6.864l9.734 2.433v5.66h18.868V50.943l5.199 5.199a8.019 8.019 0 005.67 2.349h.495a8.02 8.02 0 007.536-5.279l5.628-15.476h-9.434zM45.283 56.604l-5.66-1.887 5.66-9.434v11.32z" fill="#2CBFF4"></path>
    <path d="M81.132 20.755v3.773a3.774 3.774 0 007.547 0v-3.773h-7.547z" fill="#CBCBCB"></path>
    <path d="M45.283 60.377V45.283l9.434 1.887 9.434-1.887v15.094l-9.434 1.887-9.434-1.887z" fill="#D32B39"></path>
    <path d="M81.132 37.736l-1.887-5.66 3.774-3.774h3.773l1.887 3.773-1.886 5.66h-5.66z" fill="#FDC9A6"></path>
    <path d="M81.132 20.755l-2.213-3.32a6.361 6.361 0 015.292-9.888h1.39a6.36 6.36 0 015.291 9.889l-2.213 3.319h-7.547z" fill="#FBB540"></path>
    <path d="M31.604 92.453H77.83a3.302 3.302 0 013.302 3.302V100h-52.83v-4.245a3.302 3.302 0 013.302-3.302z" fill="#CBCBCB"></path>
    <path d="M71.698 79.245h-9.434a7.547 7.547 0 01-15.094 0h-9.434l-5.66 13.208h45.283l-5.66-13.208z" fill="#A8A8A8"></path>
    <path d="M109.434 69.811H0v3.774a5.66 5.66 0 005.66 5.66h98.114a5.659 5.659 0 005.66-5.66V69.81z" fill="#CBCBCB"></path>
    <path d="M45.283 56.604h7.547v7.547h-7.547v-7.547z" fill="#FDC9A6"></path>
    <path d="M48.18 83.019H36.117l1.618-3.774h9.434a7.52 7.52 0 001.01 3.774zm25.136 0H61.255a7.52 7.52 0 001.01-3.774h9.433l1.618 3.774z" fill="#656666"></path>
  </symbol>
  <symbol fill="none" xmlns="http://www.w3.org/2000/svg" viewBox="0 0 100 100" id="pic 3">
    <path d="M79.71 98.117H20.29l-1.883-1.883V83.176c0-7.154 3.083-13.587 7.992-18.044h47.202c4.909 4.457 7.992 10.89 7.992 18.044v13.058l-1.883 1.883z" fill="#86DCFF"></path>
    <path d="M19.453 100h9.965l1.465-1.758L32.348 100h35.304l1.465-1.758L70.582 100h9.965c.577 0 1.046-.468 1.046-1.046v-2.72H18.407v2.72c0 .578.469 1.046 1.046 1.046z" fill="#56CAED"></path>
    <path d="M50 79.406l15.75-17.33-.104-1.77a24.3 24.3 0 00-8.417-1.494H42.77c-2.931 0-5.74.518-8.344 1.467l.082 2.082L50 79.406z" fill="#E4EEF9"></path>
    <path d="M34.354 60.307a24.36 24.36 0 00-2.457 1.062l.648 2.784L50 83.171l17.633-19.213.47-2.589a24.226 24.226 0 00-2.457-1.062L50.774 76.671a1.046 1.046 0 01-1.548 0L34.354 60.307z" fill="#D5E0F2"></path>
    <path d="M50 79.406l4.431-4.876.388-2.31-1.154-6.326L50 64.011l-3.665 1.883-1.154 6.326.388 2.31L50 79.406z" fill="#FF5876"></path>
    <path d="M53.665 65.894h-7.33l-1.6-7.082h10.53l-1.6 7.082zm1.727 9.462l-.573-3.136-4.045 4.451a1.046 1.046 0 01-1.548 0L45.18 72.22l-.573 3.136L50 85.054l5.392-9.698z" fill="#E6485D"></path>
    <path d="M31.897 61.37a24.403 24.403 0 00-3.534 2.158l.24 2.147 19.075 20.988a3.138 3.138 0 004.644 0l19.28-21.215.034-1.92a24.41 24.41 0 00-3.533-2.159l-17.38 19.124a.977.977 0 01-1.446 0L31.897 61.37z" fill="#FFCF4D"></path>
    <path d="M52.322 84.78a3.138 3.138 0 01-4.644 0L28.364 63.528a24.39 24.39 0 00-1.965 1.604l21.279 23.414a3.138 3.138 0 004.644 0l21.279-23.414a24.415 24.415 0 00-1.965-1.604L52.322 84.78z" fill="#FFB629"></path>
    <path d="M32.109 38.063l-1.883-5.068a6.596 6.596 0 00-6.979 4.598c-.193.62-.01 6.671 6.297 6.671l.732-1.924 1.833-4.277z" fill="#FFC4AD"></path>
    <path d="M29.544 42.382a6.595 6.595 0 01-6.32-4.711 6.594 6.594 0 007.664 8.339l1.504-1.746-2.114-1.924a6.586 6.586 0 01-.734.041z" fill="#FFB69F"></path>
    <path d="M67.891 38.063l1.883-5.068a6.596 6.596 0 016.979 4.598c.193.62.01 6.671-6.297 6.671l-.732-1.924-1.833-4.277z" fill="#FFC4AD"></path>
    <path d="M70.456 42.382a6.595 6.595 0 006.32-4.711 6.594 6.594 0 01-7.664 8.339l-1.504-1.746 2.114-1.924c.241.027.486.041.734.041z" fill="#FFB69F"></path>
    <path d="M30.226 12.693v26.345c0 10.92 8.853 19.774 19.774 19.774 10.92 0 19.774-8.853 19.774-19.774V12.693H30.226z" fill="#FFE0CC"></path>
    <path d="M50 56.929c-10.92 0-19.774-8.853-19.774-19.775v3.766c0 10.921 8.853 19.774 19.774 19.774 10.92 0 19.774-8.853 19.774-19.774v-3.766c0 10.922-8.853 19.775-19.774 19.775z" fill="#FFCEB3"></path>
    <path d="M68.863 26.689c-3.544-3.023-6.643-6.368-6.643-6.368-5.646 4.539-9.89 4.937-9.89 4.937l-4.15-4.05c-7.055 5.316-15.203 6.366-17.425 6.31a3.718 3.718 0 01-.995-.162c-5.177-1.585-7.132-4.723-7.132-4.723s-.605-1.375.35-1.559c4.998-.961 6.755-4.386 6.755-4.386-5.563.168-7.36-3.956-7.928-6.224a1.048 1.048 0 011.103-1.3C33.298 9.98 35.819 3.577 45.59.691c10.181-3.007 17.39 4.76 17.39 4.76s10.318-.997 11.204 9.522c.846 10.054-5.32 11.715-5.32 11.715z" fill="#2D4456"></path>
    <path d="M69.044 24.867c-2.494-1.764-4.783-5.029-5.97-6.898-.392-.617-1.27-.641-1.718-.064-4.275 5.521-13.175 3.304-13.175 3.304s2.186 2.676 2.18 5.82a1.046 1.046 0 001.278 1.03c2.512-.574 7.77-2.378 10.58-7.737 0 0 3.195 5.742 6.823 8.31.427.301 1.01.243 1.366-.138 1.359-1.45 4.373-5.588 3.79-13.293-.433 5.317-2.668 8.329-3.787 9.524-.357.382-.94.444-1.367.142zm-20.642-4.899c.142-.983-1.036-1.596-1.75-.906-6.347 6.132-13.843 6.625-15.897 6.574a3.718 3.718 0 01-.995-.163c-2.514-.769-4.944-2.659-6.783-4.4-.364.07-.745.127-1.145.169-.851.09-1.246 1.106-.67 1.74 1.81 1.994 5.127 5.194 8.598 6.257.323.099.658.154.995.162 2.222.055 10.811-.526 17.426-8.192.097-.47.169-.881.221-1.24z" fill="#253847"></path>
    <path d="M32.348 85.543v10.691l-1.465 1.883-1.465-1.883V85.543a1.464 1.464 0 112.93 0z" fill="#4EA1F4"></path>
    <path d="M29.418 96.234h2.93V100h-2.93v-3.766z" fill="#3292E0"></path>
    <path d="M70.582 85.543v10.691l-1.465 1.883-1.465-1.883V85.543a1.464 1.464 0 112.93 0z" fill="#4EA1F4"></path>
    <path d="M67.652 96.234h2.93V100h-2.93v-3.766z" fill="#3292E0"></path>
    <path d="M50 51c5.578 0 7.264-3.92 7.338-4.098V46.9c.445-.999-.345-2.204-1.446-2.179-.654 0-1.214.4-1.45.969-.079.168-1.097 2.17-4.442 2.17-3.343 0-4.362-2.001-4.442-2.17a1.57 1.57 0 00-1.45-.969c-1.1-.025-1.89 1.18-1.446 2.179v.001C42.737 47.08 44.423 51 50 51z" fill="#FF5876"></path>
    <path d="M40.418 33.274c-.866 0-1.569.702-1.569 1.569v4.433a1.569 1.569 0 003.138 0v-4.433a1.57 1.57 0 00-1.569-1.57zm19.164 7.571a1.57 1.57 0 001.569-1.569v-4.433a1.57 1.57 0 00-3.138 0v4.433c0 .867.702 1.57 1.569 1.57z" fill="#2D4456"></path>
  </symbol>
  <symbol fill="none" xmlns="http://www.w3.org/2000/svg" viewBox="0 0 100 100" id="pic 4">
    <path d="M74.3 53.174l-.515 4.639-.347 3.124h-43.75l-.348-3.124-.516-4.64a24.041 24.041 0 011.797-12.122 24.064 24.064 0 001.914-10.67l-.271-5.406A19.32 19.32 0 0159.179 6.253a19.323 19.323 0 0111.682 18.722l-.271 5.406a24.064 24.064 0 001.914 10.67A24.03 24.03 0 0174.3 53.174z" fill="#8F4D2E"></path>
    <path d="M74.3 53.174l-.515 4.639H56.25V40.624l3.125-6.25v-12.5A17.205 17.205 0 0046.73 5.295a19.344 19.344 0 0124.131 19.68l-.271 5.406a24.065 24.065 0 001.914 10.67A24.03 24.03 0 0174.3 53.174z" fill="#82462A"></path>
    <path d="M60 54.688a2.185 2.185 0 01-2.188-2.188V42.187h-12.5V52.5a2.185 2.185 0 01-2.187 2.188h-2.5v9.374H62.5v-9.374H60z" fill="#FEC9A3"></path>
    <path d="M52.505 50a8.573 8.573 0 005.307-1.915v-5.898h-12.5v5.897A8.573 8.573 0 0050.62 50h1.885z" fill="#FEB784"></path>
    <path d="M65.625 25v7.813a14.063 14.063 0 01-28.125 0V25a21.197 21.197 0 007.207-8.164l.605-1.211.887.74a38.915 38.915 0 0013.176 7.207A38.972 38.972 0 0065.625 25z" fill="#FEC9A3"></path>
    <path d="M65.625 25v7.813a14.07 14.07 0 01-11.379 13.806 17.124 17.124 0 005.129-12.244V23.572A38.972 38.972 0 0065.625 25z" fill="#FEC093"></path>
    <path d="M44.531 31.25a2.344 2.344 0 110-4.689 2.344 2.344 0 010 4.689zm14.063 0a2.344 2.344 0 110-4.689 2.344 2.344 0 010 4.689z" fill="#7A432A"></path>
    <path d="M51.563 39.063a4.693 4.693 0 01-4.688-4.688H50a1.563 1.563 0 003.125 0h3.125a4.693 4.693 0 01-4.688 4.688z" fill="#F7A468"></path>
    <path d="M43.75 60.938h15.625v10.937H43.75V60.937z" fill="#E0E0DE"></path>
    <path d="M83.393 95.248a4.742 4.742 0 01-5.268-3.146L67.805 72.74a12.168 12.168 0 01-2.18 11.635v12.5H37.5v-12.5a12.187 12.187 0 01-2.156-11.78L24.855 92.103a4.741 4.741 0 01-9.002-2.977l11.473-28.557a9.372 9.372 0 018.7-5.88h6.161l9.376 17.187 9.374-17.188h6.14a9.382 9.382 0 018.71 5.913L87.13 89.125a4.744 4.744 0 01-3.736 6.123z" fill="#EC8C8C"></path>
    <path d="M14.498 89.65L15.625 75H25v15.054a5.258 5.258 0 11-10.502-.404z" fill="#F59898"></path>
    <path d="M19.301 52.207a3.04 3.04 0 00-1.981 4.308l1.43 2.86h-5.6a9.375 9.375 0 01-4.192-.99l-1.557-.778a1.875 1.875 0 00-2.713 1.677v4.41a3.125 3.125 0 001.727 2.795l2.543 1.271a9.374 9.374 0 004.193.99H25v-9.375l-2.14-5.349a3.04 3.04 0 00-3.559-1.819z" fill="#FEC9A3"></path>
    <path d="M15.625 68.75H25V75h-9.375v-6.25z" fill="#E0E0DE"></path>
    <path d="M83.393 95.248a4.742 4.742 0 01-5.268-3.146L67.805 72.74a12.168 12.168 0 01-2.18 11.635v12.5H38.014c12.896-8.422 23.777-19.11 32.91-41.36a9.36 9.36 0 014.863 5.085L87.13 89.125a4.744 4.744 0 01-3.736 6.123z" fill="#E07F7F"></path>
    <path d="M73.438 90.625L57.812 87.5V65.625l15.626 3.125v21.875z" fill="#A36548"></path>
    <path d="M79.688 90.625L95.311 87.5V65.625L79.689 68.75v21.875z" fill="#8F4D2E"></path>
    <path d="M73.438 68.75h6.25v21.875h-6.25V68.75z" fill="#95573A"></path>
    <path d="M76.563 68.75a5.534 5.534 0 00-4.624-5.458l-14.126-2.355v4.688l15.624 3.125h3.126a5.534 5.534 0 014.623-5.458l14.126-2.355v4.688L79.689 68.75h-3.126z" fill="#D4BD81"></path>
    <path d="M92.444 90.476l-6.25 1.042a1.562 1.562 0 01-1.819-1.541v-5.808a2.034 2.034 0 011.7-2.006l5.306-.885a2.033 2.033 0 012.369 2.006v5.65a1.562 1.562 0 01-1.306 1.542z" fill="#FEC9A3"></path>
  </symbol>
</svg>