<svg width="0" height="0" class="hidden"><symbol xmlns="http://www.w3.org/2000/svg" viewBox="0 0 512 512" id="facebook"><path d="M443.733 503.467H68.267c-18.773 0-34.133-15.36-34.133-34.133V42.667c0-18.773 15.36-34.133 34.133-34.133h375.467c18.773 0 34.133 15.36 34.133 34.133v426.667c0 18.773-15.36 34.133-34.134 34.133" fill="#ffe100"></path><path d="M469.333 8.533h-25.6c18.773 0 34.133 15.36 34.133 34.133v426.667c0 18.773-15.36 34.133-34.133 34.133h25.6c18.773 0 34.133-15.36 34.133-34.133V42.667c.001-18.774-15.359-34.134-34.133-34.134" fill="#ffa800"></path><path d="M34.133 469.333V42.667c0-18.773 15.36-34.133 34.133-34.133h-25.6c-18.773 0-34.133 15.36-34.133 34.133v426.667c0 18.773 15.36 34.133 34.133 34.133h25.6c-18.773 0-34.133-15.36-34.133-34.134" fill="#fff"></path><path d="M426.667 93.867V179.2h-76.8c-9.387 0-17.067 7.68-17.067 17.067v51.2h85.333V332.8H332.8v170.667h-85.333V332.8H179.2v-85.333h68.267v-51.2c0-53.76 40.96-98.133 93.867-102.4h85.333z" fill="#63d3fd"></path><path d="M341.333 512h-102.4V341.333h-68.267v-102.4h68.267v-42.667c0-57.173 44.373-105.813 101.547-110.933h94.72v102.4h-85.333c-5.12 0-8.533 3.413-8.533 8.533v42.667h85.333v102.4h-85.333V512zM256 494.933h68.267V324.267H409.6V256h-85.333v-59.733c0-14.507 11.093-25.6 25.6-25.6h68.267V102.4h-76.8C293.547 106.667 256 147.627 256 196.267V256h-68.267v68.267H256v170.666z"></path><path d="M469.333 512H42.667C18.773 512 0 493.227 0 469.333V42.667C0 18.773 18.773 0 42.667 0h426.667C493.227 0 512 18.773 512 42.667v298.667c0 5.12-3.413 8.533-8.533 8.533-5.12 0-8.533-3.413-8.533-8.533V42.667c0-14.507-11.093-25.6-25.6-25.6H42.667c-14.507 0-25.6 11.093-25.6 25.6v426.667c0 14.507 11.093 25.6 25.6 25.6h426.667c14.507 0 25.6-11.093 25.6-25.6V409.6c0-5.12 3.413-8.533 8.533-8.533 5.12 0 8.533 3.413 8.533 8.533v59.733C512 493.227 493.227 512 469.333 512z"></path><path d="M512 375.467c0-5.12-3.413-8.533-8.533-8.533-5.12 0-8.533 3.413-8.533 8.533 0 5.12 3.413 8.533 8.533 8.533 5.12 0 8.533-3.413 8.533-8.533"></path></symbol><symbol xmlns="http://www.w3.org/2000/svg" viewBox="0 0 511.147 511.147" id="youtube"><path d="M472.747 148.907S468.48 112.214 454.827 96c-17.067-21.333-35.84-21.333-44.373-22.187-62.293-5.12-155.307-5.973-155.307-5.973s-93.013.853-155.307 5.973C91.307 74.667 72.533 75.52 55.467 96c-13.653 16.213-17.92 52.907-17.92 52.907s-4.267 43.52-4.267 87.04v40.107c0 43.52 4.267 86.187 4.267 86.187s4.267 36.693 17.92 52.907c17.067 21.333 39.253 20.48 48.64 23.04 35.84 4.267 151.04 5.12 151.04 5.12s93.013 0 155.307-5.973c8.533-.853 27.307-1.707 44.373-22.187 13.653-16.213 17.92-52.907 17.92-52.907s4.267-43.52 4.267-86.187v-40.107c-.001-43.52-4.267-87.04-4.267-87.04" fill="#ffe100"></path><path d="M55.467 415.147c-13.653-16.213-17.92-52.907-17.92-52.907s-4.267-43.52-4.267-86.187v-40.107c0-43.52 4.267-86.187 4.267-86.187s4.267-37.547 17.92-53.76c17.067-21.333 35.84-21.333 44.373-22.187 62.293-5.12 155.307-5.973 155.307-5.973s-104.107.853-173.227 5.973C72.533 74.667 51.2 75.52 32.427 96 17.92 112.213 12.8 148.907 12.8 148.907s-5.12 43.52-5.12 87.04v40.107c0 43.52 5.12 86.187 5.12 86.187s5.12 36.693 19.627 52.907c18.773 21.333 43.52 20.48 54.613 23.04 39.253 4.267 168.107 5.12 168.107 5.12s-115.2-.853-151.04-5.12c-9.387-2.561-31.574-1.708-48.64-23.041" fill="#fff"></path><path d="M497.493 148.907s-5.12-36.693-19.627-52.907c-18.773-21.333-40.107-21.333-49.493-22.187-69.12-5.12-173.227-5.973-173.227-5.973s93.013.853 155.307 5.973c8.533.853 27.307 1.707 44.373 22.187 13.653 16.213 17.92 52.907 17.92 52.907s4.267 43.52 4.267 87.04v40.107c0 43.52-4.267 86.187-4.267 86.187s-4.267 36.693-17.92 52.907c-17.067 21.333-35.84 21.333-44.373 22.187-33.28 2.56-75.093 4.267-107.52 5.12 35.84-.853 86.187-1.707 125.44-5.12 9.387-.853 30.72-1.707 49.493-22.187 14.507-16.213 19.627-52.907 19.627-52.907s5.12-42.667 5.12-86.187v-40.107c0-43.52-5.12-87.04-5.12-87.04" fill="#ffa800"></path><path fill="#63d3fd" d="M195.413 169.387V354.56l162.134-90.453z"></path><path d="M255.147 451.84c-5.12 0-129.707-1.707-168.96-5.12-2.56-.853-4.267-.853-6.827-.853-13.653-1.707-34.987-4.267-52.907-24.747C10.24 403.2 5.12 365.653 5.12 363.947c0-.853-5.12-44.373-5.12-87.04V236.8c0-43.52 5.12-87.04 5.12-87.04 0-1.707 5.12-40.107 22.187-58.027C46.08 70.4 67.413 67.84 79.36 66.987h2.56c17.92-1.707 39.253-2.56 63.147-3.413 5.12 0 8.533 3.413 8.533 8.533s-3.413 8.533-8.533 8.533c-23.893.853-45.227 1.707-62.293 3.413h-2.56c-10.241-.853-26.454.854-41.814 17.92-11.093 11.947-16.213 39.253-17.92 48.64 0 0-5.12 42.667-5.12 85.333v40.107c0 41.813 5.12 84.48 5.12 85.333.853 9.387 6.827 36.693 17.067 47.787 13.653 15.36 30.72 17.92 42.667 18.773 2.56 0 5.12.853 7.68.853 38.4 4.267 166.4 5.973 167.253 5.973.853 0 104.107 0 172.373-5.12h2.56c9.387-.853 26.453-2.56 40.96-19.627 11.093-11.947 16.213-39.253 17.92-48.64 0 0 5.12-42.667 5.12-85.333v-40.107c0-41.813-5.12-84.48-5.12-85.333-.853-9.387-6.827-36.693-17.067-47.787-14.506-17.065-31.573-18.772-40.96-19.625h-3.413c-68.267-5.973-171.52-6.827-172.373-6.827H212.48c-5.12 0-8.533-3.413-8.533-8.533 0-5.12 3.413-8.533 8.533-8.533h42.667c1.707 0 104.96.853 174.08 5.973h3.413c11.093.853 32.427 3.413 52.053 24.747 16.213 17.92 21.333 55.467 21.333 57.173 0 .853 5.12 44.373 5.12 87.04v40.107c0 43.52-5.12 87.04-5.12 87.04 0 1.707-5.12 40.107-22.187 58.027-18.773 21.333-40.107 23.893-52.053 24.747h-2.56C360.107 451.84 256 451.84 255.147 451.84z"></path><path d="M186.88 67.84c0-5.12-3.413-8.533-8.533-8.533-5.12 0-8.533 3.413-8.533 8.533 0 5.12 3.413 8.533 8.533 8.533 5.12 0 8.533-3.413 8.533-8.533m8.533 295.253c-1.707 0-2.56 0-4.267-.853-2.56-1.707-4.267-4.267-4.267-7.68V169.387c0-3.413 1.707-5.973 4.267-7.68s5.973-1.707 8.533 0l162.133 94.72c2.56 1.707 4.267 4.267 4.267 7.68s-1.707 5.973-4.267 7.68L199.68 362.24c-1.707.853-2.56.853-4.267.853zm8.534-179.2v156.16l136.533-75.947-136.533-80.213z"></path></symbol></svg>