<svg width="0" height="0" class="hidden">
  <symbol xmlns="http://www.w3.org/2000/svg" viewBox="-15 0 511 512" id="dance">
    <path d="M407.54 206.563c-1.145 0-2.302-.118-3.466-.36-9.152-1.906-15.031-10.871-13.125-20.023l17.899-85.985-23.375-78.43C382.8 12.81 387.898 3.38 396.859.712c8.957-2.672 18.387 2.426 21.059 11.387l24.594 82.527c.804 2.691.922 5.535.351 8.285l-18.77 90.168c-1.66 7.988-8.702 13.484-16.554 13.484zm0 0" fill="#f7a78d"></path>
    <path d="M398.324 150.754l-7.375 35.426c-1.906 9.152 3.969 18.117 13.121 20.023 1.164.242 2.325.36 3.47.36 7.847 0 14.89-5.497 16.554-13.485l7.719-37.086zm0 0" fill="#ff7885"></path>
    <path d="M167.64 297.375l-31.265-72.707c-3.691-8.59.277-18.547 8.863-22.238 8.59-3.696 18.547.273 22.239 8.863l25.058 58.273 58.137-20.02c8.844-3.042 18.473 1.657 21.52 10.497 3.042 8.84-1.657 18.473-10.497 21.516l-72.992 25.132c-8.387 2.891-17.566-1.183-21.062-9.316zm0 0" fill="#f7a78d"></path>
    <path d="M153.277 263.977l30.739-14.223-16.54-38.461c-3.69-8.586-13.648-12.559-22.238-8.863-8.586 3.691-12.554 13.648-8.863 22.238zm0 0" fill="#4699f2"></path>
    <path d="M7.406 506.82c-8.484-7.53-9.258-20.515-1.726-29l77.004-86.757 7.226-65.66c1.238-11.278 11.383-19.419 22.664-18.173 11.278 1.243 19.414 11.391 18.172 22.668l-7.941 72.16a20.55 20.55 0 01-5.055 11.391l-81.344 91.645c-7.531 8.484-20.515 9.258-29 1.726zm0 0" fill="#414b82"></path>
    <path d="M142.035 511.996c-11.144 0-20.293-8.91-20.527-20.105l-1.692-80.098-87.09-50.453c-9.816-5.688-13.163-18.254-7.48-28.074 5.688-9.817 18.258-13.164 28.074-7.477l97.086 56.246a20.535 20.535 0 0110.239 17.344l1.937 91.644c.238 11.34-8.762 20.73-20.105 20.97-.145.003-.293.003-.442.003zm0 0" fill="#5f6e9b"></path>
    <path d="M23.832 336.05l103.879 21.423 49.008-128.52c4.82-12.64-1.516-26.797-14.156-31.621l-52-19.844c-12.645-4.824-26.805 1.512-31.63 14.157zm0 0" fill="#64afff"></path>
    <path d="M213.145 136.586c0 22.617-18.336 40.95-40.95 40.95-22.617 0-40.949-18.333-40.949-40.95 0-22.617 18.332-40.95 40.95-40.95 22.613 0 40.949 18.333 40.949 40.95zM71.059 319.191L22.602 254.54c-6.446-8.605-3.332-20.965 6.398-25.496l78.879-36.758c8.473-3.95 18.543-.281 22.492 8.195 3.95 8.473.281 18.543-8.191 22.493L62.2 250.922l35.948 47.965c5.606 7.48 4.086 18.09-3.394 23.695-7.496 5.621-18.102 4.074-23.695-3.39zm0 0" fill="#ffb69e"></path>
    <path d="M130.371 200.48c-3.945-8.476-14.016-12.144-22.492-8.195l-39.106 18.223 13.864 30.89 39.543-18.425c8.472-3.95 12.14-14.02 8.191-22.493zm0 0" fill="#4699f2"></path>
    <path d="M420.113 498.129l-30.734-89.422a20.81 20.81 0 01-.984-4.355l-10.86-95.473c-1.281-11.274 10.082-21.453 21.356-22.734 11.27-1.282 21.449 6.816 22.73 18.09l7.344 93.242 30.004 87.296c3.687 10.73-2.02 22.418-12.75 26.102-10.778 3.707-22.434-2.066-26.106-12.746zm0 0" fill="#f7a78d"></path>
    <path d="M471.918 319.691l-92.137 8.227-15.422-134.89c-2.265-13.34 5.45-25.778 17.23-27.778l37.173-6.59c11.781-2 23.168 7.195 25.433 20.535zm0 0" fill="#ff6473"></path>
    <path d="M250.48 269.457c-2.703-8.95 2.36-18.398 11.31-21.102l79.8-24.105 54.863-47.426c7.074-6.113 17.762-5.336 23.875 1.738 6.113 7.07 5.336 17.762-1.734 23.875l-57.59 49.782a16.924 16.924 0 01-6.176 3.398l-83.246 25.149c-8.95 2.703-18.394-2.36-21.102-11.309zm0 0" fill="#ffb69e"></path>
    <path d="M420.328 178.559c-6.113-7.07-16.8-7.848-23.875-1.735l-19.515 16.867 21.46 26.2 20.196-17.453c7.07-6.114 7.847-16.805 1.734-23.88zm0 0" fill="#ff7885"></path>
    <path d="M329.516 510.23c-10.371-4.597-15.055-16.734-10.457-27.105l40.628-91.645a20.49 20.49 0 014.254-6.199l73.954-73.945c8.02-8.024 21.027-8.024 29.05 0 8.02 8.023 8.02 21.027-.004 29.05l-71.246 71.243-39.078 88.148c-4.594 10.368-16.73 15.051-27.101 10.453zm89.363-399.273c-1.828-10.762-7.707-19.816-15.8-25.887a19.707 19.707 0 002.386-9.433c0-10.957-8.883-19.836-19.84-19.836-10.953 0-19.836 8.879-19.836 19.836 0 1.078.11 2.133.277 3.164-19.152 6.082-31.39 25.488-27.933 45.863 3.785 22.297 24.93 37.305 47.226 33.52 22.293-3.786 37.301-24.926 33.52-47.227zm0 0" fill="#ffb69e"></path>
    <path d="M418.879 110.957c-1.828-10.762-7.707-19.816-15.8-25.887a19.707 19.707 0 002.386-9.433c0-10.957-8.883-19.836-19.84-19.836s-19.836 8.879-19.836 19.836c0 1.078.11 2.133.277 3.164-13.43 4.265-23.453 15.086-27.054 28.195a40.72 40.72 0 0023.297 2.875 40.834 40.834 0 0012.605-4.344c7.137 16.368 24.422 26.59 42.762 24.211a40.82 40.82 0 001.203-18.781zm0 0" fill="#80391b"></path>
    <path d="M377.535 307.121l-13.113 50.774c-1.914 5.812 2.414 11.796 8.531 11.796H473.11c5.692 0 9.946-5.222 8.797-10.793l-15.176-65.496zm0 0" fill="#ff6473"></path>
  </symbol>
  <symbol xmlns="http://www.w3.org/2000/svg" viewBox="0 -41 512 512" id="english">
    <path d="M407 0H105C47.102 0 0 47.102 0 105v168.945c0 57.899 47.102 105 105 105h15.582l36.52 46.332a15.001 15.001 0 0023.563 0l36.519-46.332H407c57.898 0 105-47.101 105-105V105C512 47.102 464.898 0 407 0zm0 0" fill="#6787f5"></path>
    <path d="M407 0H256v378.945h151c57.898 0 105-47.101 105-105V105C512 47.102 464.898 0 407 0zm0 0" fill="#38478a"></path>
    <path d="M199.758 401.055l17.426-22.11zM512 123.254H385.879l93.883-93.883C460.875 11.195 435.222 0 407 0h-25.145l-59.613 59.613V0h-132.48v59.613L130.148 0H105C76.777 0 51.125 11.195 32.238 29.371l93.883 93.883H0v132.48h126.121l-90.36 90.356-3.503 3.504c18.887 18.168 44.531 29.351 72.742 29.351h15.582l4.234 5.371 63.336-63.34-1.027 57.97h135.113v-59.407l59.211 59.406H407c28.09 0 53.637-11.086 72.496-29.113l-3.531-3.547-90.25-90.55H512zm0 0" fill="#fff"></path>
    <path d="M512 123.254H385.879l93.883-93.883C460.875 11.195 435.222 0 407 0h-25.145l-59.613 59.613V0H256v378.945h66.238V319.54l59.211 59.406H407c28.09 0 53.637-11.086 72.496-29.113l-3.531-3.547-90.25-90.55H512zm0 0" fill="#c7d3ed"></path>
    <path d="M292.238 153.254V0h-72.476v153.254H0v72.48h219.762l-2.578 153.211h75.054v-153.21H512v-72.481zm0 0" fill="#ff337a"></path>
    <path d="M292.238 153.254V0H256v378.945h36.238v-153.21H512v-72.481zm0 0" fill="#d1005b"></path>
    <path d="M199.758 133.25v-21.21L88.945 1.226a104.169 104.169 0 00-31.996 10.43L178.547 133.25zm0 0" fill="#ff337a"></path>
    <path d="M455.05 11.656a104.169 104.169 0 00-31.995-10.43L312.242 112.04v21.211h21.211zm0 0" fill="#d1005b"></path>
    <path d="M56.977 367.305a104.307 104.307 0 0032.003 10.422l110.778-110.782v-21.21h-21.211zm0 0" fill="#ff337a"></path>
    <path d="M312.242 245.734v21.274L422.641 377.78a104.279 104.279 0 0032.074-10.316l-121.32-121.73zm0 0" fill="#d1005b"></path>
  </symbol>
  <symbol xmlns="http://www.w3.org/2000/svg" viewBox="0 0 512 512" id="paint">
    <path d="M512 256c0 9.676-.533 19.237-1.588 28.63C496.18 412.536 387.709 512 256 512c-38.985 0-75.933-8.714-109.014-24.315-32.81-15.464-61.816-37.689-85.201-64.899-.408-.47-.805-.93-1.202-1.4a255.617 255.617 0 01-31.932-47.606c0-.01-.01-.01-.01-.021a253.495 253.495 0 01-23.782-67.876 252.071 252.071 0 01-3.636-24.848v-.01a253.854 253.854 0 01-1.202-28.181c.104-8.997.679-17.889 1.703-26.645 7.356-63.54 37.992-119.986 83.153-160.59 26.425-23.782 57.825-42.13 92.453-53.29C202.115 4.315 228.551 0 256 0c26.258 0 51.597 3.95 75.452 11.295a253.96 253.96 0 0147.689 20.219 255.59 255.59 0 0139.34 26.655c26.645 21.901 48.776 49.079 64.815 79.935a255.124 255.124 0 0119.017 47.877 255.593 255.593 0 019.07 52.172c.408 5.893.617 11.849.617 17.847z" fill="#34abe0"></path>
    <path d="M510.412 284.63c-7.847 70.562-44.387 132.451-97.667 173.777l-.01.01a255.317 255.317 0 01-26.446 17.993 258.272 258.272 0 01-22.204 11.724 254.259 254.259 0 01-75.828 21.849h-.01A258.54 258.54 0 01256 512c-12.361 0-24.524-.878-36.415-2.581a249.303 249.303 0 01-19.686-3.594c-55.338-12.361-103.905-42.642-139.316-84.438a46.096 46.096 0 0110.491-10.762l80.823-59.685c12.079-8.923 18.463-22.685 18.463-36.634 0-9.383-2.894-18.86-8.892-26.99-14.921-20.208-43.405-24.492-63.613-9.571-37.867 27.972-88.451-11.828-70.217-55.223 8.537-20.323 19.905-39.852 34.158-58.034C147.802 54.742 306.48 35.516 416.225 121.522c53.383 41.837 85.347 100.874 94.187 163.108z" fill="#e8dbc4"></path>
    <path d="M321.369 142.148a45.317 45.317 0 01-9.164 27.376c-8.296 10.982-21.462 18.077-36.289 18.077-25.098 0-45.443-20.355-45.443-45.453 0-16.833 9.153-31.535 22.747-39.393 6.677-3.856 14.43-6.06 22.695-6.06 25.11 0 45.454 20.354 45.454 45.453z" fill="#ef4152"></path>
    <path d="M321.369 142.148a45.317 45.317 0 01-9.164 27.376c-6.677 3.856-14.43 6.06-22.706 6.06-25.098 0-45.443-20.355-45.443-45.453a45.317 45.317 0 019.164-27.376c6.677-3.856 14.43-6.06 22.695-6.06 25.11 0 45.454 20.354 45.454 45.453z" fill="#ff525d"></path>
    <circle cx="384.063" cy="211.111" r="45.451" fill="#edbb4c"></circle>
    <circle cx="429.516" cy="327.084" r="45.451" fill="#279fc9"></circle>
    <path d="M415.41 443.058c0 5.381-.94 10.553-2.664 15.35l-.01.01a255.317 255.317 0 01-26.446 17.993 258.272 258.272 0 01-22.204 11.724c-22.329-2.884-39.581-21.964-39.581-45.077 0-25.098 20.355-45.443 45.453-45.443 25.097 0 45.452 20.344 45.452 45.443z" fill="#41b787"></path>
    <path d="M290.022 497.392a45.51 45.51 0 01-1.766 12.591A258.673 258.673 0 01256 512c-19.268 0-38.045-2.132-56.101-6.175a45.773 45.773 0 01-.784-8.432c0-25.098 20.355-45.443 45.453-45.443s45.454 20.344 45.454 45.442z" fill="#f9eed7"></path>
    <path d="M429.512 211.107a45.317 45.317 0 01-9.164 27.376c-6.677 3.856-14.43 6.06-22.706 6.06-25.098 0-45.443-20.355-45.443-45.453a45.317 45.317 0 019.164-27.376c6.677-3.856 14.43-6.06 22.695-6.06 25.109 0 45.454 20.355 45.454 45.453z" fill="#ffd15c"></path>
    <path d="M474.961 327.084a45.317 45.317 0 01-9.164 27.376c-6.677 3.856-14.43 6.06-22.706 6.06-25.098 0-45.443-20.355-45.443-45.453a45.317 45.317 0 019.164-27.376c6.677-3.856 14.43-6.06 22.695-6.06 25.11 0 45.454 20.355 45.454 45.453z" fill="#34abe0"></path>
    <path d="M415.41 443.058a45.06 45.06 0 01-2.675 15.36 255.317 255.317 0 01-26.446 17.993c-.909.052-1.829.084-2.748.084-25.098 0-45.443-20.355-45.443-45.453a45.317 45.317 0 019.164-27.376c6.677-3.856 14.43-6.06 22.695-6.06 25.108-.001 45.453 20.353 45.453 45.452z" fill="#4bc999"></path>
    <path d="M290.022 497.392c0 4.368-.616 8.589-1.776 12.591A258.512 258.512 0 01256 512c-12.361 0-24.524-.878-36.415-2.581a45.242 45.242 0 01-6.875-24.043A45.317 45.317 0 01221.874 458c6.677-3.856 14.43-6.06 22.695-6.06 25.109-.001 45.453 20.354 45.453 45.452zM117.705 235.958c-14.111 8.386-30.637 11.223-45.687 8.715-62.393-10.4-55.412-101.768-25.094-135.19 4.845-5.369 8.475-12.205 11.085-19.852l.002-.014.42-1.265a84.167 84.167 0 001.304-4.485c1.322-4.927 2.301-10.132 2.98-15.458 1.117-8.677 1.483-17.678 1.383-26.395-.187-16.411 20.765-23.442 30.445-10.189 46.865 64.167 60.805 113.351 56.997 148.275l-.004.027c-2.946 27.093-16.588 45.601-33.831 55.831z" fill="#fcf8f2"></path>
    <path d="M117.705 235.958c-14.111 8.386-30.637 11.223-45.687 8.715-62.393-10.4-55.412-101.768-25.094-135.19 4.845-5.369 8.475-12.205 11.085-19.852-6.906 24.986-28.194 123.817 59.696 146.327z" fill="#f9eed7"></path>
    <path d="M151.534 180.092c4.382-40.138-14.696-99.123-80.269-178.053-3.578-4.307-10.578-1.275-9.846 4.276 2.156 16.347 4.124 40.457 1.244 62.437a137.29 137.29 0 01-.779 5.179 120.128 120.128 0 01-.85 4.493l-.1.47a103.953 103.953 0 01-1.194 4.969 90.337 90.337 0 01-1.312 4.487v.003c-2.642 8.169-6.389 15.459-11.506 21.13 3.736 9.688 3.739 20.449-.149 30.076a143.68 143.68 0 01-3.422 7.806s32.09-11.142 34.652-41.24c0 0 24.672 42.59 11.491 84.953 0 0 31.508-31.393 18.322-87.935.001-.001 37.711 23.508 43.718 76.949z" fill="#ffd15c"></path>
    <path d="M133.703 251.41H42.797c-8.944 0-16.196-7.252-16.196-16.196 0-8.944 7.252-16.196 16.196-16.196h90.906c8.944 0 16.196 7.252 16.196 16.196 0 8.945-7.252 16.196-16.196 16.196z" fill="#5c5e70"></path>
    <path d="M52.723 235.214c0-8.944 7.252-16.196 16.196-16.196H42.797c-8.944 0-16.196 7.252-16.196 16.196 0 8.944 7.252 16.196 16.196 16.196h26.122c-8.944 0-16.196-7.251-16.196-16.196z" fill="#494b5b"></path>
    <path d="M133.703 283.802H42.797c-8.944 0-16.196-7.252-16.196-16.196 0-8.944 7.252-16.196 16.196-16.196h90.906c8.944 0 16.196 7.252 16.196 16.196 0 8.945-7.252 16.196-16.196 16.196z" fill="#5c5e70"></path>
    <path d="M52.723 267.606c0-8.944 7.252-16.196 16.196-16.196H42.797c-8.944 0-16.196 7.252-16.196 16.196 0 8.944 7.252 16.196 16.196 16.196h26.122c-8.944 0-16.196-7.251-16.196-16.196z" fill="#494b5b"></path>
    <path d="M146.986 487.685c-33.374-15.726-62.809-38.452-86.403-66.299A255.885 255.885 0 0128.64 373.76a696.332 696.332 0 0112.591-89.955h94.041a697.888 697.888 0 0111.714 203.88z" fill="#c69a6a"></path>
    <path d="M139.086 303.658H98.085c-14.952 0-27.627 11.024-29.686 25.83a697.708 697.708 0 00-6.614 93.299c-.408-.47-.805-.93-1.202-1.4a255.617 255.617 0 01-31.932-47.606 696.778 696.778 0 018.777-70.123h-.01c.094-.543.209-1.087.282-1.63.199-1.421.502-2.832.784-4.232.313-1.536.575-3.062.867-4.598a709.117 709.117 0 011.881-9.394h94.041a686.706 686.706 0 013.813 19.854z" fill="#b58657"></path>
  </symbol>
  <symbol xmlns="http://www.w3.org/2000/svg" viewBox="0 0 512 512" id="pottery">
    <path clip-rule="evenodd" d="M171.164 54.083h170.153c12.125 0 22.041-9.916 22.041-22.042 0-10.993-8.131-20.172-18.698-21.787H165.158c-10.567 1.615-18.698 10.794-18.698 21.787 0 12.126 9.916 22.042 22.041 22.042z" fill="#ffd4b5" fill-rule="evenodd"></path>
    <path clip-rule="evenodd" d="M146.149 259.683H363.67c7.536-18.897 10.312-38.87 8.216-58.532-2.125-19.803-9.207-39.267-21.446-57.002-7.734-11.247-14.024-20.88-17.848-30.598-6.573-16.602-6.091-33.544 6.063-59.467h-167.49c12.154 25.923 12.635 42.865 6.063 59.467-3.853 9.718-10.114 19.35-17.877 30.598-12.21 17.735-19.321 37.199-21.418 57.002-2.125 19.662.68 39.635 8.216 58.532z" fill="#ffa96b" fill-rule="evenodd"></path>
    <path clip-rule="evenodd" d="M176.349 305.608H333.47c13.57-13.911 23.656-29.521 30.2-45.925H146.149c6.544 16.404 16.63 32.014 30.2 45.925z" fill="#ffd4b5" fill-rule="evenodd"></path>
    <path clip-rule="evenodd" d="M208.787 351.731h270.018c12.664 0 23.061-10.369 23.061-23.062s-10.397-23.062-23.061-23.062H33.195c-12.664 0-23.004 10.313-23.061 22.948v.226c.057 12.636 10.397 22.948 23.061 22.948h175.592z" fill="#ffa96b" fill-rule="evenodd"></path>
    <path clip-rule="evenodd" d="M233.633 399.639h58.163c6.261 0 11.389-6.261 11.389-13.911v-33.997h-94.397v33.997c0 7.649 5.128 13.911 11.417 13.911z" fill="#e2e7ef" fill-rule="evenodd"></path>
    <path clip-rule="evenodd" d="M233.633 399.639h44.734v54.396h-44.734z" fill="#c3d3dd" fill-rule="evenodd"></path>
    <path clip-rule="evenodd" d="M143.344 502h225.312v-23.997c0-13.174-10.794-23.968-23.996-23.968H167.311c-13.174 0-23.968 10.794-23.968 23.968V502z" fill="#ffa96b" fill-rule="evenodd"></path>
    <path d="M477.081 59.127h-47.879l10.41-10.411c3.905-3.905 3.905-10.237 0-14.142s-10.237-3.905-14.142 0l-27.48 27.481c-3.905 3.905-3.905 10.237 0 14.142l27.48 27.481c1.953 1.953 4.512 2.929 7.071 2.929s5.119-.977 7.071-2.929c3.905-3.905 3.906-10.237 0-14.142l-10.41-10.41h47.879c5.083 0 9.203-4.477 9.203-10s-4.12-9.999-9.203-9.999zM76.104 34.575c-3.905-3.905-10.237-3.905-14.142 0s-3.906 10.237 0 14.142l10.41 10.411H24.175c-4.907 0-8.884 4.477-8.884 10s3.977 10 8.884 10h48.197l-10.41 10.41c-3.905 3.905-3.905 10.237 0 14.142 1.953 1.953 4.512 2.929 7.071 2.929s5.119-.977 7.071-2.929l27.48-27.481c3.905-3.905 3.905-10.236 0-14.142z"></path>
    <path d="M478.146 295.608H355.04c19.559-26.669 28.846-57.398 27.412-87.789 28.125-11.699 43.544-27.337 43.544-45.198 0-25.426-31.205-46.337-85.871-57.758-3.319-11.66-2.162-23.809 5.134-41.03 16.122-1.988 28.578-15.991 28.085-32.752C372.831 13.655 358.101 0 340.668 0H169.151c-17.433 0-32.163 13.655-32.676 31.08-.493 16.761 11.962 30.764 28.085 32.752 7.298 17.224 8.453 29.373 5.13 41.031-54.663 11.421-85.867 32.332-85.867 57.757 0 12.688 7.885 30.344 43.541 45.135-1.445 30.414 7.844 61.167 27.415 87.853H33.854c-18.498 0-34.03 15.137-33.715 33.633.306 17.968 15.017 32.491 33.056 32.491h165.592v23.998c0 13.185 9.608 23.911 21.417 23.911h3.429v34.396h-56.322c-18.76 0-33.968 15.208-33.968 33.968V502c0 5.523 4.477 10 10 10h67.424c5.326 0 9.977-4.019 10.321-9.335.377-5.824-4.235-10.665-9.978-10.665h-57.767v-13.997c0-7.714 6.254-13.968 13.968-13.968H344.66c7.717 0 13.996 6.266 13.996 13.968V492h-57.453c-5.326 0-9.977 4.019-10.321 9.335-.377 5.824 4.235 10.665 9.978 10.665h67.795c5.523 0 10-4.477 10-10v-23.997c0-18.73-15.25-33.968-33.996-33.968h-56.293v-34.396h3.429c11.794 0 21.389-10.726 21.389-23.911V361.73h165.62c18.039 0 32.75-14.523 33.056-32.491.316-18.494-15.216-33.631-33.714-33.631zm-121.543-45.925H153.215c-3.795-11.407-5.749-23.15-5.853-34.883 29.995 8.942 67.579 13.832 107.203 13.86 5.322.004 9.953-3.981 10.32-9.29.403-5.844-4.218-10.71-9.975-10.71-44 0-80.014-5.925-105.832-14.201 2.771-15.53 8.892-30.686 18.504-44.632 7.68-11.132 14.117-21.139 18.353-31.37a9.993 9.993 0 00.982-2.469c5.708-15.133 6.443-31.005-.851-51.905h137.688c-7.3 20.918-6.559 36.801-.839 51.952a10 10 0 00.954 2.396c4.231 10.239 10.663 20.253 18.34 31.395 9.615 13.939 15.741 29.088 18.519 44.611-8.646 2.75-18.583 5.279-29.867 7.454-5.254 1.013-9.06 5.88-8.354 11.184a10.004 10.004 0 009.904 8.701c.625 0 1.258-.059 1.894-.181 10.159-1.948 19.544-4.215 28.147-6.761-.107 11.723-2.059 23.453-5.849 34.849zm49.393-87.063c0 7.146-8.412 16.228-26.203 24.503-3.577-16.904-10.588-33.382-21.119-48.649-2.5-3.628-4.814-7.028-6.917-10.271 37.1 10.085 54.239 24.22 54.239 34.417zM156.515 30.881C157.102 24.642 162.587 20 168.854 20h172.111c6.267 0 11.752 4.642 12.339 10.881.674 7.159-4.964 13.202-11.986 13.202H168.501c-7.022 0-12.659-6.042-11.986-13.202zM103.822 162.62c0-10.195 17.132-24.326 54.216-34.41-2.105 3.241-4.42 6.638-6.922 10.264-10.521 15.265-17.525 31.74-21.099 48.639-17.003-7.913-26.195-16.809-26.195-24.493zm58.156 107.063H347.84c-4.981 9.088-11.221 17.795-18.699 25.925H180.677c-7.477-8.129-13.717-16.836-18.699-25.925zm106.389 174.352h-24.733v-34.396h24.733zm24.818-58.306a6.58 6.58 0 01-.216 1.7 2.992 2.992 0 01-2.898 2.21h-68.17a2.99 2.99 0 01-2.897-2.206 6.608 6.608 0 01-.216-1.705V361.73h74.397zm185.62-43.998H33.575c-7.025 0-13.078-5.387-13.424-12.403-.37-7.5 5.625-13.72 13.045-13.72h445.23c7.025 0 13.078 5.387 13.424 12.403.369 7.5-5.626 13.72-13.045 13.72z"></path>
    <path d="M255.986 492c-7.036 0-12.375 7.266-8.921 14.705 1.531 3.297 4.959 5.295 8.594 5.295 5.331 0 9.991-4.021 10.334-9.341.376-5.821-4.266-10.659-10.007-10.659z"></path>
  </symbol>
  <symbol xmlns="http://www.w3.org/2000/svg" viewBox="0 0 256 256" id="vocal">
    <circle cx="113.333" cy="133.725" fill="#fcc24c" transform="rotate(-45 113.318 133.755)" r="86.048"></circle>
    <circle cx="113.333" cy="133.725" fill="#f4efed" transform="rotate(-45 113.318 133.755)" r="35.853"></circle>
    <path d="M127.675 133.725c0 7.921-6.421 14.341-14.341 14.341s-14.341-6.421-14.341-14.341 6.421-14.341 14.341-14.341 14.341 6.42 14.341 14.341z" fill="#7bac51"></path>
    <path d="M113.333 171.578c-20.873 0-37.854-16.981-37.854-37.854 0-20.872 16.981-37.853 37.854-37.853 20.872 0 37.853 16.981 37.853 37.853.001 20.873-16.98 37.854-37.853 37.854zm0-71.706c-18.667 0-33.854 15.187-33.854 33.853 0 18.667 15.187 33.854 33.854 33.854s33.853-15.187 33.853-33.854c.001-18.667-15.186-33.853-33.853-33.853z" fill="#690589"></path>
    <path d="M113.333 150.066c-9.011 0-16.341-7.331-16.341-16.341s7.331-16.341 16.341-16.341 16.341 7.331 16.341 16.341-7.33 16.341-16.341 16.341zm0-28.683c-6.805 0-12.341 5.536-12.341 12.341s5.536 12.341 12.341 12.341 12.341-5.536 12.341-12.341-5.535-12.341-12.341-12.341z" fill="#690589"></path>
    <path d="M109.917 219.452c1.736.143 3.487.228 5.249.274 46.674-.979 84.215-39.093 84.215-86.001s-37.541-85.023-84.215-86.002a93.823 93.823 0 00-5.249.274c44.165 3.647 78.877 40.622 78.877 85.727s-34.712 82.081-78.877 85.728z" fill="#dea42e"></path>
    <path d="M116.749 47.997a93.773 93.773 0 00-5.249-.274c-46.673.979-84.215 39.093-84.215 86.002 0 46.908 37.542 85.022 84.215 86.001a93.823 93.823 0 005.249-.274c-44.165-3.647-78.877-40.622-78.877-85.727s34.712-82.08 78.877-85.728z" fill="#fce06a"></path>
    <path d="M113.333 221.772c-48.55 0-88.048-39.498-88.048-88.048s39.498-88.048 88.048-88.048 88.048 39.498 88.048 88.048-39.498 88.048-88.048 88.048zm0-172.095c-46.344 0-84.048 37.704-84.048 84.048s37.704 84.048 84.048 84.048 84.048-37.704 84.048-84.048-37.703-84.048-84.048-84.048z" fill="#690589"></path>
    <path d="M37.633 134.072a2 2 0 01-2-2c0-4.172.422-8.345 1.254-12.402a2 2 0 113.918.804 57.84 57.84 0 00-1.172 11.598 2 2 0 01-2 2zm201.239 16.232h-77.013a2 2 0 010-4h77.013a2 2 0 010 4z" fill="#690589"></path>
    <circle cx="54.987" cy="48.005" fill="#f4efed" transform="rotate(-80.85 55.035 48.02)" r="44.005"></circle>
    <path d="M54.987 4c-1.17 0-2.327.06-3.474.149C74.19 5.922 92.044 24.872 92.044 48.005S74.19 90.088 51.513 91.861c1.148.09 2.304.149 3.474.149 24.304 0 44.005-19.702 44.005-44.005S79.29 4 54.987 4z" fill="#d6d1cf"></path>
    <path d="M54.987 92.011c1.171 0 2.327-.059 3.474-.149C35.783 90.089 17.93 71.139 17.93 48.006S35.784 5.923 58.461 4.15A44.372 44.372 0 0054.987 4C30.683 4 10.981 23.702 10.981 48.005c0 24.304 19.702 44.006 44.006 44.006z" fill="#fff"></path>
    <path d="M54.987 94.011c-25.368 0-46.006-20.638-46.006-46.005S29.619 2 54.987 2s46.005 20.638 46.005 46.005-20.638 46.006-46.005 46.006zm0-88.011C31.825 6 12.981 24.844 12.981 48.005S31.825 90.01 54.987 90.01s42.005-18.844 42.005-42.005S78.148 6 54.987 6z" fill="#690589"></path>
    <path d="M31.641 70.383c1.204 3.359 6.254 4.621 11.28 2.819s8.124-5.985 6.921-9.343c-1.204-3.358-6.254-4.621-11.28-2.819-5.026 1.801-8.125 5.984-6.921 9.343zm46.95-38.371l-28.489 8.279v-9.544l28.489-8.279zM60.094 62.035c1.204 3.359 6.254 4.621 11.28 2.819 5.026-1.801 8.124-5.985 6.92-9.343-1.204-3.359-6.254-4.621-11.28-2.819s-8.124 5.985-6.92 9.343z" fill="#ff4397"></path>
    <path d="M50.102 42.291a2 2 0 01-2-2v-9.544c0-.89.587-1.672 1.442-1.92l28.49-8.279a2 2 0 012.558 1.921v9.544c0 .89-.587 1.672-1.442 1.92l-28.49 8.279a2.05 2.05 0 01-.558.079zm2-10.043v5.378l24.49-7.116v-5.378zm26.489-.236h.01z" fill="#690589"></path>
    <path d="M50.102 67.036a2 2 0 01-2-2V40.291a2 2 0 014 0v24.746a2 2 0 01-2 1.999zm28.489-8.3a2 2 0 01-2-2V31.991a2 2 0 014 0v24.746a2 2 0 01-2 1.999z" fill="#690589"></path>
    <path d="M66.798 67.686c-4.068 0-7.452-1.811-8.587-4.976-1.601-4.466 1.97-9.693 8.128-11.9 2.799-1.004 5.724-1.21 8.233-.583 2.759.689 4.802 2.37 5.604 4.61.803 2.24.293 4.835-1.399 7.121-1.54 2.079-3.93 3.777-6.729 4.78-1.792.642-3.579.948-5.25.948zm-4.821-6.326c.712 1.985 4.468 3.137 8.723 1.612 2.033-.729 3.806-1.966 4.864-3.396.519-.701 1.32-2.074.848-3.39s-1.962-1.868-2.809-2.08c-1.725-.43-3.881-.261-5.914.468-4.253 1.526-6.424 4.801-5.712 6.786zM38.368 76.024c-1.042 0-2.053-.118-3.005-.356-2.759-.69-4.802-2.37-5.604-4.61-.803-2.24-.293-4.836 1.399-7.121 1.54-2.079 3.93-3.776 6.729-4.78 2.799-1.003 5.722-1.21 8.233-.583 2.759.69 4.802 2.37 5.604 4.61.803 2.24.293 4.835-1.399 7.121-1.54 2.079-3.93 3.777-6.729 4.78-1.737.623-3.523.939-5.228.939zm4.759-13.803c-1.251 0-2.596.237-3.89.702-2.033.729-3.806 1.966-4.864 3.395-.519.701-1.32 2.074-.848 3.391.472 1.316 1.962 1.868 2.809 2.079 1.726.432 3.881.262 5.914-.468 2.033-.729 3.806-1.966 4.864-3.396.519-.701 1.32-2.074.848-3.39s-1.962-1.868-2.809-2.079a8.37 8.37 0 00-2.024-.234z" fill="#690589"></path>
    <path d="M200.365 191.414c-16.305 0-29.522-13.217-29.522-29.522v-27.176c0-16.305 13.217-29.522 29.522-29.522s29.522 13.217 29.522 29.522v27.176c.001 16.305-13.217 29.522-29.522 29.522z" fill="#f4efed"></path>
    <path d="M200.365 105.194c-1.166 0-2.314.075-3.444.207 14.681 1.707 26.078 14.177 26.078 29.315v27.176c0 15.139-11.397 27.609-26.078 29.316 1.131.131 2.278.207 3.444.207 16.305 0 29.522-13.218 29.522-29.522v-27.176c.001-16.306-13.217-29.523-29.522-29.523z" fill="#d6d1cf"></path>
    <path d="M200.365 191.414c1.166 0 2.314-.075 3.445-.207-14.681-1.707-26.078-14.177-26.078-29.315v-27.176c0-15.139 11.397-27.609 26.078-29.316a29.903 29.903 0 00-3.444-.207c-16.305 0-29.522 13.218-29.522 29.522v27.176c-.001 16.306 13.217 29.523 29.521 29.523z" fill="#fff"></path>
    <g fill="#690589">
      <path d="M200.365 193.415c-17.381 0-31.522-14.141-31.522-31.522v-27.176c0-17.381 14.141-31.522 31.522-31.522s31.522 14.141 31.522 31.522v27.176c.001 17.38-14.14 31.522-31.522 31.522zm0-86.221c-15.176 0-27.522 12.346-27.522 27.522v27.176c0 15.176 12.346 27.522 27.522 27.522s27.522-12.347 27.522-27.522v-27.176c.001-15.175-12.346-27.522-27.522-27.522z"></path>
      <path d="M181.407 136.716h-10.563a2 2 0 010-4h10.563a2 2 0 010 4zm0 13.588h-10.563a2 2 0 010-4h10.563a2 2 0 010 4zm0 13.588h-10.563a2 2 0 010-4h10.563a2 2 0 010 4zm48.481-27.176h-10.563a2 2 0 010-4h10.563a2 2 0 010 4zm0 13.588h-10.563a2 2 0 010-4h10.563a2 2 0 010 4zm0 13.588h-10.563a2 2 0 010-4h10.563a2 2 0 010 4z"></path>
    </g>
    <path d="M241.082 136.495a3.937 3.937 0 00-3.936 3.937v23.661c0 20.281-16.499 36.78-36.78 36.78s-36.78-16.499-36.78-36.78v-23.661a3.937 3.937 0 00-7.872 0v23.661c0 23.295 17.933 42.469 40.717 44.47v39.501a3.936 3.936 0 007.873 0v-39.501c22.784-2.001 40.717-21.175 40.717-44.47v-23.661a3.94 3.94 0 00-3.939-3.937z" fill="#ff4397"></path>
    <path d="M200.365 254a5.944 5.944 0 01-5.937-5.937v-37.706c-22.977-2.946-40.717-22.92-40.717-46.265v-23.661c0-3.273 2.663-5.937 5.937-5.937s5.937 2.663 5.937 5.937v23.661c0 19.178 15.603 34.78 34.78 34.78s34.78-15.603 34.78-34.78v-23.661c0-3.273 2.663-5.937 5.937-5.937s5.937 2.663 5.937 5.937v23.661c0 23.345-17.74 43.319-40.717 46.265v37.706a5.943 5.943 0 01-5.937 5.937zm-40.717-115.505a1.94 1.94 0 00-1.937 1.937v23.661c0 21.904 17.083 40.562 38.892 42.478a2 2 0 011.825 1.992v39.501c0 1.068.869 1.937 1.937 1.937s1.937-.869 1.937-1.937v-39.501c0-1.037.792-1.902 1.825-1.992 21.808-1.915 38.892-20.573 38.892-42.478v-23.661c0-1.068-.869-1.937-1.937-1.937s-1.937.869-1.937 1.937v23.661c0 21.383-17.397 38.78-38.78 38.78s-38.78-17.397-38.78-38.78v-23.661a1.939 1.939 0 00-1.937-1.937z" fill="#690589"></path>
  </symbol>
  <symbol xmlns="http://www.w3.org/2000/svg" viewBox="0 0 64 64" id="architect">
    <path d="M36 54v8h-6V51.89A7.15 7.15 0 0035.08 54z" fill="#fcd770"></path>
    <path d="M32 48h-4a7.12 7.12 0 002 3.89V62h-7v-4h1c.55 0 1.05-.22 1.41-.59.37-.36.59-.86.59-1.41 0-1.1-.9-2-2-2h-1V31c4.83 1.12 8.77 4.25 11 8.4V48zM15 58v4H8v-4.84c1.22.54 2.58.84 4 .84z" fill="#fcd770"></path>
    <path d="M17 54v4h-5c-1.42 0-2.78-.3-4-.84C4.47 55.62 2 52.1 2 48v-.66C2 39.53 7.39 32.76 15 31v22.55z" fill="#fcd770"></path>
    <path d="M17 58h6v4h-8v-4zm6-16v12c0-1.1-.9-2-2-2h-1.17c-.53 0-1.04.21-1.42.59L17 54l-2-.45V42l4-5z" fill="#e6e9ed"></path>
    <path d="M23 31v11l-4-5zm-8 0l4 6-4 5z" fill="#ccd1d9"></path>
    <path d="M58 48h4a7.186 7.186 0 01-2.44 4.3 7.19 7.19 0 01-4.64 1.7H49c0-.55-.22-1.05-.59-1.41-.36-.37-.86-.59-1.41-.59h-4c-1.1 0-2 .9-2 2h-5.92c-1.97 0-3.78-.8-5.08-2.11A7.12 7.12 0 0128 48h28z" fill="#aab2bd"></path>
    <path d="M56 36v12H46V36h8z" fill="#d3a06c"></path>
    <path d="M54 20v16h-8v-4h-8V20h12z" fill="#dfb28b"></path>
    <path d="M38 32h8v16H34V32z" fill="#e6e9ed"></path>
    <path d="M48.41 52.59c.37.36.59.86.59 1.41 0 1.1-.45 2.1-1.17 2.83C47.1 57.55 46.1 58 45 58s-2.1-.45-2.83-1.17C41.45 56.1 41 55.1 41 54s.9-2 2-2h4c.55 0 1.05.22 1.41.59zM24 54c1.1 0 2 .9 2 2 0 .55-.22 1.05-.59 1.41-.36.37-.86.59-1.41.59h-7v-4l1.41-1.41c.38-.38.89-.59 1.42-.59H21c1.1 0 2 .9 2 2zm5.12-34.12A2.996 2.996 0 0127 25h-1.13c.09-.32.13-.65.13-1v-5h1c.83 0 1.58.34 2.12.88zM22 28l1 3-4 6-4-6 1-3z" fill="#f0d0b4"></path>
    <path d="M26 19v5c0 .35-.04.68-.13 1-.44 1.73-2.01 3-3.87 3h-6c-1.86 0-3.43-1.27-3.87-3-.09-.32-.13-.65-.13-1v-8h14z" fill="#f0d0b4"></path>
    <path d="M12.13 25H11c-.83 0-1.58-.34-2.12-.88S8 22.83 8 22c0-1.66 1.34-3 3-3h1v5c0 .35.04.68.13 1z" fill="#f0d0b4"></path>
    <path d="M30 16v6c0-.83-.34-1.58-.88-2.12S27.83 19 27 19h-1v-3zm-19 3c-1.66 0-3 1.34-3 3v-6h4v3z" fill="#656d78"></path>
    <path d="M29.96 12H21V2.18c2.08.38 3.95 1.35 5.44 2.72 1.96 1.8 3.26 4.3 3.52 7.1zM17 2.19V12H8.04C8.49 7.06 12.2 3.06 17 2.18z" fill="#ff826e"></path>
    <path d="M21 2.19V12h-4V2.18c.65-.12 1.32-.18 2-.18s1.35.06 2 .18zM7 12h24c.55 0 1 .45 1 1v2c0 .55-.45 1-1 1H7c-.55 0-1-.45-1-1v-2c0-.55.45-1 1-1z" fill="#fc6e51"></path>
    <path d="M59.477 47l3.451-8.628-1.857-.743L57.323 47H57V35h-2V19h-4v-4h-2v4h-2v-6h-2v6h-2v-4h-2v4h-4v12h-4v5.129a17.767 17.767 0 00-9.225-5.968l-.454-1.361a5.005 5.005 0 003.255-2.8H27c2.206 0 4-1.794 4-4v-5c1.103 0 2-.897 2-2v-2c0-1.103-.897-2-2-2h-.174C29.869 5.24 24.943 1 19 1S8.131 5.24 7.174 11H7c-1.103 0-2 .897-2 2v2c0 1.103.897 2 2 2v5c0 2.206 1.794 4 4 4h.424a5.004 5.004 0 003.255 2.8l-.454 1.361C6.41 32.222 1 39.208 1 47.342V48c0 4.264 2.444 7.961 6 9.786V63h30v-8h3.101c.465 2.279 2.484 4 4.899 4s4.434-1.721 4.899-4h5.019a8.155 8.155 0 008.069-6.835L63.181 47zM47 47V37h8v10zm-8-26h14v14h-6v-4h-8zm6 12v14H35V33zm-12 6.676V47h-.323l-3.749-9.372-1.857.743L30.523 47H26.82l.194 1.165A8.161 8.161 0 0029 52.29V61h-5v-2c1.654 0 3-1.346 3-3s-1.346-3-3-3V32.327a15.762 15.762 0 019 7.349zM21.279 29l.617 1.852L19 35.197l-2.897-4.345.618-1.852zM22 39.149l-1.762-2.203L22 34.303zm-6 0v-4.846l1.762 2.643zm0 3.201l3-3.75 3 3.75v8.826A2.99 2.99 0 0021 51h-1.171c-.801 0-1.555.312-2.122.879l-1.026 1.026-.681-.152zm2 12.064l1.121-1.121a.996.996 0 01.708-.293H21c.551 0 1 .449 1 1v1h2c.551 0 1 .449 1 1s-.449 1-1 1h-6zM22 59v2h-6v-2zm5-35v-4c1.103 0 2 .897 2 2s-.897 2-2 2zm2-5.444A3.959 3.959 0 0027 18v-1h2zM28.796 11H22V3.458A9.914 9.914 0 0128.796 11zM20 3.05V11h-2V3.05c.329-.032.662-.05 1-.05s.671.018 1 .05zm-4 .408V11H9.204A9.914 9.914 0 0116 3.458zM6.999 13H31v2H7zM11 17v1c-.732 0-1.409.212-2 .556V17zm-2 5c0-1.103.897-2 2-2v4c-1.103 0-2-.897-2-2zm4 2v-7h12v7c0 1.654-1.346 3-3 3h-6c-1.654 0-3-1.346-3-3zM3 48v-.658c0-6.96 4.464-12.968 11-15.029V52.31l-1.085-.241A4.972 4.972 0 019 47.187V43H7v4.187a6.958 6.958 0 005.481 6.833l3.519.782V57h-4c-4.962 0-9-4.038-9-9zm6 10.574c.955.271 1.959.426 3 .426h2v2H9zM31 61v-7.086a8.175 8.175 0 004 1.083V61zm14-4c-1.654 0-3-1.346-3-3 0-.551.449-1 1-1h4c.551 0 1 .449 1 1 0 1.654-1.346 3-3 3zm9.917-4h-5.102a2.996 2.996 0 00-2.816-2h-4a2.996 2.996 0 00-2.816 2h-5.102a6.159 6.159 0 01-5.785-4H60.7a6.153 6.153 0 01-5.783 4z"></path>
    <path d="M45 23h2v2h-2zm-4 0h2v2h-2zm8 0h2v2h-2zm0 4h2v2h-2zm-8 0h2v2h-2zm4 0h2v2h-2zm4 4h2v2h-2zm-12 4h2v10h-2zm4 0h2v10h-2zm8 4h4v2h-4zm0 4h4v2h-4z"></path>
  </symbol>
</svg>