<svg width="60" height="60" viewBox="0 0 60 60" fill="none" xmlns="http://www.w3.org/2000/svg">
<g clip-path="url(#clip0)">
<path d="M36.4996 55.6184C35.8283 55.8918 35.0826 55.7426 34.5853 55.2455L4.75431 25.4145C4.25708 24.9173 4.1079 24.1715 4.38141 23.5003C4.65493 22.8291 5.27649 22.4064 5.99743 22.4313C8.70704 22.4064 11.3421 21.3126 13.2314 19.4233L13.455 19.1997H18.4268L40.8001 41.573V46.5448L40.5765 46.7684C38.6623 48.6827 37.5686 51.2679 37.5686 54.0024C37.5934 54.7234 37.1707 55.3449 36.4996 55.6184Z" fill="#FEA832"/>
<path d="M36.4996 55.6186C35.8283 55.892 35.0825 55.7428 34.5853 55.2457L19.6698 40.3302L29.6135 30.3865L40.8001 41.5731V46.5449L40.5765 46.7685C38.6623 48.6827 37.5686 51.268 37.5686 54.0025C37.5934 54.7236 37.1707 55.3451 36.4996 55.6186Z" fill="#FE9923"/>
<path d="M58.4524 1.54749C56.3891 -0.51583 53.0581 -0.51583 50.9946 1.54749C48.9314 3.61069 48.9313 6.94186 50.9946 9.0053C53.0579 11.0686 56.3892 11.0685 58.4524 9.0053C60.5159 6.94198 60.5159 3.61093 58.4524 1.54749Z" fill="#FEA832"/>
<path d="M50.9947 9.00518L58.4525 1.54736C60.5159 3.61068 60.5159 6.94174 58.4525 9.00518C56.3892 11.0684 53.058 11.0685 50.9947 9.00518Z" fill="#FE9923"/>
<path d="M24.6417 47.7879C21.2112 51.2184 15.6426 51.2184 12.2121 47.7879C8.78155 44.3573 8.78155 38.7888 12.2121 35.3583C12.9082 34.6622 14.0019 34.6622 14.698 35.3583L24.6417 45.302C25.3378 45.9981 25.3378 47.0918 24.6417 47.7879Z" fill="#FEA832"/>
<path d="M24.6417 47.7879C21.2112 51.2184 15.6426 51.2184 12.2121 47.7879L19.6699 40.3301L24.6417 45.3019C25.3378 45.9981 25.3378 47.0918 24.6417 47.7879Z" fill="#FE9923"/>
<path d="M53.4806 33.8646L40.8001 46.5451L13.455 19.1999L26.1355 6.51946C33.668 -1.013 45.9483 -1.013 53.4806 6.51946C61.013 14.0519 61.0131 26.3322 53.4806 33.8646Z" fill="#FEDB41"/>
<path d="M53.4806 33.8644L40.8001 46.5449L27.1276 32.8723L53.4806 6.51929C61.0131 14.0517 61.0131 26.3321 53.4806 33.8644Z" fill="#FCBF29"/>
<path d="M38.3142 58.9746C36.947 60.3419 34.7096 60.3419 33.3424 58.9746L1.02539 26.6576C-0.341837 25.2904 -0.341837 23.053 1.02539 21.6858C2.39262 20.3186 4.62996 20.3186 5.99718 21.6858L38.3142 54.0028C39.6814 55.37 39.6814 57.6074 38.3142 58.9746Z" fill="#FEDB41"/>
<path d="M38.3142 58.9746C36.947 60.3418 34.7096 60.3418 33.3424 58.9746L17.1839 42.816L22.1557 37.8442L38.3142 54.0028C39.6814 55.3699 39.6814 57.6073 38.3142 58.9746Z" fill="#FCBF29"/>
</g>
<defs>
<clipPath id="clip0">
<rect width="60" height="60" fill="white"/>
</clipPath>
</defs>
</svg>
