<svg width="45" height="45" viewBox="0 0 45 45" fill="none" xmlns="http://www.w3.org/2000/svg">
<path d="M33.25 41.7042H29.2885L24.75 33.6868L39.75 36.4307V39.0674L33.25 41.7042Z" fill="#A2ABB8"/>
<path d="M33.25 41.7041H38.25C39.075 41.7041 39.75 41.1108 39.75 40.3857V39.0674H33.25V41.7041Z" fill="#C8D2DC"/>
<path d="M36.75 4.76367H42.75C43.575 4.76367 44.25 5.35693 44.25 6.08203V35.1123C44.25 35.8374 43.575 36.4307 42.75 36.4307H17.25C16.425 36.4307 15.75 35.8374 15.75 35.1123V25.708L36.75 4.76367Z" fill="#E9EDF1"/>
<path d="M17.25 4.76367H36.75V29.1505C36.75 29.8756 36.075 30.4689 35.25 30.4689H31.25V36.4307H28.25L15.75 6.08203C15.75 5.35693 16.425 4.76367 17.25 4.76367Z" fill="#C8D2DC"/>
<path d="M2.25 8.71875C1.425 8.71875 0.75 9.31201 0.75 10.0371V43.65C0.75 44.0299 1.1037 44.3408 1.536 44.3408H28.464C28.8963 44.3408 29.25 44.0299 29.25 43.65V42.583L2.25 8.71875Z" fill="#FFD064"/>
<path d="M7.75 8.71875H2.25V41.9555C2.25 42.3006 2.5713 42.583 2.964 42.583H29.25V28.7842L7.75 8.71875Z" fill="#FFF0AF"/>
<path d="M27.75 8.71875H7.75V27.4658C7.75 28.1909 8.425 28.7842 9.25 28.7842H29.25V10.0371C29.25 9.31201 28.575 8.71875 27.75 8.71875Z" fill="#FFD064"/>
<path d="M33.75 27.0264H11.25C10.425 27.0264 9.75 26.4331 9.75 25.708V1.97754C9.75 1.25244 10.425 0.65918 11.25 0.65918H33.75C34.575 0.65918 35.25 1.25244 35.25 1.97754V25.708C35.25 26.4331 34.575 27.0264 33.75 27.0264Z" fill="#DCE7EF"/>
<path d="M25.7472 16.7031C24.8356 17.2865 20.1645 17.2865 19.2529 16.7031C17.6623 18.5869 12.7501 17.5614 12.7501 22.0997V24.3896H32.2501C32.2501 24.3896 32.2501 23.9723 32.2501 22.0997C32.25 17.5615 27.3378 18.587 25.7472 16.7031Z" fill="#81A9C8"/>
<path d="M25.7472 16.7031C25.44 16.3392 25.2559 15.8675 25.2559 15.2256H19.7441C19.7441 15.8676 19.56 16.3393 19.2528 16.7031C20.1644 17.2864 21.2861 17.6314 22.5 17.6314C23.7139 17.6314 24.8356 17.2864 25.7472 16.7031Z" fill="#4980AC"/>
<path d="M28.0241 8.30048C28.0241 5.61911 25.5509 3.44531 22.5 3.44531C19.4492 3.44531 16.9759 5.61902 16.9759 8.30048V11.0185C16.9759 13.6999 19.4491 15.8737 22.5 15.8737C25.5509 15.8737 28.0241 13.6999 28.0241 11.0185C28.0241 10.4268 28.0241 8.89207 28.0241 8.30048Z" fill="#81A9C8"/>
<path d="M27.75 45H2.25C1.0093 45 0 44.1128 0 43.0225V10.0371C0 8.94674 1.0093 8.05957 2.25 8.05957H6.561C6.9752 8.05957 7.311 8.35462 7.311 8.71875C7.311 9.08288 6.9752 9.37793 6.561 9.37793H2.25C1.8364 9.37793 1.5 9.67359 1.5 10.0371V43.0225C1.5 43.386 1.8364 43.6816 2.25 43.6816H27.75C28.1636 43.6816 28.5 43.386 28.5 43.0225V27.6855H11.25C10.0093 27.6855 9 26.7984 9 25.708V1.97754C9 0.887168 10.0093 0 11.25 0H33.75C34.9907 0 36 0.887168 36 1.97754V8.56934C36 8.93347 35.6642 9.22852 35.25 9.22852C34.8358 9.22852 34.5 8.93347 34.5 8.56934V1.97754C34.5 1.61402 34.1636 1.31836 33.75 1.31836H11.25C10.8364 1.31836 10.5 1.61402 10.5 1.97754V25.708C10.5 26.0715 10.8364 26.3672 11.25 26.3672H33.75C34.1636 26.3672 34.5 26.0715 34.5 25.708V11.2061C34.5 10.8419 34.8358 10.5469 35.25 10.5469H39.75C40.1642 10.5469 40.5 10.8419 40.5 11.2061C40.5 11.5702 40.1642 11.8652 39.75 11.8652H36V14.502H39.75C40.1642 14.502 40.5 14.797 40.5 15.1611C40.5 15.5253 40.1642 15.8203 39.75 15.8203H36V18.457H39.75C40.1642 18.457 40.5 18.7521 40.5 19.1162C40.5 19.4803 40.1642 19.7754 39.75 19.7754H36V22.4121H39.75C40.1642 22.4121 40.5 22.7072 40.5 23.0713C40.5 23.4354 40.1642 23.7305 39.75 23.7305H36V25.708C36 25.939 35.9547 26.1609 35.8715 26.3672H39.75C40.1642 26.3672 40.5 26.6622 40.5 27.0264C40.5 27.3905 40.1642 27.6855 39.75 27.6855H30V30.3223H39.75C40.1642 30.3223 40.5 30.6173 40.5 30.9814C40.5 31.3456 40.1642 31.6406 39.75 31.6406H30V35.7715H42.75C43.1636 35.7715 43.5 35.4758 43.5 35.1123V6.08203C43.5 5.71852 43.1636 5.42285 42.75 5.42285H38.25C37.8358 5.42285 37.5 5.1278 37.5 4.76367C37.5 4.39954 37.8358 4.10449 38.25 4.10449H42.75C43.9907 4.10449 45 4.99166 45 6.08203V35.1123C45 36.2027 43.9907 37.0898 42.75 37.0898H30V41.0449H38.25C38.6636 41.0449 39 40.7493 39 40.3857V39.0674C39 38.7033 39.3358 38.4082 39.75 38.4082C40.1642 38.4082 40.5 38.7033 40.5 39.0674V40.3857C40.5 41.4761 39.4907 42.3633 38.25 42.3633H30V43.0225C30 44.1128 28.9907 45 27.75 45ZM32.25 25.0488H12.75C12.3358 25.0488 12 24.7538 12 24.3896V22.0997C12 18.7125 14.548 17.9375 16.4085 17.3716C17.944 16.9045 18.8159 16.5899 18.9696 15.5748C17.3144 14.581 16.2259 12.9095 16.2259 11.0185V8.30039C16.2259 5.25981 19.0405 2.78613 22.5 2.78613C25.9595 2.78613 28.7741 5.2599 28.7741 8.30039V11.0185C28.7741 12.9095 27.6857 14.581 26.0304 15.5748C26.1841 16.59 27.056 16.9045 28.5915 17.3716C30.452 17.9375 33 18.7125 33 22.0997V24.3896C33 24.7538 32.6642 25.0488 32.25 25.0488ZM13.5 23.7305H31.5V22.0997C31.5 19.6514 29.9248 19.1722 28.1009 18.6174C26.7539 18.2078 25.13 17.7137 24.6475 16.2C23.9772 16.4153 23.254 16.5328 22.5 16.5328C21.746 16.5328 21.0228 16.4153 20.3525 16.2C19.87 17.7137 18.2461 18.2078 16.8991 18.6174C15.0752 19.1723 13.5 19.6514 13.5 22.0997V23.7305ZM22.5 4.10449C19.8676 4.10449 17.7259 5.98676 17.7259 8.30039V11.0185C17.7259 13.3321 19.8676 15.2144 22.5 15.2144C25.1324 15.2144 27.2741 13.3321 27.2741 11.0185V8.30039C27.2741 5.98676 25.1324 4.10449 22.5 4.10449Z" fill="black"/>
</svg>
