<svg width="0" height="0" class="hidden">
  <symbol fill="none" xmlns="http://www.w3.org/2000/svg" viewBox="0 0 300 281" id="logo">
    <path fill-rule="evenodd" clip-rule="evenodd" d="M150.285.311c-.573.283-2.21 1.228-3.638 2.094-1.428.87-3.652 2.103-4.936 2.74-1.288.638-2.648 1.454-3.028 1.815-.377.36-.876.653-1.11.653-.234 0-2.613 1.293-5.288 2.872-2.676 1.579-5.017 2.875-5.201 2.879-.181.003-2.507 1.299-5.17 2.881-2.66 1.585-5.139 2.879-5.513 2.879-.371 0-.676.22-.676.486 0 .27-.487.644-1.082.835-.596.192-2.994 1.447-5.326 2.79-2.336 1.344-4.83 2.735-5.544 3.086-.714.355-1.65.864-2.08 1.137-2.064 1.312-10.006 5.791-10.265 5.791-.159 0-2.69 1.413-5.625 3.14-2.934 1.726-5.587 3.138-5.896 3.138-.309 0-.558.236-.558.525 0 .285-.262.52-.583.52-.321 0-2.6 1.146-5.067 2.546-6.015 3.416-14.175 7.964-17.998 10.03a691.106 691.106 0 00-7.533 4.171 1239.363 1239.363 0 01-6.879 3.843 684.327 684.327 0 00-6.61 3.726c-2.28 1.302-4.265 2.367-4.415 2.367-.147 0-1.849.979-3.785 2.175-1.934 1.196-4.453 2.615-5.594 3.155-1.145.54-2.432 1.202-2.86 1.472-2.597 1.642-7.876 4.683-9.874 5.691-8.382 4.231-10.14 6.802-6.006 8.786 1.017.49 1.85 1.08 1.85 1.316 0 .235.242.426.542.426.299 0 2.344 1.234 4.549 2.747 2.201 1.51 4.393 2.907 4.873 3.108.478.198 2.055 1.199 3.502 2.222 1.447 1.023 2.803 1.862 3.012 1.862.64 0 20.633-10.158 21.365-10.855.378-.361.986-.653 1.35-.653.365 0 2.813-1.177 5.438-2.612 2.623-1.434 5.339-2.753 6.03-2.929.696-.175 1.535-.65 1.869-1.051.333-.405.82-.735 1.081-.735.262 0 2.046-.728 3.964-1.616 7.193-3.337 8.78-4.056 12.581-5.707 3.464-1.504 5.092-2.229 11.172-4.982 6.458-2.922 8.784-3.911 9.202-3.911.262 0 1.693-.562 3.174-1.25 1.484-.684 5.547-2.567 9.033-4.184 3.483-1.616 6.673-2.938 7.081-2.938.412 0 1.039-.355 1.394-.785.355-.43.935-.784 1.291-.784.352 0 2.722-.96 5.263-2.132 2.538-1.17 5.32-2.445 6.177-2.828.858-.386 4.431-2.015 7.942-3.626 3.511-1.607 6.529-2.925 6.704-2.925.178 0 1.808-.707 3.623-1.57 4.041-1.92 4.088-1.92 8.104-.075a199.35 199.35 0 005.846 2.57c2.644 1.096 10.574 4.584 14.811 6.517 1.288.587 3.333 1.507 4.55 2.044a638.82 638.82 0 014.677 2.106c1.356.622 3.52 1.532 4.805 2.028 1.287.493 4.795 2.006 7.795 3.362a761.545 761.545 0 006.498 2.913 457.62 457.62 0 015.616 2.57c2.519 1.169 4.886 2.126 5.263 2.126.377 0 .976.352 1.331.785.356.43.979.785 1.382.785.405 0 3.539 1.29 6.966 2.869 3.429 1.579 6.813 3.02 7.517 3.195.708.18 1.285.537 1.285.791 0 .258.33.468.733.468.402 0 2.214.675 4.025 1.497 1.815.823 4.468 2.016 5.896 2.65 3.265 1.447 16.542 8.058 16.891 8.41.14.144 4.415 2.37 9.492 4.946l9.235 4.684 1.678-1.002c2.488-1.481 5.737-3.336 6.554-3.732.393-.195 2.626-1.456 4.961-2.81 2.335-1.352 5.123-2.878 6.192-3.39 3.48-1.663 5.451-.279-34.994-24.566a21869.06 21869.06 0 01-18.708-11.24c-4.431-2.666-8.407-5.042-8.837-5.28-.427-.24-4.054-2.308-8.054-4.6-17.028-9.746-25.512-14.57-26.245-14.916-1.216-.571-5.288-2.891-14.072-8.01-4.453-2.594-8.428-4.879-8.833-5.077-1.257-.609-5.635-3.107-12.953-7.392-3.857-2.257-7.711-4.48-8.559-4.938-.851-.458-1.787-1.124-2.08-1.478-.739-.898-3.436-1.265-4.69-.64zM7.848 250.94c-.259.405-.552 7.151-.655 14.992l-.19 14.258h290.612v-28.613l-25.855-.342c-63.257-.835-263.429-1.061-263.912-.295z" fill="#FCD404"></path>
    <path d="M40.563 181.42c.205-9.054.045-18.107-.146-27.157-.15-7.037-.324-14.078-.696-21.1a18.102 18.102 0 00-2.409-8.135c-1.194-2.064-3.056-2.871-5.151-3.187-2.754-.391-4.759-1.751-5.695-4.428-.936-2.677-.473-5.211 1.497-7.339.828-.893 1.984-.832 3.017-1.022 6.847-1.256 13.791-1.733 20.687-2.588 4.135-.516 8.326-.628 12.492-.746 7.31-.204 14.595-.764 21.898-.556 5.18.147 10.345-.083 15.514-.154 7.125-.074 14.246.392 21.305 1.395 4.055.56 8.243 1.328 11.863 3.377 5.51 3.111 10.693 6.743 14.567 12.079 3.669 5.052 6.495 10.568 9.05 16.263.741 1.658 1.298 3.405 1.907 5.124.079.298.226.571.43.797.203.226.458.397.74.499 1.295.495 1.518 1.313.776 2.511-.247.402-.425.718-.233 1.231a73.31 73.31 0 014.027 15.933c.891 6.201 1.392 12.43.606 18.746a84.265 84.265 0 01-2.165 11.58 36.427 36.427 0 01-1.539 4.694 24.263 24.263 0 00-1.514 5.382c-1.441 8.103-5.994 14.117-12.297 18.897a58.547 58.547 0 01-13.809 7.687 93.444 93.444 0 01-11.657 3.728c-5.451 1.378-10.975 2.225-16.52 3.022-1.872.269-3.769.445-5.635.717-1.695.259-3.592.122-5.402.169-10.094.28-20.164.172-30.248-.147-1.601-.05-3.112-.201-4.685-.359-5.047-.538-10.143-.621-15.221-.768-3.568-.1-7.133-.258-10.67-.671-1.74-.205-3.567-.671-4.949-2.081a2.891 2.891 0 01-.82-1.431c-.13-.549-.1-1.127.086-1.659.696-2.185 1.74-4.181 3.575-5.645 1.43-1.152 2.944-2.203 4.03-3.771 2.256-3.258 3.213-6.958 3.28-10.859.135-8.253.093-16.507.125-24.76-.004-1.773-.01-3.52-.01-5.268zm38.95 24.76c.543-.093 1.072-.527 1.622-.272 1.312.603 1.462-.194 1.483-1.217 0-.667.052-1.335.045-1.999 0-.567-.425-.807-.734-.398-.912 1.191-2.186 2.128-2.6 3.689-.143.104-.262.222-.063.359.028.029.163-.101.247-.162zm38.556 4.784c.697-.111.791-.775 1.045-1.263 1.639-3.251 3.686-6.269 5.13-9.639-1.952 2.408-3.794 4.916-5.196 7.694-.477.94-1.278 1.963-.951 3.229-.299 0-.459.129-.442.438 0 .058.105.165.129.158.303-.093.219-.395.285-.617zm-57.899-80.74c-1.267.954-2.555 1.88-3.797 2.87-3.324 2.641-6.934 4.92-9.746 8.232-.623.739-1.267 1.726-2.089 1.97-1.64.488-1.462 1.622-1.392 2.824.031.578.16 1.152.198 1.734.077 1.266.634 1.184 1.392.559a4.52 4.52 0 00.801-.681c3.738-4.891 7.77-9.521 11.796-14.157.958-1.105 1.884-2.235 2.82-3.355v-.047l.017.051zm3.648 25.277c2.228-.926 3.596-2.871 5.127-4.615 2.089-2.39 4.177-4.798 6.294-7.177.943-1.051 1.883-1.116 2.485-.054.745 1.321 1.082.614 1.712-.054 2.482-2.619 3.874-5.619 3.178-9.376-.115-.617.387-1.543-.31-1.794-.696-.252-1.044.653-1.43 1.162-.53.718-1.633 1.116-1.392 2.268.195.879-.181 1.496-.672 2.063-2.538 2.947-5.114 5.853-7.658 8.799-2.544 2.946-5.221 5.602-7.386 8.796l-.038.208-.143-.111.233-.115zm21.929 15.272h.282c0 13.539-.017 27.082.02 40.621a37.36 37.36 0 00.526 6.528c.742 4.155 3.791 6.717 8.076 6.879 2.436.09 4.873.029 7.309-.097a2.84 2.84 0 001.567-.563 32.431 32.431 0 007.657-7.956c1.337-1.92 2.729-3.908 3.328-6.179.421-1.719.979-3.4 1.667-5.024.397-.894.978-1.744 1.17-2.681.696-3.412 1.538-6.818 1.827-10.295.708-7.938.885-15.918.529-23.881-.48-9.398-.811-18.8-2.955-27.99-.546-2.34-.672-4.952-2.088-6.854-1.417-1.902-1.765-4.231-2.955-6.212-1.344-2.228-2.695-4.36-4.769-5.924-2.075-1.565-4.379-2.329-6.892-2.896-4.177-.947-8.006-.151-11.737 1.661-1.163.564-1.988 1.285-1.525 2.807a1.29 1.29 0 01-.289 1.381c-.8.664-.745 1.54-.745 2.444-.002 14.739-.003 29.483-.003 44.231zM70.171 206.88c2.053-2.049 4.2-4.008 6.13-6.179 1.447-1.633 3.205-2.053 5.091-1.748 1.32.212 1.327-.283 1.323-1.292-.038-8.476-.045-16.951-.062-25.427 0-2.778 0-5.559-.028-8.34 0-.359.18-.915-.324-1.037-.439-.104-.627.359-.842.718-.286.448-.697.825-.912 1.302-.286.628-1.671 1.052-.749 1.873.776.7.23 1.626.843 2.272 1.427 1.504 1.354 2.422 0 3.98-1.18 1.37-2.27 2.824-3.39 4.248-.206.266-.54.556-.255.933.247.32.547.036.829-.039 1.267-.334 2.394.578 2.158 1.834-.279 1.489-.575 2.982-1.326 4.327-.564 1.009-1.083 2.038-1.608 3.065-.14.269-.349.567-.077.861a.506.506 0 00.696 0c.77-.549 1.483-.718 2.151.172.668.89.467 1.708-.111 2.57-1.803 2.684-4.003 5.07-5.625 7.894-1.452 2.559-3.091 5.035-3.912 8.013zm-7.498-32.016a5.074 5.074 0 002.012-1.026c2.22-1.999 4.413-4.03 6.659-5.997a544.813 544.813 0 017.706-6.588c.759-.639 1.608-.908 2.485-.165.233.197.46.47.79.319.415-.19.268-.617.272-.951.017-1.342 0-2.687 0-4.033l-.045-9.538c0-.399.094-.876-.348-1.077-.484-.233-.672.241-.905.549-.564.74-1.156 1.457-1.664 2.232-.25.381-.72.84-.415 1.328.697 1.138-.052 1.87-.602 2.634-4.316 5.996-8.663 11.967-12.969 17.967-.95 1.357-2.089 2.584-2.976 4.357v-.011zm87.064-31.342c-2.182 1.127-3.912 2.512-5.652 3.887-4.525 3.556-8.556 7.718-13.304 10.959-2.033 1.389-3.957 3.097-6.585 3.229-.749.04-.592.643-.589 1.106.033 3.349.075 6.707.126 10.072 0 .32-.16.794.348.865.452.065.522-.384.696-.685a54.867 54.867 0 015.287-7.794c5.326-6.628 11.525-12.395 17.286-18.592.811-.854 1.883-1.536 2.387-3.036v-.011zm-87.165-34.449c-2.325.19-4.654.359-6.962.578a.995.995 0 00-.584.248c-1.883 1.794-4.153 3.071-6.15 4.718-1.793 1.479-3.586 2.964-5.34 4.493-.971.843-1.716.718-2.555-.233-.898-1.03-.22-1.611.438-2.218.968-.89 1.984-1.726 2.952-2.619.247-.226.898-.359.519-.865-.258-.334-.717-.09-1.045.172a45.64 45.64 0 00-5.677 5.516c-.404.455-.463 1.008.084 1.22 1.528.599 2.088 2.016 2.638 3.333.519 1.206.92 1.098 1.74.334a87.122 87.122 0 0115.862-11.784c1.414-.811 3.04-1.292 4.08-2.878v-.015zm5.876 32.138c-1.96.754-3.83 1.619-5.103 3.083-6.266 7.195-12.507 14.4-18.542 21.796-.651.8-1.045 1.637-.916 2.695.049.377-.153.894.31 1.077.463.183.668-.262.933-.564 1.914-2.196 3.836-4.385 5.764-6.567 4.814-5.465 9.722-10.848 14.142-16.664 1.194-1.586 2.263-3.244 3.412-4.856zm79.431 19.977c-1.257.758-2.106 1.884-3.06 2.871-6.847 7.123-13.401 14.501-18.939 22.783-.564.847-1.19 1.83-2.492 1.59a.54.54 0 00-.259 0 .574.574 0 00-.437.596c-.073 1.076-.132 2.153-.199 3.258.662 0 .784-.424.999-.754a114.794 114.794 0 019.117-12.348c2.464-2.895 5.102-5.608 7.817-8.253.648-.628 1.518-1.195 2.183-.506 1.155 1.199 1.775.402 2.523-.359a20.344 20.344 0 011.602-1.575c.598-.495 1.1-1.375 1.9-1.321 2.015.14 1.946-1.553 2.764-2.87a2.666 2.666 0 00-1.573.843c-.655.621-1.442.764-2.138.226s-.912-1.328-.407-2.257c.282-.546.849-1.048.599-1.931v.007zm.863-5.956l-.292-.284c-.373.298-.728.617-1.118.886a83.019 83.019 0 00-16.485 15.287c-1.319 1.597-2.527 3.294-3.829 4.902-.696.872-1.367 1.963-2.784 1.274-.32-.154-.592.029-.609.448-.094 2.082-.317 4.163-.021 6.334 7.543-10.414 16.189-19.772 25.145-28.855l-.007.008zm-30.137-21.955c.676.033.902-.491 1.205-.829 3.31-3.721 6.537-7.535 9.568-11.483.728-.947 1.462-1.884 2.176-2.838.157-.205.303-.499.077-.718-.275-.287-.439.065-.648.183-4.915 2.821-9.635 5.968-14.372 9.09-.64.42-.895.897-.634 1.794.495 1.69 2.012 2.806 2.291 4.59.017.086.264.161.337.211zm-38.201-13.808c-10.79 5.917-17.104 16.378-24.588 25.654 9.742-6.976 16.506-16.974 24.588-25.654zm75.063 44.195c1.114-.305 1.552-1.076 2.123-1.665.797-.803 1.622-1.058 2.545-.333.999.785.713 1.65.1 2.573-1.91 2.87-4.107 5.572-5.161 8.859.25-.222.588-.498.898-.803 1.945-1.917 3.748-4.019 5.875-5.692 1.274-1.004 1.184-1.884.919-3.179a117.218 117.218 0 00-2.854-11.279c-.662-2.153-.839-2.239-2.364-.674-.348.359-1.013.596-.748 1.259.223.557.818.567 1.34.657 1.667.287 2.127 1.435 1.267 2.896-1.364 2.329-2.684 4.686-3.94 7.381zM50.56 205.696c.821-.876 1.472-1.992 2.816-2.132.226-.025.449-.405.623-.656a515.289 515.289 0 0114.692-19.974c.335-.503.635-1.031.898-1.579a11.54 11.54 0 00-2.346 1.963 73.337 73.337 0 00-7.355 9.029c-.557.793-1.211 1.31-2.206.811-.676-.359-1.045.025-1.372.574a112.146 112.146 0 00-5.757 10.92c-.16.312-.366.631.007 1.044zm82.418-1.794c1.082-.686 1.851-1.906 2.742-2.975a200.82 200.82 0 0113.53-14.86c1.455-1.435 2.155-3.273 3.234-5.192-.7.205-1.32.632-1.772 1.22-.449.498-.964 1.044-1.667.85-1.173-.323-1.741.359-2.322 1.195-2.241 3.176-4.525 6.327-6.791 9.477-2.454 3.391-4.922 6.772-6.954 10.288v-.003zm-26.057-94.628c-.634-.387-1.125-.24-1.591-.298-1.963-.24-3.899.639-5.827.291-3.54-.646-7.097-.226-10.64-.359a1.925 1.925 0 00-1.48.359c-1.904 1.712-4.038 3.154-5.68 5.21 1.409-.38 2.801-.717 4.176-1.144.982-.316 1.814-.226 2.468.61.536.689.978.499 1.51 0 .77-.718 1.275-1.705 2.18-2.286a15.268 15.268 0 018.89-2.447c1.079.036 2.273.043 3.084 1.076.323.42.786.312 1.187.072a40.234 40.234 0 001.723-1.084zm-42.553 97.66a3.177 3.177 0 00-1.34.876c-3.355 3.437-6.481 7.09-9.704 10.654-1.09 1.202-.884 2.723-1.553 3.99 2.054-1.819 3.175-1.554 4.083.596 2.666-5.573 5.587-10.845 8.514-16.116zm15.316-97.559c-.067-.359-.244-.435-.408-.435-2.036 0-4.076-.025-6.112 0-.263.008-.512.12-.696.313-1.988 2.465-4.494 4.306-6.937 6.244-.31.244-.655.448-.348.968.476.847.135 1.5-.477 2.154a3.448 3.448 0 00-1.045 1.794 111.843 111.843 0 0116.04-11.038h-.017zm-35.54 77.952v6.459c0 .384-.145.901.307 1.076.553.212.57-.402.734-.717a105.472 105.472 0 017.968-12.998c.178-.244.47-.513.178-.807-.293-.294-.554.025-.787.197-1.546 1.145-3.088 2.301-4.63 3.449a1.569 1.569 0 01-1.935.147c-1.044-.685-1.131-1.396-.39-2.573.286-.452 1.044-.955.324-1.554a1.775 1.775 0 00-1.357-.251c-.516.111-.415.718-.418 1.145 0 2.131.003 4.281.007 6.427zm110.71 14.562c-.578.122-.766.574-1.093.843-1.771 1.46-2.61 4.123-5.315 4.399-.16 0-.327.28-.435.463-1.086 1.888-2.986 3.276-3.206 5.702-.035.359-.484.718-.748 1.077-1.549 2.045-3.282 3.947-4.424 6.728.595-.585.95-.908 1.281-1.259 3.07-3.23 5.726-6.818 8.392-10.378.553-.739 1.044-1.306 2.022-1.037.498.136.728-.226.895-.589.884-1.945 2.095-3.725 2.631-5.949zm-10.63-58.686c.957-.642 1.893-1.324 2.879-1.923a26.48 26.48 0 015.764-2.771c.633-.197 1.757-.294 1.218-1.543a37.033 37.033 0 00-2.649-5.217c-.205-.327-.414-.635-.814-.291-1.473 1.263-3.098 2.361-4.33 4.12.284-.14.557-.302.818-.485.668-.578 1.354-.908 2.018-.054.665.854.784 1.701.042 2.555-.348.402-.734.765-1.093 1.152-1.336 1.436-2.865 2.677-3.853 4.457zM43.943 225.379c1.841-2.232 3.954-4.149 5.29-6.944 1.275-2.67 3.51-4.848 5.333-7.238 1.768-2.318 3.55-4.625 5.315-6.947.227-.302.582-.693.178-1.059-.404-.366-.696.065-.96.359-.721.833-1.393 1.697-2.141 2.512a88.375 88.375 0 00-13.032 19.313l.017.004zm78.352-79.172c.098-.054.244-.09.313-.183 1.452-1.978 3.78-3.158 4.679-5.645.462-1.285 1.12-2.512 1.695-3.739.111-.241.313-.513.087-.718-.3-.287-.564 0-.777.208a44.89 44.89 0 01-6.825 5.293c-.369.241-.745.578-.627 1.077.237 1.037.526 2.063.829 3.086a.753.753 0 00.212.418.72.72 0 00.414.203zm1.072 12.638c1.392-.807 2.155-1.877 2.854-2.871-.731.137-1.576.65-2.293-.29a1.627 1.627 0 01-.412-1.04 1.632 1.632 0 01.352-1.063 37.53 37.53 0 013.241-3.994c1.942-2.085 3.888-4.181 5.917-6.201.293-.291.766-.718.418-1.134-.453-.52-.842.036-1.177.359-1.858 1.83-3.365 3.947-4.813 6.129-1.02 1.532-1.24 1.597-2.949.933-1.061-.416-2.088.291-2.043 1.36.112 2.566.926 5.01.909 7.812h-.004zm-68.996-33.731c-1.41.753-2.335 1.772-3.25 2.763-2.128 2.307-4.822 3.882-7.115 5.975-1.11 1.011-1.615 2.02-1.194 3.488.094.326-.094.8.306.954.494.187.644-.359.884-.628 2.785-3.227 5.57-6.457 8.354-9.689.73-.839 1.51-1.629 2.019-2.86l-.004-.003zm76.88-.973c3.481-1.686 6.652-3.836 10.474-4.457.776-.125.407-.671.073-.951-1.135-.958-2.308-1.873-3.481-2.795a.704.704 0 00-.91-.102.743.743 0 00-.228.242 7662.86 7662.86 0 00-5.924 8.067l-.004-.004zm10.268 7.023c.094-.012.186-.035.275-.068 2.162-1.152 4.473-1.902 6.753-2.742.574-.208.522-.667.275-1.077a25.039 25.039 0 00-2.628-3.821c-.616-.718-1.044-.463-1.277.359a9.914 9.914 0 01-1.072 2.282c-.829 1.464-1.654 2.932-2.507 4.378-.222.362-.379.617.181.689zm-19.144-15.897c-.518-.255-.901 0-1.274.176a47.897 47.897 0 00-7.309 4.241c-2.089 1.543-2.145 1.436-.585 3.495.484.643.793.618 1.319.076 1.932-1.988 3.905-3.93 5.848-5.907.665-.653 1.528-1.123 2.015-2.067l-.014-.014zm-66.939 72.924c.829.101 1.448-.043 1.887.388.647.628 1.044.316 1.458-.294 1.247-1.777 2.583-3.488 3.791-5.293 1.41-2.114 3.077-4.044 4.177-6.384-3.836 3.653-7.599 7.385-11.313 11.583zm92.794-37.452l.202.226c.449-.251.902-.499 1.347-.757 1.995-1.156 3.951-2.383 5.984-3.456 1.74-.904 1.858-1.077 1.121-2.95-.133-.33-.223-.681-.373-.997-.348-.75-.801-.894-1.361-.183-.738.933-1.469 1.873-2.242 2.77-1.545 1.794-3.115 3.567-4.678 5.347zm-45.399 80.284c-1.445.614-2.437 1.665-3.606 2.387-1.257.767-1.856.717-2.475-.632-.439-.944-1.142-.94-1.689-.606a20.92 20.92 0 00-3.926 3.017c.227.126.348.23.442.234 2.728.115 5.46.057 8.18-.173.218-.013.431-.077.623-.187.191-.109.357-.261.484-.444.734-1.084 1.639-2.071 1.967-3.596zm17.003-12.409c-3.397 5.229-6.982 10.321-10.592 15.395 4.494-4.421 8.761-9.011 10.592-15.395zm-55.511 4.12c2.704-3.696 4.633-7.489 6.502-11.336-2.14 2.286-4.15 4.665-6.15 7.051-.168.201-.366.506-.206.718.776 1.123.111 2.153-.146 3.567zm17.087-1.199l.65-.226c1.456-.524 2.437.255 2.204 1.795a6.877 6.877 0 01-.581 1.625c-.581 1.353-1.434 2.605-1.521 4.306 1.535-.929 2.322-2.444 3.48-3.567.544-.527.561-1.019.192-1.661-.832-1.453-1.685-2.896-2.064-4.579-.084-.359-.101-.926-.748-1.037-.432 1.177-1.337 2.085-1.612 3.344zm52.786-88.143c.78 0 1.009-.499 1.295-.839a48.734 48.734 0 003.512-4.64 30.61 30.61 0 002.231-3.912c.153-.323.376-.717-.265-.739a2.408 2.408 0 00-1.004.146c-.321.12-.615.306-.863.549a2.57 2.57 0 00-.577.859 2.629 2.629 0 00-.194 1.026c0 .632.049 1.288-.526 1.708-1.977 1.432-2.238 3.908-3.609 5.842zm-94.367 92.525c.034-.452.118-.768-.108-.94-.226-.173-.502.032-.662.237-1.74 2.153-3.578 4.23-4.953 6.67-.324.567-.09 1.034.411 1.364 1.062.696 2.123.312 2.593-.911.157-.413.348-.808.522-1.213l2.197-5.207zm102.536-43.937a8.277 8.277 0 001.681-1.353c1.49-1.493 2.956-3.018 4.525-4.407 1.299-1.148 1.278-.951-.034-1.962-.878-.672-1.25-.245-1.626.358-1.476 2.408-3.265 4.604-4.546 7.364zm.606 19.044l.31.308c.908-.89 2.293-1.101 3-2.253 1.459-2.379 2.861-4.798 4.271-7.209.111-.191.306-.485-.195-.747l-7.386 9.901zm-65.122 16.227c1.462-.754 2.336-2.135 3.505-3.165 1.302-1.145 1.49-2.53 1.166-4.109-.062-.323.112-.811-.348-.894-.418-.071-.543.359-.713.664-1.066 1.945-2.162 3.876-3.2 5.835-.26.47-.702.947-.41 1.669zm-10.867 9.843c-2.704 1.794-4.107 4.45-5.76 6.883-.404.595-.091.936.5 1.011.662.087 1.215.026 1.647-.717a77.29 77.29 0 003.613-7.177zm48.581 6.072c2.162-.14 4.104-.88 6.106-1.307.348-.075.539-.434.65-.786a3.88 3.88 0 01.745-1.546c.15-.165.272-.395.112-.596-.227-.287-.442-.054-.672.065-1.74.883-3.404 1.916-5.221 2.648a3.332 3.332 0 00-1.72 1.522zM35.366 111.747c-1.81.233-3.33.298-4.775.671-.784.197-1.156 1.076-.825 1.97.209.563.536 1.36 1.291.879 1.455-.926 3.056-1.687 4.31-3.52zm47.081 13.076v-1.016c0-.265.07-.588-.24-.696a.657.657 0 00-.696.28c-1.086 1.209-2.18 2.408-3.255 3.621-.135.151-.393.359-.25.563.142.205.477.169.717.076.766-.302 1.496-.775 2.283-.905 1.316-.211 1.66-.929 1.441-1.923zM57.232 228.888c-1.74 1.346-3.042 3.075-4.497 4.647-.233.251-.522.546-.299.933.184.312.543.205.839.23.4.032.835.018 1.082-.327 1.212-1.676 2.329-3.42 2.876-5.476v-.007zm70.479 1.077c3.081-.069 5.284-2.279 5.075-4.956-1.716 1.608-3.488 2.989-5.075 4.97v-.014zm31.863-53.827c.171.039.261.093.327.068a.664.664 0 00.334-.187c.822-1.13 1.682-1.453 2.806-.358.473.466.696 0 .679-.463-.039-1.159-.119-2.318-.188-3.478-.018-.272-.08-.559-.366-.653-.348-.107-.557.126-.738.399-.466.699-.953 1.385-1.392 2.088-.557.815-1.305 1.518-1.462 2.58v.004zm-65.821 52.273c-.45-.359-.898-.287-1.305-.384a19.01 19.01 0 01-2.59-.743c-.373-.143-.637-.692-1.11-.323a1.25 1.25 0 00-.443.68 1.28 1.28 0 00.063.816l.463-.251c1.514-.847 2.088-.653 2.631 1.027.195.606.47.495.867.337.568-.23.898-.75 1.424-1.159zm6.22-115.828c-2.068.089-4.024.542-5.587 2.128 1.988-.269 4.118-.144 5.573-2.121l.014-.007zM71.43 231.056c-1.25.933-1.998 2.131-2.872 3.2-.226.277-.794.607-.501.959.42.495 1.13.172 1.716.222.369.029.776-.118.696-.567-.24-1.364.713-2.397.954-3.807l.007-.007zm39.91-115.19c-.988.427-1.786.757-2.572 1.113-.293.136-.867 0-.832.448.056.61.658.894 1.117 1.209a.583.583 0 00.731-.074.617.617 0 00.146-.223c.404-.765 1.111-1.346 1.403-2.469l.007-.004zM44.535 230.137c-1.236.764-1.776 1.794-2.486 2.67-.264.323-.912.717-.379 1.13a.998.998 0 00.81.202.989.989 0 00.393-.17 1.03 1.03 0 00.29-.323c.55-1.022 1.236-2.006 1.372-3.509zM128.4 115.113c1.1-.643 2.207-1.274 3.293-1.935.251-.154.836-.154.571-.674s-.762-.463-1.149-.212c-1.086.711-2.081 1.543-2.715 2.821zm-8.423-2.846l4.017-1.615c-2.332-1.062-2.524-.997-4.017 1.615zm19.068 96.698c-1.532.449-2.357 1.866-3.54 2.806-.227.18-.543.452-.241.765.065.062.141.11.225.14a.604.604 0 00.705-.23c.978-1.145 2.234-2.049 2.851-3.481zm-92.418-51.85c-.95.359-1.588 1.185-2.437 1.669-.599.334-.4.915-.39 1.435 0 .151.129.413.223.424.546.068.644-.492.905-.8a13.65 13.65 0 001.699-2.728zm31.327-25.442c-.961.097-1.758.621-2.517 1.188-.265.201-1.044.298-.557.894.306.38.971.642 1.35.1.54-.771 1.417-1.256 1.724-2.182zm84.885 55.715c-1.044.319-1.218 1.234-1.608 1.945-.164.297-.56.746.045.99.501.205.961.079 1.097-.563.153-.74.299-1.482.466-2.372zm-87.771 48.103c.47-.093 1.177.204 1.264-.564a8.382 8.382 0 01.567-2.153c.108-.28.198-.653-.129-.836-.327-.183-.501.219-.73.384-.756.539-.902 1.486-1.414 2.182-.192.262-.77.291-.602.718.167.427.689.176 1.044.269zm6.08 0h.502c.72-.018.884-.589 1.044-1.141.08-.251.22-.596-.031-.718-.564-.301-.752.427-1.18.56a1.783 1.783 0 00-.529.359c-.25.204-.773.265-.623.717.15.453.609.187.818.216v.007zM43.63 208.524c0 .606-.021.879 0 1.144.031.33-.13.819.348.894.348.061.386-.395.504-.668l1.045-2.44c.087-.208.167-.43 0-.628-.167-.197-.348-.043-.571 0-1.013.298-1.525.905-1.326 1.698zm59.963-93.07c1.267.387 1.413.283 1.629-1.167-1.058.241-1.058.241-1.629 1.167zm-59.041 82.279c-.616.162-.585.718-.536 1.156.056.541-.404 1.46.432 1.532.741.064.762-.973.985-1.518.222-.545-.341-.919-.881-1.17zm55.118 31.144a.594.594 0 00-.253-.464.552.552 0 00-.513-.063c-.591.129-1.514-.327-1.58.818-.024.42.035 1.016.63.944.745-.09 1.278-.625 1.716-1.235zm15.643-119.136c-.254-.632-.839-.463-1.306-.434-.532.035-1.281 1.23-.971 1.435.578.377 1.003-.312 1.539-.359.334-.032.696-.143.738-.657v.015zm-71.944 18.527c.07-.395-.15-.499-.435-.492-.373 0-.819-.028-.902.495a.66.66 0 00.083.51.62.62 0 00.422.28c.532.072.647-.441.832-.793zm224.163-4.943c-.039 4.774.03 9.557-.665 14.281-.366 2.499-.762 5.016-1.997 7.247-1.431 2.613-3.581 2.92-5.818 1.021-1.784-1.514-2.699-3.534-3.451-5.741-1.518-4.544-2.849-9.186-5.456-13.238-2.369-3.677-5.531-5.965-9.478-7.343a41.27 41.27 0 00-10.601-2.103c-3.468-.257-6.886.061-10.168 1.378-.841.375-1.649.827-2.416 1.353-.333.222-.789.536-.882.9-.633 2.438-2.27 4.309-3.152 6.604-.36.936-.666 1.75.512 2.307.259.116.469.329.591.599.123.27.149.578.075.868-.333 1.196.27 1.956.949 2.688a102.302 102.302 0 0010.317 9.639 178.642 178.642 0 0015.354 11.114c3.994 2.62 8.084 5.073 12.165 7.54 4.513 2.727 9.259 4.998 13.602 8.05 3.661 2.56 5.905 6.13 6.743 10.889a79.963 79.963 0 011.222 15.94c-.193 7.908-2.916 14.802-7.322 20.999-4.131 5.798-9.576 9.786-15.643 12.853-4.284 2.163-8.784 3.641-13.357 4.958-8.284 2.389-16.675 3.031-25.188 2.524-.084 0-.18-.039-.247 0-1.484.736-2.719.197-4.063-.617-1.695-1.028-3.725-1.071-5.565-1.832a39.542 39.542 0 01-7.802-4.355c-1.205-.853-2.273-.8-3.485-.1-2.246 1.296-4.173 3.067-6.17 4.723a7.701 7.701 0 01-3.402 1.524c-1.135.254-1.977-.421-2.606-1.428-1.038-1.645-1.248-3.57-1.511-5.447a137.634 137.634 0 01-1.298-23.47c.14-4.145.586-8.261 1.062-12.374.076-.657.269-1.26.905-1.471.317-.118.661-.129.984-.03.323.099.609.303.82.584 1.252 1.503 2.157 3.266 3.162 4.948 2.06 3.445 3.994 6.983 6.191 10.321 2.289 3.459 4.762 6.754 7.794 9.507 3.299 2.992 7.286 4.43 11.387 5.387 5.245 1.221 10.587 1.892 15.975 1.382 4.913-.464 9.486-1.871 13.24-5.659 4.75-4.791 5.159-10.646 1.684-16.376-3.171-5.226-7.505-9.11-12.424-12.302-5.908-3.831-12.288-6.615-18.555-9.639-6.391-3.095-12.678-6.408-18.392-10.803-5.266-4.049-10.029-8.679-13.367-14.741-3.561-6.462-4.659-13.455-3.082-20.731 1.331-6.069 4.68-10.964 8.917-15.144 4.799-4.734 10.407-7.976 16.525-10.354 8.933-3.466 18.142-4.512 27.561-4.055 5.568.271 11.02 1.449 16.508 2.413 3.693.693 7.482.507 11.1-.546 2.33-.714 4.48-1.853 6.707-2.806 1.165-.5 2.596.186 3.661 1.76 1.258 1.791 1.924 3.98 1.894 6.223-.067 3.402-.044 6.79-.044 10.181zm-29.115 50.909c.665.029 1.228-.471 1.83 0 .762.604 1.451.3 2.197-.121 2.782-1.571 5.598-3.074 8.377-4.641.932-.528 1.508-.093 1.997.65.543.806.333 1.538-.366 2.092-.451.316-.918.604-1.401.86-3.219 1.992-6.46 3.956-9.319 6.519-.247.221-.723.428-.496.796.303.486.632 0 .922-.2a101.917 101.917 0 0110.68-6.804 30.58 30.58 0 013.738-1.739c.722-.286 1.364 0 1.774.807.356.696.316 1.342-.237 1.785-.609.507-.459.678.09 1.107 1.501 1.174 1.408 2.174-.15 3.259-1.038.714-2.213 1.257-3.015 2.371a11.39 11.39 0 001.791-.822 946.716 946.716 0 005.382-3.016c.708-.396 1.554-.418 1.893.314.636 1.371 1.298.828 2.064.296a8.385 8.385 0 011.281-.817c1.139-.504 1.042-1.05.19-1.814-2.114-1.892-4.523-3.277-6.913-4.68-4.659-2.728-9.346-5.355-14.012-8.04-.819-.475-1.425-.664-1.794.55-.096.325-.512.564-.812.792-1.331 1.004-2.703 1.918-3.954 3.01-1.019.889-2.19 1.639-2.979 2.917.176.05.361.056.539.017.178-.039.346-.122.49-.242 2.519-1.535 5.069-3.017 7.578-4.577.859-.532 1.591-.586 2.167.325.576.91.263 1.785-.543 2.42-.998.775-2.063 1.489-3.095 2.232-1.98 1.424-4.097 2.627-5.894 4.394zM176.92 140.44c.998-.971 1.361-2.306 1.997-3.473.759-1.403.948-3.51 3.212-3.256.216.025.472-.322.702-.5 4.25-3.335 8.477-6.701 12.877-9.803 2.527-1.781 5.061-3.552 7.602-5.313.702-.482.839-1.117.462-1.813-.459-.854-.905.032-1.188.217-4.503 3.003-9.745 3.867-14.215 6.909-1.541 1.046-3.248 2.827-3.901 5.208-1.684.475-2.379 1.46-3.062 2.856-.286.586-.865 1.007-1.461.682-.875-.478-1.092.122-1.361.732-.27.61-.499 1.125-.712 1.703a15.126 15.126 0 00-.952 5.851zm80.408-26.579a4.998 4.998 0 00-1.608.632 68.171 68.171 0 00-6.689 4.316c-1.096.768-1.931.357-2.194-1.021a2.816 2.816 0 00-.571-1.3 2.54 2.54 0 00-1.11-.806c-.875-.293-1.764.314-2.622.978 3.221 1.553 6.16 3.27 8.493 5.944.573.657 1.059.504 1.641.125 2.69-1.756 5.399-3.477 8.071-5.266 1.099-.735 2.144-1.374 3.542-.196 0-2.799-.633-5.166-1.445-7.726-.412.814-.479 1.536-.998 1.96-.446.357-.293.714-.1 1.164.666 1.55.539 2.007-.799 2.988-2.15 1.585-4.327 3.106-6.463 4.734-.856.657-1.521.828-2.227-.15s-.543-1.688.313-2.392c.456-.378.942-.739 1.364-1.135 1.052-.978 2.523-1.414 3.402-2.849zm-31.013-4.841c-1.721.136-3.465-.571-4.417 1.471-.086.189-.416.279-.649.357-.539.179-.938.486-.792 1.142.19.832.772.425 1.222.357 1.943-.307 3.697-1.27 5.558-1.87 1.305-.425 1.877-.164 2.223 1.206.187.743.583.714 1.115.675 1.714-.071 3.328-.685 5.023-.924 1.467-.208 2.166.271 2.216 1.849.03.882.333.832.912.657.476-.147.972-.218 1.455-.357.998-.275 1.997-.568 2.995-.864.283-.086.629-.25.626-.568 0-.507-.473-.389-.769-.446-.609-.118-1.242-.136-1.844-.289-4.966-1.257-9.968-2.217-14.874-2.396zm-10.774 40.135c.955.06 1.728-.546 2.57-.875 1.544-.607 3.201-.468 4.749-.982.276-.093.606-.125.702-.475.114-.417-.279-.478-.482-.671-1.781-1.663-3.571-3.313-5.342-4.998-1.771-1.685-1.744-1.678-3.515-.06-1.947 1.785-3.864 3.57-5.794 5.355a4.615 4.615 0 002.24-.357c1.79-.868 3.714-1.236 5.565-1.878.312-.139.662-.148.981-.027.318.121.584.365.746.684.194.297.282.659.246 1.02a1.54 1.54 0 01-.439.943c-.443.466-.918.894-1.421 1.282-.37.325-.756.546-.806 1.039zm-31.865 2.224c.549.493 1.351.182 1.724.775.666 1.049 1.248.599 1.921 0 3.781-3.396 7.582-6.762 11.372-10.147 1.501-1.338 2.996-2.695 4.487-4.044l-.213-.311c-6.816 3.884-12.994 8.807-19.291 13.741v-.014zm13.413 76.499c1.148-.282 1.748-1.003 2.486-1.478.836-.543 1.718-.807 2.397.271.256.407.516.796.975.5.363-.236.975-.357.975-.885 0-.457-.566-.604-.932-.782-3.661-1.785-6.736-4.477-9.565-7.497-.496-.529-.862-.846-1.372-.086-.412.614-.665 1.142.273 1.51.215.096.399.258.529.465.13.206.201.45.204.699.026.639.356 1.039.729 1.482.858 1.024.778 1.606-.13 2.613-.975 1.071-2.27 1.785-3.345 3.331 1.717-1.071 3.142-1.9 4.523-2.81.792-.521 1.604-.982 2.38-.218.832.836.655 1.835-.127 2.899v-.014zm7.562-82.686a1.055 1.055 0 00-.589-.074c-.199.032-.386.12-.543.256-1.271.828-2.569 1.617-3.844 2.442a196.406 196.406 0 00-10.926 7.618c-.899.679-.44 1.371-.38 2.1.053.671.499.714.999.692.715 0 1.331-.075 1.394-1.071.03-.628.546-.878.929-1.185 2.023-1.617 4.103-3.16 6.104-4.812 2.273-1.889 4.646-3.656 6.856-5.966zm61.367 45.186a2.966 2.966 0 001.754-.75c.756-.596 1.511-.821 2.21 0 .699.822.862 1.611-.04 2.421-.333.293-.549.646 0 1.071 1.704 1.257 1.664 1.931 0 3.341-1.464 1.239-2.882 2.539-4.297 3.842-.243.228-.792.453-.499.917.24.382.729.132 1.035-.028 1.515-.807 2.996-1.725 4.52-2.499.905-.446 1.162-1.103 1.182-2.096a74.917 74.917 0 00-.636-12.117c-.383-2.631-.489-2.699-2.476-1.121-.067.054-.12.14-.193.168-1.032.436-.793.871-.11 1.532 1.188 1.146 1.105 1.81-.087 2.934-.752.714-1.797 1.103-2.363 2.385zm-54.115-35.672a46.938 46.938 0 00-8.577 4.698c-1.687 1.132-3.328 2.357-4.965 3.545-.2.143-.47.286-.413.607.043.264.293.307.492.289.916-.085 1.705.065 2.33.929.287.396.576-.065.819-.275 1.757-1.557 3.555-3.063 5.259-4.688 1.704-1.624 3.578-3.134 5.055-5.105zm-5.272-3.466l-6.134 3.123c-2.882 1.464-5.435 3.57-8.374 4.92a.457.457 0 00-.195.112.503.503 0 00-.145.433c.011.079.04.154.084.219a.493.493 0 00.339.273.472.472 0 00.413-.105l1.332-.743c.998-.55 1.963-1.021 2.972 0 .439.439.742-.021 1.062-.285 1.547-1.275 3.121-2.499 4.639-3.828 1.411-1.245 3.085-2.199 4.007-4.119zm-10.737-16.519l-.253-.303c-2.409 1.681-4.949 3.159-6.989 5.433-1.205 1.346-2.54 2.56-3.801 3.852-.868.893-1.72 1.802-2.556 2.728-.453.503-.786 1.299-.353 1.763.433.464.816-.357 1.162-.692 3.082-3.047 6.158-6.095 9.229-9.147 1.212-1.196 2.38-2.409 3.561-3.634zm-15.283 87.466c.053.382-.057.861.333 1.089.432.264.665-.182.942-.428 2.692-2.421 5.325-4.923 8.22-7.076.806-.6.526-1.132.067-1.757-.459-.624-.939-.96-1.634-.267a894.941 894.941 0 01-7.426 7.283c-.17.126-.307.299-.395.5a1.343 1.343 0 00-.107.646v.01zm80.478-83.639c-.892-.396-1.694-.653-1.781-1.485-.126-1.235-1.108-2.228-.795-3.57.093-.4-.256-.614-.496-.86-1.418-1.428-1.295-2.364.396-3.363 1.811-1.071 3.604-2.175 5.405-3.267.373-.225.779-.5.566-1.028-.273-.675-.739-.204-1.045-.036-1.332.714-2.623 1.51-3.931 2.271-1.088.628-2.137 1.385-3.285 1.831-.719.282-.942.428-.666 1.246 1.202 3.449 2.347 6.915 3.528 10.375.113.287.266.554.453.792a.454.454 0 00.254.184.43.43 0 00.432-.127.417.417 0 00.05-.467c-.433-1.025-.144-1.803.915-2.507v.011zm-37.387 46.486c-.765-1.168-.709-2.142.207-3.074.499-.511.213-.789-.35-.796-1.078 0-2.16 0-3.242.018a1.305 1.305 0 01-.947-.259 1.487 1.487 0 01-.547-.869c-.107-.39-.147-.868-.636-.85-1.664.057-3.328.157-4.992.243 3.325 2.334 6.939 3.795 10.507 5.587zm-23.121-49.981c2.559-1.303 5.128-2.499 7.695-3.709.189-.094.348-.245.456-.436.109-.191.162-.412.153-.635.073-1.375.203-2.746.296-4.12.023-.318.249-.796-.26-.864a.58.58 0 00-.523.192.655.655 0 00-.147.261.71.71 0 00-.022.304c.07.946-.506 1.456-1.052 2.003-1.607 1.606-3.235 3.191-4.816 4.826-.642.661-1.418 1.207-1.78 2.174v.004zm13.809 25.504c-.187.072-.38.129-.56.218a69.29 69.29 0 00-9.745 6.098c-.902.657-.316 1.039-.123 1.567.333.853.786.546 1.272.175 1.624-1.232 3.328-2.378 4.865-3.709 1.538-1.332 3.182-2.503 4.291-4.352v.003zm1.75 14.745c1.199-.764 2.393-1.557 3.612-2.303a68.89 68.89 0 006.084-4.355c.263-.204.635-.386.332-.829a.659.659 0 00-.406-.289.627.627 0 00-.482.086c-.153.068-.313.128-.459.203-2.453 1.289-4.793 2.792-7.14 4.284-1.185.739-2.659 1.332-1.541 3.203zm53.885 30.552c-3.238 2.892-6.403 5.848-9.698 8.676a20.192 20.192 0 003.115-1.461c1.158-.642 2.2-1.631 3.661-1.249.31.082.559-.182.722-.439a16.72 16.72 0 002.184-5.527h.016zm-51.126-39.709c-.276-.115-.402.135-.589.189-3.025.899-5.658 2.752-8.453 4.155-.769.382-1.332 1.978-.872 2.499.665.761 1.331.15 1.867-.264 2.736-2.095 5.674-3.934 8.047-6.579zm19.85 23.205c-1.447.557-2.965.917-4.28 1.831-.273.193-.412.407-.043.714a47.829 47.829 0 015.458 5.238c.243.278.483.478.849.153.366-.325.26-.642 0-.896-1.055-.978-.702-1.835.137-2.699.242-.285.464-.59.665-.91-.842.21-1.541.66-2.28 1.01-.808.382-1.664.464-2.24-.425-.575-.889-.309-1.674.403-2.385.466-.467 1.118-.771 1.331-1.627v-.004zm-53.628 17.893c1.138 1.567 1.078 2.288-.366 3.766a2357.654 2357.654 0 01-4.237 4.32.974.974 0 00-.35.617c-.037.247.016.499.15.704.333.514.666.075.925-.171 1.897-1.857 3.771-3.742 5.658-5.602.393-.385.553-.764.233-1.271a10.948 10.948 0 00-2.013-2.363zm37.103 21.799a1.457 1.457 0 00-.998-.382c-.892-.104-1.707.357-2.686.1-2.3-.579-4.686-.679-7.053-.779-.236 0-.562-.046-.592.315-.03.36.286.382.529.403.423.039.865.093 1.128.475 1.072 1.553 2.37 1.506 3.805.685.206-.153.441-.254.689-.296.998 0 1.95-.971 2.995-.307.736.468 1.398.407 2.183-.214zm42.177-109.758c-1.465.421-2.36 1.239-3.329 1.867-2.24 1.428-4.453 2.913-6.676 4.377-.333.207-.752.443-.433.907.32.464.619-.043.849-.2a47.717 47.717 0 015.991-3.47c1.491-.758 2.742-1.968 3.598-3.481zm-21.704 41.32c.016-.843-.626-.878-.999-1.139-2.592-1.742-2.592-1.742-4.16-.314-.063.057-.133.107-.193.168-.213.217-.436.453-.35.799.107.436.466.461.806.45.666-.021 1.331 0 1.691.793.209.482.382 1.124 1.045.785a8.276 8.276 0 002.16-1.542zm5.728 44.69c-.972.4-1.664.896-2.41.946-.998.075-1.072.621-.925 1.403.348 1.742.494 3.524.436 5.305-.02.411-.19 1.01.383 1.107a.844.844 0 00.658-.189.948.948 0 00.229-.28 1 1 0 00.111-.352c.196-1.253 1.168-1.785 1.917-2.499.24-.24.523-.429.769-.664.176-.165.439-.357.21-.647-.167-.203-.38-.05-.546.086-.167.136-.253.236-.393.328-.899.59-1.614.404-2.24-.524-.626-.929-.333-1.543.333-2.203.469-.478 1.105-.782 1.468-1.817zm-15.337 22.72c-.03 1.16.293 1.549.998 1.135 1.748-1.018 3.462-2.099 5.193-3.142.379-.228.409-.492.199-.874-.209-.382-.429-.418-.719-.2-1.561 1.16-3.434 1.528-5.132 2.345-.309.154-.636.25-.539.736zm-2.06-72.24a13.598 13.598 0 001.611-.122c.582-.107 1.487.282 1.684-.378.263-.878-.826-.911-1.265-1.385a6.732 6.732 0 00-.686-.568.793.793 0 00-.932-.161c-.998.607-1.997 1.253-2.995 1.889-.216.139-.446.321-.333.628.113.307.42.243.666.229.759-.036 1.504-.09 2.25-.132zm13.17 47.96c.306.025 2.636-2.053 2.499-2.224a11.22 11.22 0 00-1.963-2.142c-.393-.293-2.084 1.042-2.14 1.51-.04.342 1.354 2.834 1.604 2.856zm-18.146-28.204c-1.145-.118-2.27-1.071-3.435.132-.366.379-.819.497-.629 1.189.19.693.523 1 1.162.95.782-.057 1.617.025 2.33-.25.665-.25.069-1.271.549-1.785.043-.039.016-.154.023-.232v-.004zm-39.989-40.298c-2.48 1.567-4.993 2.591-5.302 5.526 1.71-1.367 3.657-2.988 5.302-5.526zm19.999-12.185c.19-.114.376-.214.546-.336.999-.714 1.937-1.524 2.979-2.142 1.098-.66 1.331-1.863 1.824-2.906a.556.556 0 000-.621.352.352 0 00-.281-.121.355.355 0 00-.268.15 930.662 930.662 0 00-5.079 5.276.408.408 0 00-.154.278.416.416 0 00.084.311c.08.082.226.086.349.125v-.014zm12.541 39.317c2.14-.553 3.841-1.785 5.791-2.242-2.536-.86-4.08-.257-5.791 2.242zm-12.687-22.034c1.481-.714 2.965-1.393 4.443-2.1a.373.373 0 00.127-.093.405.405 0 00.082-.141.44.44 0 00-.019-.323c-.143-.399-.413-.324-.716-.242-1.581.453-3.012 1.171-3.917 2.909v-.01zm23.028 21.456c.983-.6 1.913-1.295 2.776-2.078.353-.293.406-.714-.09-.714-.935-.018-1.96-.064-2.782.314-.563.257.253 1.139.076 1.785a2.51 2.51 0 00.02.703v-.01zm2.307 22.93l-.26-.357c-1.088.564-2.197 1.092-3.258 1.71-.266.157-.856.45-.566.85.29.4.998.924 1.501.503a33.075 33.075 0 002.583-2.695v-.011zm-38.539-17.318c.773.985 1.804 1.313 2.577 2.02.223.204.512.443.778.218.476-.403.313-1.071.41-1.61a.537.537 0 00-.097-.446.442.442 0 00-.396-.172c-1.028-.025-2.057-.01-3.272-.01zm15.311 66.852c.332-.021.825.097.642-.357-.206-.521-.446-1.224-1.055-1.324-.609-.1-1.039.618-.999.975.077.914.989.414 1.415.706h-.003zm-27.126-34.086c-.04 1.071-.539 1.892.233 2.499a.591.591 0 00.488.057.65.65 0 00.377-.336c.247-.899-.356-1.428-1.095-2.22h-.003zm10.091-33.83c.629-.182.333-.832.56-1.203.163-.282.136-.522-.217-.557a.907.907 0 00-.651.165 1.03 1.03 0 00-.394.581c-.106.471.449.653.706 1.014h-.004zm13.646 7.882c.057-.357-.109-.41-.332-.389-.393.036-.743.147-.779.643a.507.507 0 00.131.424.443.443 0 00.398.129c.483-.035.483-.521.599-.807h-.017zm-.675 56.95c.05-.357-.12-.514-.333-.439-.599.21-1.331.357-1.534 1.071-.084.285.446.468.762.489.755.05.865-.664 1.105-1.121zm2.539-2.428c.242-.046.468-.159.658-.326a1.55 1.55 0 00.424-.63c.123-.49-.473-.468-.805-.565-.427-.121-.763-.032-.709.55.033.361-.09.829.422.971h.01zm-1.874 1.714c-.036-.071-.063-.179-.109-.189a.218.218 0 00-.11.017.247.247 0 00-.09.068c-.067.136 0 .243.14.236.06-.004.113-.086.169-.132zm.816-107.234c-.023-.028-.043-.078-.07-.082-.027-.003-.057.043-.087.064.024.033.047.083.074.086.026.004.056-.043.083-.068z" fill="#fff"></path>
    <path d="M101.32 259.558c-.212-.026-.371-.128-.371-.241 0-.167.652-.198 4.267-.198h4.267v.976c0 1.061-.229 1.263-.443.391-.194-.785-.307-.816-3.037-.816h-2.481v6.057h1.81c2.186 0 3.067-.104 3.067-.363 0-.103.091-.188.203-.188.153 0 .203.168.203.68 0 .73-.171.992-.388.597-.119-.217-.407-.25-2.529-.29l-2.394-.046.052 2.73c.071 3.739-.094 3.572 3.469 3.535 2.304-.024 2.645-.129 2.805-.869.174-.803.476-.5.476.477v.895h-4.674c-4.272 0-5.319-.081-4.33-.333.574-.146.605-.487.589-6.456-.019-6.38-.027-6.476-.561-6.538zm27.601-.026c-.211 0-.338-.078-.338-.206 0-.444 2.61-.284 2.805.171.088.209.536 1.277.994 2.375.458 1.099.942 2.244 1.074 2.547.229.521.535 1.247 1.536 3.648.238.568.533 1.249.659 1.515l.227.481.298-.688c.163-.379.404-.937.537-1.239.132-.303.399-.937.593-1.408.194-.471.498-1.184.676-1.583a162 162 0 001.096-2.582c.426-1.02.931-2.213 1.122-2.65l.349-.794h1.14c1.078 0 1.556.245.767.393-.776.146-.852.568-.521 2.911.183 1.295.358 2.566 1.066 7.778.277 2.03.303 2.119.689 2.298.631.292.334.386-1.223.386-1.542 0-1.842-.083-1.253-.346.385-.171.381-.325-.089-3.715-.2-1.439-.484-3.545-.632-4.681-.148-1.135-.284-2.116-.303-2.18-.018-.063-.471.928-1.005 2.203a648.972 648.972 0 01-2.011 4.727 278.522 278.522 0 00-1.349 3.166c-.427 1.046-.535.978-1.304-.826l-1.262-2.96c-2.76-6.477-2.765-6.488-2.78-6.125a44.27 44.27 0 01-.208 1.652c-.11.794-.354 2.591-.542 3.992-.189 1.401-.405 2.97-.481 3.487-.143.975-.045 1.331.367 1.331.102 0 .187.061.187.137 0 .081-.452.138-1.084.138-.632 0-1.084-.057-1.084-.138 0-.076.124-.137.274-.137.349 0 .496-.358.676-1.652.686-4.907.853-6.12 1.102-8.012.352-2.679.188-3.414-.765-3.414z" fill="#0C4DAF"></path>
    <path fill-rule="evenodd" clip-rule="evenodd" d="M66 259.303c0 .128.146.228.37.255.553.064.6.655.552 6.922-.044 5.8-.08 6.13-.656 6.13-.147 0-.266.061-.266.137 0 .185 7.61.179 8.868-.006 6.772-.995 7.651-11.022 1.157-13.185-1.311-.437-10.025-.657-10.025-.253zm11.664 10.668c2.57-3.837.833-8.432-3.74-9.889-.749-.238-1.411-.317-3.156-.376l-2.209-.076.041 5.705c.032 4.382-.023 5.998.716 6.59.49.393 1.331.334 2.78.335 3.102.002 4.386-.526 5.568-2.289zm6.25-10.68c.031.095.173.194.316.221.103.02.187.033.258.073.347.197.34 1.037.34 6.424 0 5.4.003 6.382-.37 6.561-.084.041-.188.04-.316.04-.144 0-.261.061-.261.137 0 .086.7.138 1.829.138 1.718 0 2.332-.138 1.43-.322-.578-.117-.684-.683-.685-3.636l-.001-2.512h2.3l.357.585c1.26 2.063 3.17 4.765 3.731 5.282 1.05.963 4.062.956 4.852-.012.278-.34.066-.404-.535-.159-1.847.75-2.98-.242-6.395-5.606l-.425-.668.463-.364c2.485-1.96 2.387-5.16-.187-6.08-.946-.337-6.807-.427-6.7-.102zm6.523 5.469c1.135-1.276.518-3.965-1.089-4.749-.34-.166-.939-.276-1.708-.315l-1.186-.06v6.261l1.32-.098c1.518-.113 2.01-.304 2.663-1.039zm28.109-5.4c-.354.949-2.452 6.327-2.563 6.573-.069.151-.374.926-.678 1.721a66.564 66.564 0 01-.734 1.858c-.1.227-.224.555-.275.728-.321 1.08-.922 2.132-1.3 2.277-.654.251-.458.368.618.368.945 0 1.292-.138.814-.325-.233-.09-.145-.363 1.229-3.837l.802-2.03 1.91-.001 1.91-.001.352.86c1.985 4.855 1.993 4.877 1.667 5.003-.559.219-.082.331 1.408.331.993 0 1.626-.053 1.626-.138 0-.076-.097-.137-.214-.137-.371 0-.952-.731-1.258-1.585a21.897 21.897 0 00-.423-1.1c-.149-.321-1.818-4.5-2.201-5.506a29.834 29.834 0 00-.444-1.102 92.022 92.022 0 01-.752-1.858l-.776-1.962c-.243-.609-.521-.663-.718-.137zm.829 5.059a43.177 43.177 0 01-.547-1.373 25.408 25.408 0 00-.449-1.127c-.016-.016-.204.416-.419.961a92.09 92.09 0 01-.566 1.401c-.097.228-.296.739-.441 1.136l-.265.723h3.357l-.273-.723c-.15-.397-.329-.847-.397-.998z" fill="#0C4DAF"></path>
    <path d="M161.526 263.825c-.645-1.928.518-4.183 2.398-4.649.51-.127 2.501-.099 3.169.043.651.139.672.16 1.013.981.43 1.037.324 1.089-.633.314-2.161-1.751-5.249-.771-5.249 1.666 0 1.254.564 1.763 2.857 2.58 2.01.716 2.446.957 3.163 1.751 1.392 1.54 1.194 3.862-.453 5.335-.844.755-.898.766-4.104.855l-2.687.074.002-2.08c.001-1.393.045-2.012.134-1.876.073.112.132.405.134.651.013 2.914 5.336 3.767 6.747 1.081.843-1.606-.267-3.013-3.122-3.956-2.026-.67-2.91-1.396-3.369-2.77zm10.908 3.506c-.478-3.771 1.687-7.044 5.324-8.05 2.038-.563 6.023.021 6.42.941.643 1.487.625 1.517-.45.714-3.96-2.962-9.65-.849-9.914 3.681-.36 6.171 6.522 10.13 11.408 6.562.862-.63.949-.539.376.392l-.456.739-1.795.352c-6.131 1.2-10.346-.859-10.913-5.331zm17.094-7.688c-.213-.025-.373-.125-.373-.237 0-.158.323-.194 1.768-.194 1.48 0 1.768.034 1.768.203 0 .126-.128.203-.335.203-.552 0-.617.344-.617 3.239v2.714h7.376l-.052-2.756c-.055-2.896-.107-3.137-.692-3.223-.158-.022-.311-.117-.342-.211-.043-.13.377-.169 1.802-.169 1.81 0 2.498.208 1.349.408l-.396.069-.035 6.177c-.039 6.656-.044 6.606.657 6.606.144 0 .262.061.262.135 0 .084-.703.136-1.837.136-1.717 0-2.343-.136-1.445-.315.548-.109.588-.317.66-3.508l.065-2.807h-7.372v2.879c0 3.071.081 3.48.687 3.48.146 0 .265.061.265.135 0 .084-.68.136-1.768.136-1.089 0-1.768-.052-1.768-.136 0-.074.115-.135.255-.135.555 0 .565-.127.528-6.578l-.035-6.208-.375-.043zm50.4-.025c-.19 0-.313-.081-.313-.207 0-.246 3.646-.242 3.707.004.018.075-.13.155-.33.177-.671.077-.668.047-.627 5.955.048 6.95-.082 6.674 3.167 6.699 2.301.017 2.808-.309 3.099-1.999.234-1.358.369-1.062.369.804v1.692h-4.692c-3.038 0-4.693-.048-4.693-.136 0-.074.118-.135.263-.135.693 0 .689.03.689-6.477 0-6.41.004-6.377-.639-6.377z" fill="#0C4DAF"></path>
    <path fill-rule="evenodd" clip-rule="evenodd" d="M210.642 259.211c-1.082.27-1.989.764-3.106 1.692-1.367 1.137-2.459 3.696-2.465 5.778-.025 8.04 11.936 8.53 13.813.567 1.084-4.596-1.469-8.062-5.987-8.13-.977-.014-1.991.027-2.255.093zm5.703 3.058c-.944-1.027-1.713-1.53-3.223-2.106-.725-.276-2.465-.365-3.09-.157-4.251 1.418-5.099 6.775-1.616 10.214 5.581 5.51 13.24-2.17 7.929-7.951zm11.547-3.001c-1.421.406-2.983 1.576-4.089 3.063-2.696 3.623-.868 9.337 3.332 10.423 6.176 1.596 11.584-4.867 8.804-10.521-1.215-2.471-4.952-3.848-8.047-2.965zm4.57 12.273c4.618-2.261 4.043-8.532-1.008-11.005-2.356-1.154-4.495-.824-6.254.964-4.401 4.474 1.623 12.802 7.262 10.041z" fill="#0C4DAF"></path>
  </symbol>
</svg>