<svg width="60" height="60" viewBox="0 0 60 60" fill="none" xmlns="http://www.w3.org/2000/svg">
<g clip-path="url(#clip0)">
<g filter="url(#filter0_d)">
<path d="M29.982 11.0818C29.01 11.0818 28.2219 10.2937 28.2219 9.32168V1.76016C28.2219 0.788086 29.01 0 29.982 0H41.3488C42.3209 0 43.109 0.788086 43.109 1.76016C43.109 2.73223 42.3209 3.52031 41.3488 3.52031H31.742V9.3218C31.742 10.294 30.954 11.0818 29.982 11.0818Z" fill="#4A696F"/>
<path d="M41.3488 3.5202H28.2219C28.2219 2.60051 28.2219 2.73211 28.2219 1.76004C28.2219 0.787969 29.01 0 29.982 0H41.3488C42.3209 0 43.109 0.788086 43.109 1.76016C43.109 2.73223 42.3209 3.5202 41.3488 3.5202Z" fill="#1930DC"/>
<path d="M17.7374 60.0001H1.5613C0.726344 60.0001 0.049469 59.3232 0.049469 58.4884V26.1031C0.049469 25.2682 0.726461 24.5913 1.5613 24.5913H17.7374V60.0001Z" fill="#FFBD00"/>
<path d="M58.4387 60H42.2626V24.5911H58.4387C59.2737 24.5911 59.9504 25.2681 59.9504 26.1029V58.488C59.9504 59.323 59.2737 60 58.4387 60Z" fill="#FF8B00"/>
<path d="M40.673 10.9258C41.5532 10.9258 42.2666 11.6393 42.2666 12.5194V18.4688V60.0003" fill="#FFDA2D"/>
<path d="M42.2626 60.0003H17.7374V26.4V60.0003V18.3742V12.5194C17.7374 11.6392 18.4508 10.9258 19.331 10.9258H40.673" fill="#FFDA2D"/>
<path d="M10.0875 40.1334H7.60219C7.24524 40.1334 6.9559 39.844 6.9559 39.487V31.4455C6.9559 31.0885 7.24524 30.7991 7.60219 30.7991H10.0876C10.4446 30.7991 10.7339 31.0885 10.7339 31.4455V39.487C10.7339 39.8441 10.4446 40.1334 10.0875 40.1334Z" fill="#CCF7FF"/>
<path d="M10.0875 53.7807H7.60219C7.24524 53.7807 6.9559 53.4914 6.9559 53.1344V45.0928C6.9559 44.7359 7.24524 44.4465 7.60219 44.4465H10.0876C10.4446 44.4465 10.7339 44.7359 10.7339 45.0928V53.1344C10.7339 53.4915 10.4446 53.7807 10.0875 53.7807Z" fill="#CCF7FF"/>
<path d="M52.255 40.1334H49.7694C49.4125 40.1334 49.1231 39.844 49.1231 39.487V31.4455C49.1231 31.0885 49.4125 30.7991 49.7694 30.7991H52.255C52.6119 30.7991 52.9013 31.0885 52.9013 31.4455V39.487C52.9013 39.8441 52.6119 40.1334 52.255 40.1334Z" fill="#80EAFF"/>
<path d="M52.255 53.7807H49.7694C49.4125 53.7807 49.1231 53.4914 49.1231 53.1344V45.0928C49.1231 44.7359 49.4125 44.4465 49.7694 44.4465H52.255C52.6119 44.4465 52.9013 44.7359 52.9013 45.0928V53.1344C52.9013 53.4915 52.6119 53.7807 52.255 53.7807Z" fill="#80EAFF"/>
<path d="M29.9143 10.9258V60.0003H42.2667V12.5194C42.2667 11.6392 41.5532 10.9258 40.6731 10.9258H29.9143Z" fill="#FFBD00"/>
<path d="M29.9752 39.635C26.4268 39.635 23.5505 42.5109 23.5505 46.0592V60.0002H36.4001C36.4001 60.0002 36.4001 49.5449 36.4001 46.0597C36.4001 42.5113 33.5236 39.635 29.9752 39.635Z" fill="#4A696F"/>
<path d="M29.9752 39.635C29.9548 39.635 29.9346 39.6363 29.9141 39.6365V60.0002H36.4C36.4 60.0002 36.4 49.5449 36.4 46.0597C36.4001 42.5113 33.5236 39.635 29.9752 39.635Z" fill="#293939"/>
<path d="M35.6653 27.2643C35.6653 30.4456 33.0865 33.0246 29.9052 33.0246C26.7239 33.0246 24.145 30.4456 24.145 27.2643C24.145 24.0831 26.7239 21.5042 29.9052 21.5042C33.0865 21.5042 35.6653 24.0832 35.6653 27.2643Z" fill="#E6FBFF"/>
<path d="M29.9143 21.5049V33.025C33.0913 33.02 35.6654 30.4431 35.6654 27.2649C35.6653 24.0868 33.0913 21.5098 29.9143 21.5049Z" fill="#CCF7FF"/>
<path d="M49.4951 13.3259L30.4317 7.63306C30.4305 7.6327 30 7.44684 29.4014 7.62602L10.315 13.3259C9.38356 13.6041 8.85399 14.5846 9.13207 15.516C9.36 16.2796 10.0598 16.773 10.8178 16.773C10.9846 16.773 11.1543 16.7491 11.3222 16.6989L29.9051 11.1496L48.4877 16.6989C48.6559 16.7491 48.8252 16.773 48.9921 16.773C49.7501 16.773 50.4499 16.2795 50.678 15.516C50.956 14.5846 50.4266 13.6041 49.4951 13.3259Z" fill="#FF4B00"/>
<path d="M49.4951 13.3262L30.4317 7.6333C30.4305 7.63295 30.2197 7.54834 29.9143 7.54834V11.1524L48.4879 16.699C48.656 16.7492 48.8254 16.7731 48.9922 16.7731C49.7502 16.7731 50.45 16.2796 50.6781 15.5162C50.9561 14.5849 50.4266 13.6044 49.4951 13.3262Z" fill="#F80000"/>
</g>
</g>
<defs>
<filter id="filter0_d" x="-3.95053" y="0" width="67.901" height="68.0003" filterUnits="userSpaceOnUse" color-interpolation-filters="sRGB">
<feFlood flood-opacity="0" result="BackgroundImageFix"/>
<feColorMatrix in="SourceAlpha" type="matrix" values="0 0 0 0 0 0 0 0 0 0 0 0 0 0 0 0 0 0 127 0"/>
<feOffset dy="4"/>
<feGaussianBlur stdDeviation="2"/>
<feColorMatrix type="matrix" values="0 0 0 0 0 0 0 0 0 0 0 0 0 0 0 0 0 0 0.25 0"/>
<feBlend mode="normal" in2="BackgroundImageFix" result="effect1_dropShadow"/>
<feBlend mode="normal" in="SourceGraphic" in2="effect1_dropShadow" result="shape"/>
</filter>
<clipPath id="clip0">
<rect width="60" height="60" fill="white"/>
</clipPath>
</defs>
</svg>
