<svg width="45" height="45" viewBox="0 0 45 45" fill="none" xmlns="http://www.w3.org/2000/svg">
<g clip-path="url(#clip0)">
<path d="M4.17288 39.7544L30.1394 41.4911C30.6237 41.5236 31.0426 41.1572 31.075 40.6729L33.5704 3.36181C33.6029 2.87745 33.2365 2.45865 32.7522 2.42622L6.78569 0.689497C6.30132 0.657066 5.88252 1.02348 5.85009 1.50776L3.35453 38.8188C3.32218 39.3032 3.68851 39.7221 4.17288 39.7544Z" fill="#FAE19E"/>
<path d="M1.53809 44.3124H21.4137L28.4414 37.3158V6.03906C28.4414 5.55364 28.0479 5.16016 27.5625 5.16016H1.53809C1.05267 5.16016 0.65918 5.55364 0.65918 6.03906V43.4335C0.65918 43.9189 1.05267 44.3124 1.53809 44.3124Z" fill="#FFF9E9"/>
<path d="M27.5626 5.16016H24.047C24.5324 5.16016 24.9259 5.55364 24.9259 6.03906V37.3159L24.9032 40.8384L28.4415 37.3159V6.03906C28.4415 5.55364 28.048 5.16016 27.5626 5.16016Z" fill="#FFF4D6"/>
<path d="M21.4137 44.3125V38.1379C21.4137 37.6525 21.8072 37.259 22.2926 37.259H28.4414L21.4137 44.3125Z" fill="#FFEEC2"/>
<path d="M41.1887 21.8479L38.2556 21.8624V17.3953C38.2556 16.5882 38.9115 15.9308 39.721 15.9268H39.7216C40.5317 15.9227 41.1888 16.5746 41.1888 17.3824V21.8479H41.1887Z" fill="#FED23A"/>
<path d="M39.723 44.3124C38.8123 43.4092 38.2996 42.1799 38.2985 40.8973L38.2931 34.3957C38.2931 34.3391 38.3391 34.293 38.396 34.2926L41.036 34.2795C41.0929 34.2793 41.139 34.325 41.139 34.3816L41.1444 40.8924C41.1455 42.1696 40.6391 43.3949 39.7368 44.2987L39.723 44.3124Z" fill="#54B1FF"/>
<path d="M39.723 41.2501H39.7221C38.4535 41.2564 37.4246 40.2357 37.4246 38.9707V20.2036C37.4246 19.6079 37.906 19.1241 38.5017 19.1212L40.9298 19.1091C41.5297 19.1062 42.0177 19.5917 42.0177 20.1916V38.9506C42.0177 40.2145 40.9905 41.2438 39.723 41.2501Z" fill="#FDF385"/>
<path d="M40.9298 19.1089L38.8407 19.1193C39.3713 19.1887 39.7818 19.6413 39.7818 20.1914V38.9505C39.7818 39.8138 39.3024 40.5674 38.5947 40.9605C38.9278 41.1464 39.3122 41.2521 39.722 41.25H39.7229C40.9904 41.2436 42.0176 40.2143 42.0176 38.9505V20.1914C42.0177 19.5915 41.5297 19.1059 40.9298 19.1089Z" fill="#FAEE6E"/>
<path d="M43.1784 21.7903L36.8841 21.8215C36.242 21.8247 35.7216 22.346 35.7216 22.9859C35.7216 23.6258 36.242 24.1419 36.8841 24.1387L42.0159 24.1132V30.9238C42.0159 31.5637 42.5363 32.0798 43.1784 32.0767C43.8204 32.0735 44.3408 31.5521 44.3408 30.9123V22.9431C44.3408 22.3032 43.8203 21.7871 43.1784 21.7903Z" fill="#54B1FF"/>
<path d="M43.1784 21.7903L39.7998 21.8068L39.7851 24.1193L42.0158 24.1134V30.924C42.0158 31.5639 42.5362 32.08 43.1783 32.0768C43.8203 32.0737 44.3407 31.5523 44.3407 30.9125V22.9432C44.3408 22.3032 43.8203 21.7871 43.1784 21.7903Z" fill="#3DA7FF"/>
<path d="M32.7961 1.76781L6.82972 0.0309994C5.98324 -0.0250748 5.24909 0.61679 5.1924 1.463L4.98929 4.50024H1.53809C0.690029 4.50024 0 5.19027 0 6.03832V43.4328C0 44.2809 0.690029 44.9709 1.53809 44.9709H21.4138C21.586 44.9709 21.7567 44.9005 21.8789 44.7788L24.8793 41.7917C24.9098 41.7982 24.9409 41.8034 24.9729 41.8055L30.0953 42.1481C30.9129 42.2021 31.6778 41.5371 31.7326 40.7161L34.2281 3.40521C34.2843 2.56779 33.6335 1.82379 32.7961 1.76781ZM22.0729 42.7162V38.1371C22.0729 38.016 22.1716 37.9174 22.2927 37.9174H26.8542L22.0729 42.7162ZM30.4172 40.6282C30.3957 40.7609 30.3178 40.8291 30.1834 40.8327L26.1158 40.5606L28.9065 37.7823C29.0308 37.6586 29.1007 37.4905 29.1007 37.3152V6.03841C29.1007 5.19036 28.4106 4.50033 27.5626 4.50033H20.7077C19.8555 4.50033 19.8555 5.81869 20.7077 5.81869H27.5626C27.6838 5.81869 27.7823 5.9173 27.7823 6.03841V36.599H22.2927C21.4446 36.599 20.7546 37.2891 20.7546 38.1371V43.6525H1.53809C1.41697 43.6525 1.31836 43.5539 1.31836 43.4328V6.03841C1.31836 5.9173 1.41697 5.81869 1.53809 5.81869H17.1974C18.0497 5.81869 18.0497 4.50033 17.1974 4.50033H6.31055L6.50777 1.55107C6.52922 1.41827 6.60718 1.35015 6.74165 1.34655L32.7081 3.08327C32.8409 3.10471 32.9091 3.18267 32.9127 3.31714L30.4172 40.6282Z" fill="#060606"/>
<path d="M23.5395 20.834H5.56119C5.19714 20.834 4.90201 21.1291 4.90201 21.4932C4.90201 21.8572 5.19714 22.1523 5.56119 22.1523H23.5395C23.9036 22.1523 24.1987 21.8572 24.1987 21.4932C24.1987 21.1291 23.9036 20.834 23.5395 20.834Z" fill="#060606"/>
<path d="M23.5395 25.4294H5.56119C5.19714 25.4294 4.90201 25.7246 4.90201 26.0886C4.90201 26.4527 5.19714 26.7478 5.56119 26.7478H23.5395C23.9036 26.7478 24.1987 26.4527 24.1987 26.0886C24.1987 25.7246 23.9036 25.4294 23.5395 25.4294Z" fill="#060606"/>
<path d="M4.90201 16.8979C4.90201 17.262 5.19714 17.5571 5.56119 17.5571H23.5395C23.9036 17.5571 24.1987 17.262 24.1987 16.8979C24.1987 16.5339 23.9036 16.2388 23.5395 16.2388H5.56119C5.19714 16.2388 4.90201 16.5339 4.90201 16.8979Z" fill="#060606"/>
<path d="M8.06897 12.3025C8.06897 12.6665 8.36411 12.9617 8.72815 12.9617H20.3725C20.7366 12.9617 21.0317 12.6665 21.0317 12.3025C21.0317 11.9384 20.7366 11.6433 20.3725 11.6433H8.72815C8.36411 11.6433 8.06897 11.9384 8.06897 12.3025Z" fill="#060606"/>
<path d="M17.1172 38.5651C15.9316 38.5683 14.746 38.5709 13.5605 38.5727C13.162 38.5733 12.7636 38.5738 12.3652 38.5741C11.6431 38.5746 11.1567 38.4297 10.995 37.6355C10.8582 36.964 9.90827 37.0543 9.7237 37.6355C9.26755 39.0714 8.5131 38.5088 8.09052 37.543C7.66891 36.5794 7.5608 35.501 7.37667 34.4756C7.24132 33.7221 6.10173 33.9333 6.08187 34.6509C6.05568 35.5958 5.96743 36.5256 5.72758 37.4421C5.48017 38.3876 5.10936 39.2963 4.74127 40.1997C4.42038 40.9873 5.69638 41.3261 6.01252 40.5502C6.33868 39.7497 6.66528 38.9448 6.90839 38.1144C7.36015 39.2008 8.29478 40.4295 9.62658 39.7054C9.87435 39.5706 10.1058 39.3791 10.3089 39.1558C11.0015 39.9561 12.0323 39.893 12.9969 39.8919C14.3704 39.8901 15.7439 39.8871 17.1173 39.8835C17.9654 39.8813 17.967 38.5629 17.1172 38.5651Z" fill="#060606"/>
<path d="M44.4667 21.6597C44.1242 21.3189 43.6533 21.1441 43.1751 21.1312L42.677 21.1336V20.1915C42.677 19.6177 42.3361 19.0114 41.8479 18.7095V17.3825C41.8479 14.6519 37.5965 14.6637 37.5965 17.3954V18.7225C37.0991 19.03 36.7654 19.5787 36.7654 20.2037V21.1689C34.5712 21.3183 34.5649 24.6621 36.7679 24.7928C36.782 27.7437 36.7813 30.6463 36.7654 33.6466C36.7611 34.474 38.0793 34.5225 38.0838 33.6536C38.0996 30.6507 38.1003 27.7455 38.0864 24.7922L41.3569 24.7759C41.3569 24.7759 41.3526 34.5184 41.3526 38.9073C41.3526 41.0464 38.0814 41.0606 38.0814 38.8851L38.0826 37.683C38.134 36.8322 36.8181 36.7528 36.7666 37.6035V38.7315C36.7666 39.6983 37.0656 40.5171 37.6444 41.0931C37.6959 42.4723 38.2771 43.8069 39.2589 44.7806C39.5406 45.0601 39.9306 44.9747 40.2032 44.7646C41.2021 43.764 41.7649 42.4448 41.8001 41.0368C42.2352 40.6034 42.6709 40.167 42.6709 38.6729L42.6714 32.6655C43.8114 32.9897 45 32.1076 45 30.9124V22.9432C45 22.4578 44.8106 22.002 44.4667 21.6597ZM38.0838 21.1564V20.2036C38.0838 20.0085 38.2177 19.845 38.3978 19.7964L41.0368 19.7833C41.1106 19.8016 41.1787 19.8364 41.2339 19.8915C41.3143 19.9715 41.3586 20.0781 41.3586 20.1915V21.1402L38.0838 21.1564ZM39.7248 16.5861C40.1295 16.5861 40.5295 16.9828 40.5295 17.3825V18.4518L38.9147 18.4598V17.3954C38.9148 16.9513 39.278 16.5883 39.7248 16.5861ZM39.7238 43.2961C39.4174 42.8618 39.1957 42.3705 39.072 41.8542C39.276 41.8984 39.4828 41.9214 39.6896 41.9214C39.9205 41.9214 40.1513 41.8928 40.3785 41.8373C40.2578 42.3615 40.0365 42.8557 39.7238 43.2961ZM43.6816 30.9124C43.6816 31.5365 42.6751 31.5857 42.6751 30.9239C42.6751 30.9239 42.6763 24.686 42.677 24.1142C42.6774 23.7454 42.3708 23.4542 42.0127 23.4542L36.8808 23.4797C36.2443 23.4797 36.2592 22.4838 36.8874 22.4807L43.1816 22.4495C43.486 22.4754 43.6526 22.6401 43.6816 22.9432V30.9124H43.6816Z" fill="#060606"/>
</g>
<defs>
<clipPath id="clip0">
<rect width="45" height="45" fill="white"/>
</clipPath>
</defs>
</svg>
