<svg height="512" viewBox="0 0 512 512" width="512" xmlns="http://www.w3.org/2000/svg"><g id="Filled_outline" data-name="Filled outline"><path d="m424 112v264a24.006 24.006 0 0 1 -24 24h-352a24.006 24.006 0 0 1 -24-24v-264z" fill="#4db7e5"/><path d="m424 112v256h42.862a21.138 21.138 0 0 0 21.138-21.138 21.143 21.143 0 0 0 -.761-5.621z" fill="#f35244"/><path d="m424 112v264a24.006 24.006 0 0 1 -24 24h-352a24.006 24.006 0 0 1 -24-24v-5.97c130.88-24.95 274.01-98.05 354.5-258.03z" fill="#4aafdb"/><path d="m424 336v40a24.006 24.006 0 0 1 -24 24h-352a24.006 24.006 0 0 1 -24-24v-40z" fill="#60d1e0"/><path d="m56 160h120v144h-120z" fill="#ffb531"/><path d="m133.7 249.694a27.938 27.938 0 0 0 10.3-21.694v-8a28 28 0 0 0 -56 0v8a27.938 27.938 0 0 0 10.3 21.694 56.019 56.019 0 0 0 -42.3 54.306h120a56.019 56.019 0 0 0 -42.3-54.306z" fill="#f35244"/><g fill="#45a7d1"><path d="m208 192h80v16h-80z"/><path d="m208 224h48v16h-48z"/><path d="m208 256h80v16h-80z"/><path d="m208 288h80v16h-80z"/><path d="m328 192h48v16h-48z"/><path d="m328 224h48v16h-48z"/><path d="m328 256h48v16h-48z"/><path d="m328 288h48v16h-48z"/><path d="m208 160h168v16h-168z"/></g><path d="m424 336v40a24.006 24.006 0 0 1 -24 24h-352a24.006 24.006 0 0 1 -24-24v-5.97a563.154 563.154 0 0 0 113.31-34.03z" fill="#5bccd9"/><path d="m56 360h16v16h-16z" fill="#3fb5c4"/><path d="m88 360h48v16h-48z" fill="#3fb5c4"/><path d="m152 360h48v16h-48z" fill="#3fb5c4"/><path d="m216 360h48v16h-48z" fill="#3fb5c4"/><path d="m280 360h16v16h-16z" fill="#3fb5c4"/><path d="m312 360h16v16h-16z" fill="#3fb5c4"/><path d="m344 360h16v16h-16z" fill="#3fb5c4"/><path d="m376 360h16v16h-16z" fill="#3fb5c4"/><path d="m494.951 339.114-63.239-229.241h-.006a8 8 0 0 0 -7.706-5.873h-400a8 8 0 0 0 -8 8v200h16v-192h384v208h-392a8 8 0 0 0 -8 8v40a32.036 32.036 0 0 0 32 32h352a32.036 32.036 0 0 0 32-32v-204.917l47.527 172.287a13.137 13.137 0 0 1 -12.665 16.63h-18.862v16h18.862a29.138 29.138 0 0 0 28.089-36.886zm-78.951 36.886a16.019 16.019 0 0 1 -16 16h-352a16.019 16.019 0 0 1 -16-16v-32h384z"/><path d="m56 360h16v16h-16z"/><path d="m88 360h48v16h-48z"/><path d="m152 360h48v16h-48z"/><path d="m216 360h48v16h-48z"/><path d="m280 360h16v16h-16z"/><path d="m312 360h16v16h-16z"/><path d="m344 360h16v16h-16z"/><path d="m376 360h16v16h-16z"/><path d="m176 312a8 8 0 0 0 8-8v-144a8 8 0 0 0 -8-8h-120a8 8 0 0 0 -8 8v144a8 8 0 0 0 8 8zm-111.336-16a47.9 47.9 0 0 1 35.589-38.547 8 8 0 0 0 3.11-13.954 19.944 19.944 0 0 1 -7.363-15.499v-8a20 20 0 0 1 40 0v8a19.944 19.944 0 0 1 -7.363 15.5 8 8 0 0 0 3.11 13.954 47.9 47.9 0 0 1 35.589 38.546zm-.664-128h104v93.634a63.758 63.758 0 0 0 -20.829-15.6 35.9 35.9 0 0 0 4.829-18.034v-8a36 36 0 0 0 -72 0v8a35.9 35.9 0 0 0 4.829 18.03 63.758 63.758 0 0 0 -20.829 15.604z"/><path d="m208 192h80v16h-80z"/><path d="m208 224h48v16h-48z"/><path d="m208 256h80v16h-80z"/><path d="m208 288h80v16h-80z"/><path d="m328 192h48v16h-48z"/><path d="m328 224h48v16h-48z"/><path d="m328 256h48v16h-48z"/><path d="m328 288h48v16h-48z"/><path d="m208 160h168v16h-168z"/></g></svg>