<svg width="0" height="0" class="hidden">
  <symbol xmlns="http://www.w3.org/2000/svg" viewBox="0 0 198.496 198.496" id="boy">
    <path fill="#fdcc9b" d="M84.55 148.231h29.395v32.922H84.55z"></path>
    <path d="M84.551 152.108s12.365 7.874 29.395 6.05v-9.928H84.551v3.878z" fill="#fcbc85"></path>
    <ellipse cx="42.164" cy="97.181" rx="14.343" ry="16.364" fill="#fcbc85"></ellipse>
    <ellipse cx="156.332" cy="97.181" rx="14.343" ry="16.364" fill="#fcbc85"></ellipse>
    <path d="M156.274 65.925c0-24.103-17.637-41.741-57.026-41.741S42.222 41.821 42.222 65.925s-4.115 87.597 57.026 87.597c61.141 0 57.026-63.493 57.026-87.597z" fill="#fdcc9b"></path>
    <ellipse cx="71.472" cy="93.262" rx="6.173" ry="6.761" fill="#3b2519"></ellipse>
    <circle cx="68.781" cy="90.277" r="1.846" fill="#fff"></circle>
    <path d="M61.597 76.507c2.919 1.46 7.606-4.96 18.335.625 1.956 1.018 3.123-8.708-8.377-8.708-9.958 0-11.722 7.202-9.958 8.083z" fill="#51362a"></path>
    <ellipse cx="127.786" cy="93.262" rx="6.173" ry="6.761" fill="#3b2519"></ellipse>
    <circle cx="125.095" cy="90.277" r="1.846" fill="#fff"></circle>
    <path d="M136.899 76.507c-2.919 1.46-7.606-4.96-18.335.625-1.956 1.018-3.123-8.708 8.378-8.708 9.957 0 11.72 7.202 9.957 8.083z" fill="#51362a"></path>
    <path d="M99.248 117.043c-6.1 0-9.774-4.556-9.774-2.352 0 2.205 1.764 6.394 9.774 6.394s9.774-4.189 9.774-6.394-3.675 2.352-9.774 2.352zm0 20.27c-2.11 0-3.381-1.576-3.381-.813s.61 2.211 3.381 2.211 3.38-1.448 3.38-2.211-1.271.813-3.38.813z" fill="#fcbc85"></path>
    <path d="M99.248 131.696c-9.668 0-15.493-3.937-15.493-2.939 0 .998 2.796 4.924 15.493 4.924 12.697 0 15.493-3.926 15.493-4.924-.001-.998-5.825 2.939-15.493 2.939z" fill="#f7945e"></path>
    <path d="M99.248 161.458v37.038H27.821c0-14.992 37.623-37.038 71.427-37.038zm0 0v37.038h71.427c0-14.992-37.623-37.038-71.427-37.038z" fill="#f7941e"></path>
    <path d="M99.248 161.458c-7.19 0-14.552 1.005-21.689 2.72.048.063 7.916 10.214 21.689 10.214 12.754 0 21.233-8.693 22.462-10.03-7.378-1.831-15.012-2.904-22.462-2.904z" fill="#f36c21"></path>
    <path d="M84.55 162.74s4.299 5.332 14.697 5.332 14.698-5.332 14.698-5.332-15.248-5.551-29.395 0z" fill="#fdcc9b"></path>
    <path d="M146.132 19.041S124.968-7.855 80.98 2.286c-43.987 10.14-47.283 36.596-45.96 62.335 1.323 25.74 4.85 40.84 9.022 38.974 4.172-1.867 2.001-18.857 2.442-22.778.441-3.921 4.409-21.653 31.162-19.007 26.752 2.646 49.296-7.055 49.296-7.055s9.075 11.471 15.047 13.669c11.934 4.391 8.02 33.67 12.696 33.67s27.603-67.621-8.553-83.053z" fill="#51362a"></path>
  </symbol>
  <symbol xmlns="http://www.w3.org/2000/svg" viewBox="0 0 511.999 511.999" id="gaming">
    <path d="M483.573 375.929H90.405c-15.7 0-28.427-12.727-28.427-28.427V92.884c0-15.7 12.727-28.427 28.427-28.427h393.167c15.7 0 28.427 12.727 28.427 28.427v254.619c.001 15.699-12.726 28.426-28.426 28.426z" fill="#2b84e9"></path>
    <path fill="#363c44" d="M243.91 373.419h86.16v74.58h-86.16z"></path>
    <path d="M243.91 373.419h86.16v19.943h-86.16zm0 57.98h86.16v14.08h-86.16z" fill="#292e33"></path>
    <path d="M61.978 347.502c0 15.7 12.727 28.427 28.427 28.427h393.167c15.7 0 28.427-12.727 28.427-28.427v-59.164H61.978v59.164z" fill="#555e6b"></path>
    <circle cx="472.68" cy="330.919" r="7.773" fill="#49bc6e"></circle>
    <path d="M199.231 64.456H91.394c-15.7 0-28.427 12.727-28.427 28.427v254.618c0 15.7 12.727 28.427 28.427 28.427H199.23V64.456h.001z" fill="#2676c6"></path>
    <g fill="#49bc6e">
      <circle cx="444.69" cy="330.919" r="7.773"></circle>
      <circle cx="417.06" cy="330.919" r="7.773"></circle>
    </g>
    <path d="M62.967 288.338v59.164c0 15.7 12.727 28.427 28.427 28.427H199.23v-87.592H62.967v.001z" fill="#434b56"></path>
    <path d="M155.845 476.962H13.115C5.872 476.962 0 471.09 0 463.846V48.152c0-7.243 5.872-13.115 13.115-13.115h142.729c7.243 0 13.115 5.872 13.115 13.115v415.695c.001 7.243-5.871 13.115-13.114 13.115z" fill="#555e6b"></path>
    <path d="M364.424 476.962h-154.87a2.908 2.908 0 01-2.908-2.908v-12.408c0-8.927 7.237-16.164 16.164-16.164h128.358c8.927 0 16.164 7.237 16.164 16.164v12.408a2.908 2.908 0 01-2.908 2.908z" fill="#363c44"></path>
    <circle cx="286.99" cy="329.189" r="15.182" fill="#ffe92f"></circle>
    <path d="M49.828 392.566l-19.356-96.779a9.502 9.502 0 00-1.898-4.073L0 255.999v199.198l47.663-54.512a9.503 9.503 0 002.165-8.119zm69.304 0l19.356-96.779a9.502 9.502 0 011.898-4.073l28.574-35.715v199.198l-47.663-54.512a9.503 9.503 0 01-2.165-8.119z" fill="#2e343a"></path>
    <path d="M66.552 454.334H48.199a7.773 7.773 0 110-15.546h18.352a7.773 7.773 0 017.773 7.773 7.772 7.772 0 01-7.772 7.773zm48.199 0H96.398a7.773 7.773 0 110-15.546h18.352a7.773 7.773 0 017.773 7.773 7.771 7.771 0 01-7.772 7.773z" fill="#96abbc"></path>
    <circle cx="82.45" cy="281.859" r="20.469" fill="#ff7b05"></circle>
    <path d="M26.476 35.036L43.49 55.604a16.846 16.846 0 0012.981 6.109h55.303c4.902 0 9.561-2.135 12.761-5.849l17.949-20.828H26.476z" fill="#2e343a"></path>
    <path d="M136.748 116.221H32.211a5.735 5.735 0 01-5.735-5.735v-15.4a5.735 5.735 0 015.735-5.735h104.537a5.735 5.735 0 015.735 5.735v15.4a5.734 5.734 0 01-5.735 5.735zm0 56.071H32.211a5.735 5.735 0 01-5.735-5.735v-15.4a5.735 5.735 0 015.735-5.735h104.537a5.735 5.735 0 015.735 5.735v15.4a5.735 5.735 0 01-5.735 5.735z" fill="#707d8c"></path>
  </symbol>
  <symbol xmlns="http://www.w3.org/2000/svg" viewBox="0 0 207.964 207.964" id="girl">
    <path d="M40.634 148.18c6.989 19.495-3.968 55.375-3.968 55.375h63.346V93.325l-69.52 13.325c.001-.001 3.823 23.903 10.142 41.53zm118.818 0c-6.989 19.495 3.969 55.375 3.969 55.375h-63.347V93.325l69.519 13.325c0-.001-3.821 23.903-10.141 41.53z" fill="#432b1f"></path>
    <path fill="#fdcc9b" d="M85.315 157.699h29.395v32.922H85.315z"></path>
    <path d="M85.315 161.577s12.365 7.874 29.395 6.05v-9.928H85.315v3.878z" fill="#fcbc85"></path>
    <ellipse cx="42.928" cy="106.649" rx="14.343" ry="16.364" fill="#fcbc85"></ellipse>
    <ellipse cx="157.096" cy="106.649" rx="14.343" ry="16.364" fill="#fcbc85"></ellipse>
    <path d="M157.038 75.394c0-24.103-17.637-41.741-57.025-41.741-39.39 0-57.026 17.637-57.026 41.741s-4.115 87.597 57.026 87.597c61.14-.001 57.025-63.493 57.025-87.597z" fill="#fdcc9b"></path>
    <ellipse cx="72.237" cy="102.731" rx="6.173" ry="6.761" fill="#3b2519"></ellipse>
    <circle cx="69.545" cy="99.746" r="1.846" fill="#fff"></circle>
    <path d="M62.362 88.154c2.918 1.118 7.606-3.798 18.334.478 1.956.78 3.124-6.668-8.377-6.668-9.957 0-11.721 5.515-9.957 6.19z" fill="#51362a"></path>
    <ellipse cx="128.55" cy="102.731" rx="6.173" ry="6.761" fill="#3b2519"></ellipse>
    <circle cx="125.859" cy="99.746" r="1.847" fill="#fff"></circle>
    <path d="M137.663 88.154c-2.919 1.118-7.605-3.798-18.335.478-1.955.78-3.123-6.668 8.378-6.668 9.957 0 11.72 5.515 9.957 6.19z" fill="#51362a"></path>
    <path d="M100.012 126.511c-6.1 0-9.774-4.556-9.774-2.352 0 2.205 1.764 6.394 9.774 6.394s9.773-4.189 9.773-6.394c.001-2.204-3.673 2.352-9.773 2.352zm0 20.271c-2.109 0-3.381-1.576-3.381-.813s.61 2.211 3.381 2.211 3.381-1.448 3.381-2.211-1.271.813-3.381.813z" fill="#fcbc85"></path>
    <path d="M100.012 141.165c-9.668 0-15.493-3.936-15.493-2.939 0 .998 2.796 4.924 15.493 4.924 12.697 0 15.492-3.926 15.492-4.924 0-.998-5.824 2.939-15.492 2.939z" fill="#f7945e"></path>
    <circle cx="64.298" cy="124.336" r="8.378" fill="#f9aa8d"></circle>
    <circle cx="136.756" cy="124.336" r="8.377" fill="#f9aa8d"></circle>
    <path d="M100.012 170.927v37.038H35.639c0-14.992 30.569-37.038 64.373-37.038zm0 0v37.038h64.372c0-14.992-30.568-37.038-64.372-37.038z" fill="#694b74"></path>
    <path d="M99.821 170.927c-7.271 0-14.715 1.005-21.933 2.72.049.063 8.006 10.214 21.933 10.214 12.898 0 21.472-8.693 22.715-10.03-7.46-1.831-15.181-2.904-22.715-2.904z" fill="#563c60"></path>
    <path d="M85.315 172.209s4.299 5.332 14.697 5.332 14.697-5.332 14.697-5.332-15.248-5.552-29.394 0z" fill="#fdcc9b"></path>
    <path d="M151.747 24.541C114.709-19.552 44.162-1.915 28.584 58.933c-15.577 60.847 12.05 89.247 12.05 89.247-10.594-35.859 14.11-72.933 35.274-73.374 21.165-.441 54.675-12.346 54.675-12.346s5.625 28.622 23.81 39.132c13.669 7.9 8.477 31.122 4.949 46.588 13.227-5.031 52.37-105.561-7.595-123.639z" fill="#51362a"></path>
  </symbol>
  <symbol xmlns="http://www.w3.org/2000/svg" viewBox="0 0 512.002 512.002" id="winner">
    <g clip-rule="evenodd" fill-rule="evenodd">
      <path d="M66.002 256.001c0-104.934 85.066-190 190-190s190 85.066 190 190-85.066 190-190 190-190-85.066-190-190zM302.627 28.536L275.463 14.91c-11.694-6.276-26.205-6.782-38.793-.068L212.29 27.91l-30.062-2.175c-13.436-1.51-27.34 3.612-36.539 14.854l-17.738 21.663-26.173 8.688c-13.892 3.238-25.719 13.607-30.14 28.243l-8.08 26.745-23.478 20.311c-9.92 8.434-15.682 21.432-14.311 35.372l2.766 27.765-13.625 27.163c-6.276 11.694-6.782 26.205-.068 38.793l13.068 24.38-2.175 30.062c-1.51 13.436 3.612 27.34 14.854 36.539l21.663 17.738 8.688 26.173c3.238 13.892 13.608 25.719 28.243 30.14l26.745 8.08 20.311 23.478c8.435 9.92 21.432 15.682 35.372 14.311l27.763-2.768 27.165 13.626c11.692 6.277 26.205 6.784 38.792.069l24.381-13.068 30.062 2.175c13.436 1.51 27.34-3.612 36.539-14.854l17.738-21.663 26.173-8.688c13.892-3.238 25.719-13.608 30.141-28.243l8.08-26.745 23.478-20.311c9.92-8.435 15.682-21.432 14.311-35.372l-2.767-27.762 13.626-27.165c6.277-11.692 6.784-26.205.069-38.792l-13.068-24.381 2.175-30.062c1.51-13.436-3.612-27.34-14.854-36.539l-21.663-17.738-8.688-26.173c-3.238-13.892-13.607-25.719-28.243-30.141l-26.745-8.08-20.312-23.478c-8.435-9.92-21.432-15.682-35.372-14.311z" fill="#ffc144"></path>
      <circle cx="256.001" cy="256.001" fill="#fff2a0" r="190"></circle>
      <path d="M292.008 206.042c-11.059-10.657-14.945-27.273-9.413-40.587 6.066-14.601 5.831-26.134-1.062-39.219-6.999-13.285-30.569-24.017-33.822-8.052-1.463 7.182.935 22.8-9.537 42.863-11.918 22.832-.108 51.555-34.601 51.555V350.35c23.691 0 47.382 13.12 71.074 13.12h57.73c29.454 0 37.395-31.691 27.537-41.142 14.834-6.282 19.39-27.541 11.374-37.829 15.588-7.688 17.397-31.943 7.011-37.691 11.286-.245 20.521-9.304 20.521-20.127 0-12.104-9.619-20.642-21.034-20.642z" fill="#ffdcd5"></path>
      <path d="M203.573 350.35V205.793h-52.837v151.366h52.837z" fill="#8481e2"></path>
    </g>
    <path d="M303.029 61.578a9.996 9.996 0 00-12.065 7.378c-1.294 5.369 2.009 10.771 7.378 12.065C379.394 100.56 436.001 172.514 436.001 256c0 99.252-80.747 180-180 180s-180-80.748-180-180c0-83.483 56.604-155.437 137.652-174.978 5.369-1.295 8.672-6.697 7.378-12.065-1.295-5.369-6.699-8.67-12.065-7.378-42.88 10.339-81.729 35.126-109.39 69.795C71.069 167.103 56.001 210.198 56.001 256c0 110.28 89.72 200 200 200s200-89.719 200-200c0-45.803-15.068-88.899-43.577-124.629-27.662-34.668-66.513-59.455-109.395-69.793z"></path>
    <path d="M505.976 231.948l-11.699-21.827 1.951-26.984c1.876-17.296-5.023-34.176-18.479-45.184l-19.42-15.902-7.639-23.012c-4.278-17.595-17.641-31.737-34.979-36.974l-23.971-7.242-18.358-21.22A51.175 51.175 0 00329.4 15.819l-24.88 2.479-24.457-12.269c-15.072-8.035-33.042-8.042-48.116-.001l-21.826 11.698-26.983-1.952c-17.303-1.876-34.177 5.024-45.184 18.479l-15.903 19.42-23.011 7.639C81.444 65.59 67.302 78.953 62.065 96.29l-7.241 23.971-21.22 18.359a51.17 51.17 0 00-17.785 43.982l2.479 24.88-12.269 24.457c-8.036 15.073-8.042 33.042-.002 48.117l11.699 21.826-1.952 26.984c-1.875 17.296 5.024 34.175 18.479 45.184l19.42 15.902 7.639 23.012c4.277 17.595 17.64 31.737 34.979 36.974l23.97 7.241L138.62 478.4a51.165 51.165 0 0043.982 17.784l24.879-2.479 24.455 12.267a51.108 51.108 0 0024.067 6.031 51.059 51.059 0 0024.051-6.027l21.827-11.698 26.983 1.952c17.295 1.872 34.175-5.024 45.185-18.479l15.902-19.42 23.013-7.638c17.594-4.278 31.735-17.641 36.972-34.979l7.242-23.97 21.221-18.359a51.17 51.17 0 0017.785-43.983l-2.48-24.878 12.268-24.457c8.036-15.074 8.044-33.044.004-48.119zm-17.695 38.786a9.632 9.632 0 00-.128.246l-13.626 27.165a10.007 10.007 0 00-1.013 5.476l2.767 27.75c.998 10.147-3.053 20.157-10.902 26.831l-23.478 20.312a9.994 9.994 0 00-3.029 4.67l-8.081 26.745c-3.221 10.664-11.972 18.863-22.837 21.396a9.9 9.9 0 00-.88.248L380.9 440.26a10.001 10.001 0 00-4.587 3.156l-17.74 21.666c-6.738 8.236-17.089 12.442-27.681 11.25a10.794 10.794 0 00-.396-.037l-30.062-2.174a9.997 9.997 0 00-5.445 1.16l-24.364 13.058c-9.188 4.9-20.162 4.88-29.357-.057-.082-.043-.164-.086-.246-.127l-27.164-13.626a10.005 10.005 0 00-5.476-1.013l-27.75 2.765c-10.146 1.002-20.157-3.053-26.831-10.901l-20.312-23.478a9.989 9.989 0 00-4.671-3.03l-26.745-8.079c-10.665-3.221-18.863-11.972-21.396-22.838a9.997 9.997 0 00-.248-.88L71.742 380.9a9.989 9.989 0 00-3.155-4.586l-21.665-17.741c-8.236-6.738-12.442-17.086-11.25-27.68.015-.132.027-.264.037-.397l2.174-30.063a10 10 0 00-1.16-5.445l-13.059-24.362c-4.9-9.188-4.879-20.162.056-29.357.044-.081.086-.163.127-.245l13.626-27.165a9.996 9.996 0 001.012-5.475l-2.765-27.752c-.998-10.147 3.053-20.157 10.902-26.831L70.1 133.489a10.003 10.003 0 003.03-4.67l8.08-26.746c3.221-10.664 11.972-18.862 22.838-21.396.297-.069.59-.152.88-.248l26.173-8.688a9.989 9.989 0 004.586-3.155l17.742-21.666c6.738-8.235 17.089-12.439 27.68-11.249.132.015.264.027.396.037l30.062 2.174a10.036 10.036 0 005.445-1.16l24.363-13.058c9.187-4.9 20.162-4.88 29.356.056.081.043.163.086.246.127l27.165 13.626a9.987 9.987 0 005.475 1.012l27.751-2.765c10.146-1 20.157 3.053 26.831 10.902L378.511 70.1a9.996 9.996 0 004.671 3.03l26.745 8.08c10.664 3.221 18.862 11.973 21.396 22.838.069.297.152.59.248.88l8.688 26.173a9.996 9.996 0 003.155 4.586l21.666 17.741c8.236 6.738 12.441 17.085 11.249 27.68a8.733 8.733 0 00-.036.397l-2.174 30.063a10.008 10.008 0 001.159 5.445l13.059 24.363c4.901 9.19 4.88 20.164-.056 29.358z"></path>
    <path d="M212.602 201.516c-1.604-3.38-5.039-5.723-9.029-5.723h-52.837c-5.523 0-10 4.477-10 10v151.366c0 5.523 4.477 10 10 10h52.837a10 10 0 009.216-6.114c7.623 1.07 15.476 3.238 23.652 5.502 12.292 3.403 25.001 6.922 38.206 6.922h57.729c17.846 0 32.307-9.461 38.684-25.31 3.106-7.722 3.65-15.736 1.835-22.445 3.32-2.985 6.126-6.701 8.248-11.04 4.301-8.792 5.16-18.679 2.722-27.006 4.544-4.39 7.934-10.187 9.706-17.022 1.657-6.39 1.628-12.695.154-18.158 9.02-5.306 15.095-14.946 15.095-25.808 0-8.519-3.317-16.369-9.341-22.103-5.784-5.506-13.488-8.539-21.692-8.539l-81.371.002c-6.182-7.755-8.106-18.279-4.586-26.75 7.224-17.386 6.776-32.103-1.449-47.717-6.106-11.589-22.524-23.127-36.323-21.157-8.341 1.192-14.376 7.087-16.146 15.771-.521 2.555-.664 5.315-.829 8.511-.408 7.884-.968 18.682-7.774 31.721-4.613 8.839-6.152 17.93-7.51 25.951-1.945 11.49-2.888 17.025-9.197 19.146zm-51.866 14.277h32.837v131.366h-32.837zm80.783-30.085c1.165-6.881 2.369-13.997 5.521-20.034 8.823-16.904 9.57-31.325 10.017-39.941.119-2.295.231-4.463.453-5.553a.174.174 0 01.005-.022c3.469.048 12.006 4.731 15.171 10.739 5.478 10.396 5.66 18.723.676 30.721-4.495 10.818-4.157 23.371.289 34.532-4.865.677-8.613 4.842-8.613 9.893 0 5.522 4.478 10 10 10l102.749-.003c3.047 0 5.854 1.074 7.902 3.024 1.429 1.359 3.131 3.785 3.131 7.617 0 5.364-4.917 10.002-10.738 10.129l-25.739.56c-5.521.12-9.9 4.693-9.78 10.215a10 10 0 009.994 9.783c.073 0 .147 0 .222-.002l21.436-.466c.699 1.981 1.063 5.76-.409 10.089-1.253 3.682-4.616 9.858-13.076 9.858-5.522 0-10 4.477-10 10s4.478 10 10 10c1.516 0 3.004-.094 4.46-.279.124 2.83-.458 6.145-2.011 9.319-1.836 3.752-5.465 8.226-12.327 8.226-5.522 0-10 4.477-10 10s4.478 10 10 10a34.24 34.24 0 003.07-.137c-.026 1.919-.416 4.318-1.507 6.942-1.568 3.774-6.661 12.551-20.037 12.551h-57.729c-10.487 0-21.359-3.01-32.869-6.197-9.159-2.536-18.55-5.134-28.205-6.294V221.755c22.514-4.08 25.618-22.306 27.944-36.047zm14.483-109.707c5.523 0 10-4.477 10-10s-4.477-10-10-10h-.007c-5.523 0-9.996 4.477-9.996 10s4.48 10 10.003 10z"></path>
  </symbol>
  <symbol fill="none" xmlns="http://www.w3.org/2000/svg" viewBox="0 0 117 100" id="pic1">
    <path d="M109.091 1.818H7.273c-3.091 0-5.455 2.364-5.455 5.455v67.636c0 3.091 2.364 5.455 5.455 5.455H109.09c3.091 0 5.454-2.364 5.454-5.455V7.273c0-2.91-2.363-5.455-5.454-5.455z" fill="#E1E6E9"></path>
    <path d="M109.091 82.182H7.273c-4 0-7.273-3.273-7.273-7.273V7.273C0 3.273 3.273 0 7.273 0H109.09c4 0 7.272 3.273 7.272 7.273v67.636c.001 4-3.272 7.273-7.272 7.273zM7.273 3.636c-2 0-3.637 1.637-3.637 3.637v67.636c0 2 1.637 3.636 3.637 3.636H109.09c2 0 3.636-1.636 3.636-3.636V7.273c0-2-1.636-3.637-3.636-3.637H7.273z" fill="#193651"></path>
    <path d="M107.273 9.09H9.091v55.092h98.182V9.09z" fill="#fff"></path>
    <path d="M70.182 80.364h-24l-6.728 17.818H76.91l-6.727-17.818z" fill="#CFD0D1"></path>
    <path d="M76.909 100H39.454c-.545 0-1.09-.364-1.454-.727-.364-.546-.364-1.091-.182-1.637l6.545-17.818c.182-.727.91-1.272 1.637-1.272h24.182c.727 0 1.454.545 1.636 1.272l6.546 17.455c.181.364.181.545.181.909.182.909-.727 1.818-1.636 1.818zm-34.727-3.636h32.182L69.09 82.182H47.455l-5.273 14.182z" fill="#193651"></path>
    <path d="M81.09 100H35.274c-1.091 0-1.819-.727-1.819-1.818 0-1.091.728-1.819 1.819-1.819H80.91c1.091 0 1.818.728 1.818 1.819C82.91 99.09 82 100 81.091 100z" fill="#193651"></path>
    <path d="M91.818 45.454c-2.182 2.546-5.272 4-8.727 4-3.454 0-6.545-1.636-8.727-4-4.364 3.091-8.182 8-8.182 13.819H100c0-5.819-3.636-10.728-8.182-13.819z" fill="#2EA2DB"></path>
    <path d="M83.09 45.818c4.72 0 8.546-4.233 8.546-9.454 0-5.222-3.826-9.455-8.545-9.455-4.72 0-8.546 4.233-8.546 9.455 0 5.221 3.826 9.454 8.546 9.454z" fill="#FDBF5E"></path>
    <path d="M47.455 59.636L37.09 42.727l-10.546 16.91-2.181-1.273L37.09 37.636l12.727 20.727-2.363 1.273z" fill="#193651"></path>
    <path d="M56.727 13.636H17.273c-2 0-3.637 1.637-3.637 3.637v25.454c0 2 1.637 3.637 3.637 3.637h39.454c2 0 3.637-1.637 3.637-3.637V17.273c0-2-1.637-3.637-3.637-3.637z" fill="#F16051"></path>
    <path d="M23.455 33.091l-1.091 2.364h-1.819l4.728-10.546h1.818l4.727 10.546H30l-1.091-2.364h-5.454zM28 31.455l-2-4.364-2 4.364h4zm11.09-4.001c1.092 0 2 .364 2.728 1.091.727.728 1.091 1.819 1.091 2.91 0 1.272-.364 2.181-1.09 3.09-.728.728-1.637 1.091-2.728 1.091-1.091 0-2-.363-2.727-1.272v1.273h-1.637V24.363h1.637v4.545c.727-1.09 1.636-1.454 2.727-1.454zm-2.726 4.182c0 .728.182 1.455.727 1.819.545.545 1.091.727 1.636.727.728 0 1.273-.182 1.819-.727.545-.546.727-1.091.727-1.819 0-.727-.182-1.454-.727-2-.546-.545-1.091-.727-1.819-.727-.727 0-1.272.182-1.636.728-.546.545-.727 1.09-.727 2zm13.818 4c-1.091 0-2-.363-2.91-1.09-.727-.728-1.272-1.819-1.272-2.91 0-1.272.364-2.181 1.273-3.09.909-.728 1.818-1.091 3.09-1.091 1.273 0 2.182.363 3.092 1.272L52.545 30c-.727-.546-1.454-.91-2.181-.91-.728 0-1.273.183-1.819.728-.545.545-.727 1.09-.727 1.818 0 .727.182 1.455.727 1.819.546.545 1.091.727 1.819.727.727 0 1.454-.364 2.181-1.091l.91 1.09c-.728 1.092-2 1.456-3.273 1.456z" fill="#fff"></path>
    <path d="M44.727 74a2.182 2.182 0 100-4.364 2.182 2.182 0 000 4.364zm13.455.909a3.09 3.09 0 100-6.182 3.09 3.09 0 000 6.182zM71.636 74a2.182 2.182 0 100-4.364 2.182 2.182 0 000 4.364z" fill="#CFD0D1"></path>
    <path d="M75.09 17.637h-3.635v3.636h3.636v-3.636zm9.82 0h-3.637v3.636h3.636v-3.636zm9.817 0h-3.636v3.636h3.636v-3.636z" fill="#193651"></path>
  </symbol>
  <symbol fill="none" xmlns="http://www.w3.org/2000/svg" viewBox="0 0 110 100" id="pic2">
    <path d="M103.774 0H5.66A5.66 5.66 0 000 5.66v67.925a5.66 5.66 0 005.66 5.66h98.114a5.66 5.66 0 005.66-5.66V5.66a5.66 5.66 0 00-5.66-5.66z" fill="#04957C"></path>
    <path d="M54.497 14.449a5.66 5.66 0 00-5.66 5.66v3.774a5.645 5.645 0 001.886 4.218v7.071h7.547v-7.071a5.645 5.645 0 001.887-4.218v-3.774a5.66 5.66 0 00-5.66-5.66z" fill="#FDC9A6"></path>
    <path d="M48.837 20.078l-.031 3.066 3.401-3.066h7.95l2.47-2.47A5.203 5.203 0 0056.061 9.6l-1.565 1.044h-3.868a4.324 4.324 0 00-3.598 6.723l1.807 2.711z" fill="#683B0D"></path>
    <path d="M79.245 37.736l-3.773 11.32-6.14-9.209a8.02 8.02 0 00-3.773-3.028l-7.288-2.826-7.328-.03-9.815 2.804a8.017 8.017 0 00-4.97 4.124l-5.222 10.445a7.076 7.076 0 00-.747 3.165v.353a7.076 7.076 0 005.36 6.864l9.734 2.433v5.66h18.868V50.943l5.199 5.199a8.019 8.019 0 005.67 2.349h.495a8.02 8.02 0 007.536-5.279l5.628-15.476h-9.434zM45.283 56.604l-5.66-1.887 5.66-9.434v11.32z" fill="#2CBFF4"></path>
    <path d="M81.132 20.755v3.773a3.774 3.774 0 007.547 0v-3.773h-7.547z" fill="#CBCBCB"></path>
    <path d="M45.283 60.377V45.283l9.434 1.887 9.434-1.887v15.094l-9.434 1.887-9.434-1.887z" fill="#D32B39"></path>
    <path d="M81.132 37.736l-1.887-5.66 3.774-3.774h3.773l1.887 3.773-1.886 5.66h-5.66z" fill="#FDC9A6"></path>
    <path d="M81.132 20.755l-2.213-3.32a6.361 6.361 0 015.292-9.888h1.39a6.36 6.36 0 015.291 9.889l-2.213 3.319h-7.547z" fill="#FBB540"></path>
    <path d="M31.604 92.453H77.83a3.302 3.302 0 013.302 3.302V100h-52.83v-4.245a3.302 3.302 0 013.302-3.302z" fill="#CBCBCB"></path>
    <path d="M71.698 79.245h-9.434a7.547 7.547 0 01-15.094 0h-9.434l-5.66 13.208h45.283l-5.66-13.208z" fill="#A8A8A8"></path>
    <path d="M109.434 69.811H0v3.774a5.66 5.66 0 005.66 5.66h98.114a5.659 5.659 0 005.66-5.66V69.81z" fill="#CBCBCB"></path>
    <path d="M45.283 56.604h7.547v7.547h-7.547v-7.547z" fill="#FDC9A6"></path>
    <path d="M48.18 83.019H36.117l1.618-3.774h9.434a7.52 7.52 0 001.01 3.774zm25.136 0H61.255a7.52 7.52 0 001.01-3.774h9.433l1.618 3.774z" fill="#656666"></path>
  </symbol>
  <symbol fill="none" xmlns="http://www.w3.org/2000/svg" viewBox="0 0 100 100" id="pic3">
    <path d="M79.71 98.117H20.29l-1.883-1.883V83.176c0-7.154 3.083-13.587 7.992-18.044h47.202c4.909 4.457 7.992 10.89 7.992 18.044v13.058l-1.883 1.883z" fill="#86DCFF"></path>
    <path d="M19.453 100h9.965l1.465-1.758L32.348 100h35.304l1.465-1.758L70.582 100h9.965c.577 0 1.046-.468 1.046-1.046v-2.72H18.407v2.72c0 .578.469 1.046 1.046 1.046z" fill="#56CAED"></path>
    <path d="M50 79.406l15.75-17.33-.104-1.77a24.3 24.3 0 00-8.417-1.494H42.77c-2.931 0-5.74.518-8.344 1.467l.082 2.082L50 79.406z" fill="#E4EEF9"></path>
    <path d="M34.354 60.307a24.36 24.36 0 00-2.457 1.062l.648 2.784L50 83.171l17.633-19.213.47-2.589a24.226 24.226 0 00-2.457-1.062L50.774 76.671a1.046 1.046 0 01-1.548 0L34.354 60.307z" fill="#D5E0F2"></path>
    <path d="M50 79.406l4.431-4.876.388-2.31-1.154-6.326L50 64.011l-3.665 1.883-1.154 6.326.388 2.31L50 79.406z" fill="#FF5876"></path>
    <path d="M53.665 65.894h-7.33l-1.6-7.082h10.53l-1.6 7.082zm1.727 9.462l-.573-3.136-4.045 4.451a1.046 1.046 0 01-1.548 0L45.18 72.22l-.573 3.136L50 85.054l5.392-9.698z" fill="#E6485D"></path>
    <path d="M31.897 61.37a24.403 24.403 0 00-3.534 2.158l.24 2.147 19.075 20.988a3.138 3.138 0 004.644 0l19.28-21.215.034-1.92a24.41 24.41 0 00-3.533-2.159l-17.38 19.124a.977.977 0 01-1.446 0L31.897 61.37z" fill="#FFCF4D"></path>
    <path d="M52.322 84.78a3.138 3.138 0 01-4.644 0L28.364 63.528a24.39 24.39 0 00-1.965 1.604l21.279 23.414a3.138 3.138 0 004.644 0l21.279-23.414a24.415 24.415 0 00-1.965-1.604L52.322 84.78z" fill="#FFB629"></path>
    <path d="M32.109 38.063l-1.883-5.068a6.596 6.596 0 00-6.979 4.598c-.193.62-.01 6.671 6.297 6.671l.732-1.924 1.833-4.277z" fill="#FFC4AD"></path>
    <path d="M29.544 42.382a6.595 6.595 0 01-6.32-4.711 6.594 6.594 0 007.664 8.339l1.504-1.746-2.114-1.924a6.586 6.586 0 01-.734.041z" fill="#FFB69F"></path>
    <path d="M67.891 38.063l1.883-5.068a6.596 6.596 0 016.979 4.598c.193.62.01 6.671-6.297 6.671l-.732-1.924-1.833-4.277z" fill="#FFC4AD"></path>
    <path d="M70.456 42.382a6.595 6.595 0 006.32-4.711 6.594 6.594 0 01-7.664 8.339l-1.504-1.746 2.114-1.924c.241.027.486.041.734.041z" fill="#FFB69F"></path>
    <path d="M30.226 12.693v26.345c0 10.92 8.853 19.774 19.774 19.774 10.92 0 19.774-8.853 19.774-19.774V12.693H30.226z" fill="#FFE0CC"></path>
    <path d="M50 56.929c-10.92 0-19.774-8.853-19.774-19.775v3.766c0 10.921 8.853 19.774 19.774 19.774 10.92 0 19.774-8.853 19.774-19.774v-3.766c0 10.922-8.853 19.775-19.774 19.775z" fill="#FFCEB3"></path>
    <path d="M68.863 26.689c-3.544-3.023-6.643-6.368-6.643-6.368-5.646 4.539-9.89 4.937-9.89 4.937l-4.15-4.05c-7.055 5.316-15.203 6.366-17.425 6.31a3.718 3.718 0 01-.995-.162c-5.177-1.585-7.132-4.723-7.132-4.723s-.605-1.375.35-1.559c4.998-.961 6.755-4.386 6.755-4.386-5.563.168-7.36-3.956-7.928-6.224a1.048 1.048 0 011.103-1.3C33.298 9.98 35.819 3.577 45.59.691c10.181-3.007 17.39 4.76 17.39 4.76s10.318-.997 11.204 9.522c.846 10.054-5.32 11.715-5.32 11.715z" fill="#2D4456"></path>
    <path d="M69.044 24.867c-2.494-1.764-4.783-5.029-5.97-6.898-.392-.617-1.27-.641-1.718-.064-4.275 5.521-13.175 3.304-13.175 3.304s2.186 2.676 2.18 5.82a1.046 1.046 0 001.278 1.03c2.512-.574 7.77-2.378 10.58-7.737 0 0 3.195 5.742 6.823 8.31.427.301 1.01.243 1.366-.138 1.359-1.45 4.373-5.588 3.79-13.293-.433 5.317-2.668 8.329-3.787 9.524-.357.382-.94.444-1.367.142zm-20.642-4.899c.142-.983-1.036-1.596-1.75-.906-6.347 6.132-13.843 6.625-15.897 6.574a3.718 3.718 0 01-.995-.163c-2.514-.769-4.944-2.659-6.783-4.4-.364.07-.745.127-1.145.169-.851.09-1.246 1.106-.67 1.74 1.81 1.994 5.127 5.194 8.598 6.257.323.099.658.154.995.162 2.222.055 10.811-.526 17.426-8.192.097-.47.169-.881.221-1.24z" fill="#253847"></path>
    <path d="M32.348 85.543v10.691l-1.465 1.883-1.465-1.883V85.543a1.464 1.464 0 112.93 0z" fill="#4EA1F4"></path>
    <path d="M29.418 96.234h2.93V100h-2.93v-3.766z" fill="#3292E0"></path>
    <path d="M70.582 85.543v10.691l-1.465 1.883-1.465-1.883V85.543a1.464 1.464 0 112.93 0z" fill="#4EA1F4"></path>
    <path d="M67.652 96.234h2.93V100h-2.93v-3.766z" fill="#3292E0"></path>
    <path d="M50 51c5.578 0 7.264-3.92 7.338-4.098V46.9c.445-.999-.345-2.204-1.446-2.179-.654 0-1.214.4-1.45.969-.079.168-1.097 2.17-4.442 2.17-3.343 0-4.362-2.001-4.442-2.17a1.57 1.57 0 00-1.45-.969c-1.1-.025-1.89 1.18-1.446 2.179v.001C42.737 47.08 44.423 51 50 51z" fill="#FF5876"></path>
    <path d="M40.418 33.274c-.866 0-1.569.702-1.569 1.569v4.433a1.569 1.569 0 003.138 0v-4.433a1.57 1.57 0 00-1.569-1.57zm19.164 7.571a1.57 1.57 0 001.569-1.569v-4.433a1.57 1.57 0 00-3.138 0v4.433c0 .867.702 1.57 1.569 1.57z" fill="#2D4456"></path>
  </symbol>
  <symbol fill="none" xmlns="http://www.w3.org/2000/svg" viewBox="0 0 100 100" id="pic4">
    <path d="M74.3 53.174l-.515 4.639-.347 3.124h-43.75l-.348-3.124-.516-4.64a24.041 24.041 0 011.797-12.122 24.064 24.064 0 001.914-10.67l-.271-5.406A19.32 19.32 0 0159.179 6.253a19.323 19.323 0 0111.682 18.722l-.271 5.406a24.064 24.064 0 001.914 10.67A24.03 24.03 0 0174.3 53.174z" fill="#8F4D2E"></path>
    <path d="M74.3 53.174l-.515 4.639H56.25V40.624l3.125-6.25v-12.5A17.205 17.205 0 0046.73 5.295a19.344 19.344 0 0124.131 19.68l-.271 5.406a24.065 24.065 0 001.914 10.67A24.03 24.03 0 0174.3 53.174z" fill="#82462A"></path>
    <path d="M60 54.688a2.185 2.185 0 01-2.188-2.188V42.187h-12.5V52.5a2.185 2.185 0 01-2.187 2.188h-2.5v9.374H62.5v-9.374H60z" fill="#FEC9A3"></path>
    <path d="M52.505 50a8.573 8.573 0 005.307-1.915v-5.898h-12.5v5.897A8.573 8.573 0 0050.62 50h1.885z" fill="#FEB784"></path>
    <path d="M65.625 25v7.813a14.063 14.063 0 01-28.125 0V25a21.197 21.197 0 007.207-8.164l.605-1.211.887.74a38.915 38.915 0 0013.176 7.207A38.972 38.972 0 0065.625 25z" fill="#FEC9A3"></path>
    <path d="M65.625 25v7.813a14.07 14.07 0 01-11.379 13.806 17.124 17.124 0 005.129-12.244V23.572A38.972 38.972 0 0065.625 25z" fill="#FEC093"></path>
    <path d="M44.531 31.25a2.344 2.344 0 110-4.689 2.344 2.344 0 010 4.689zm14.063 0a2.344 2.344 0 110-4.689 2.344 2.344 0 010 4.689z" fill="#7A432A"></path>
    <path d="M51.563 39.063a4.693 4.693 0 01-4.688-4.688H50a1.563 1.563 0 003.125 0h3.125a4.693 4.693 0 01-4.688 4.688z" fill="#F7A468"></path>
    <path d="M43.75 60.938h15.625v10.937H43.75V60.937z" fill="#E0E0DE"></path>
    <path d="M83.393 95.248a4.742 4.742 0 01-5.268-3.146L67.805 72.74a12.168 12.168 0 01-2.18 11.635v12.5H37.5v-12.5a12.187 12.187 0 01-2.156-11.78L24.855 92.103a4.741 4.741 0 01-9.002-2.977l11.473-28.557a9.372 9.372 0 018.7-5.88h6.161l9.376 17.187 9.374-17.188h6.14a9.382 9.382 0 018.71 5.913L87.13 89.125a4.744 4.744 0 01-3.736 6.123z" fill="#EC8C8C"></path>
    <path d="M14.498 89.65L15.625 75H25v15.054a5.258 5.258 0 11-10.502-.404z" fill="#F59898"></path>
    <path d="M19.301 52.207a3.04 3.04 0 00-1.981 4.308l1.43 2.86h-5.6a9.375 9.375 0 01-4.192-.99l-1.557-.778a1.875 1.875 0 00-2.713 1.677v4.41a3.125 3.125 0 001.727 2.795l2.543 1.271a9.374 9.374 0 004.193.99H25v-9.375l-2.14-5.349a3.04 3.04 0 00-3.559-1.819z" fill="#FEC9A3"></path>
    <path d="M15.625 68.75H25V75h-9.375v-6.25z" fill="#E0E0DE"></path>
    <path d="M83.393 95.248a4.742 4.742 0 01-5.268-3.146L67.805 72.74a12.168 12.168 0 01-2.18 11.635v12.5H38.014c12.896-8.422 23.777-19.11 32.91-41.36a9.36 9.36 0 014.863 5.085L87.13 89.125a4.744 4.744 0 01-3.736 6.123z" fill="#E07F7F"></path>
    <path d="M73.438 90.625L57.812 87.5V65.625l15.626 3.125v21.875z" fill="#A36548"></path>
    <path d="M79.688 90.625L95.311 87.5V65.625L79.689 68.75v21.875z" fill="#8F4D2E"></path>
    <path d="M73.438 68.75h6.25v21.875h-6.25V68.75z" fill="#95573A"></path>
    <path d="M76.563 68.75a5.534 5.534 0 00-4.624-5.458l-14.126-2.355v4.688l15.624 3.125h3.126a5.534 5.534 0 014.623-5.458l14.126-2.355v4.688L79.689 68.75h-3.126z" fill="#D4BD81"></path>
    <path d="M92.444 90.476l-6.25 1.042a1.562 1.562 0 01-1.819-1.541v-5.808a2.034 2.034 0 011.7-2.006l5.306-.885a2.033 2.033 0 012.369 2.006v5.65a1.562 1.562 0 01-1.306 1.542z" fill="#FEC9A3"></path>
  </symbol>
</svg>